<svg xmlns="http://www.w3.org/2000/svg" viewBox="0 0 118.08 203.25"><defs><style>.cls-1{isolation:isolate;}.cls-2{fill:#613180;}.cls-3{fill:#361d4a;}.cls-4{fill:#f8f9f7;}.cls-5{fill:#a8a8a8;}.cls-6{fill:#341b48;}.cls-7{fill:none;stroke:#341b48;stroke-linecap:round;stroke-linejoin:round;stroke-width:0.51px;}.cls-8{fill:#edeef0;mix-blend-mode:multiply;}</style></defs><title>bankmovil</title><g class="cls-1"><g id="Capa_2" data-name="Capa 2"><g id="Capa_1-2" data-name="Capa 1"><rect class="cls-2" x="1.63" y="1.63" width="114.82" height="199.99" rx="9.41"/><path class="cls-3" d="M107,3.26A7.78,7.78,0,0,1,114.82,11V192.21A7.78,7.78,0,0,1,107,200H11a7.78,7.78,0,0,1-7.78-7.78V11A7.78,7.78,0,0,1,11,3.26h96M107,0H11A11,11,0,0,0,0,11V192.21a11.06,11.06,0,0,0,11,11h96a11.06,11.06,0,0,0,11-11V11A11,11,0,0,0,107,0Z"/><path class="cls-4" d="M105.72,169.34a6.44,6.44,0,0,1-6.51,6.37H18.87a6.44,6.44,0,0,1-6.51-6.37V21.05a6.44,6.44,0,0,1,6.51-6.37H99.21a6.44,6.44,0,0,1,6.51,6.37Z"/><path class="cls-5" d="M43.74,194.9c-3.33,0-6-2.36-6-5.25s2.71-5.26,6-5.26h30.6c3.33,0,6,2.36,6,5.26s-2.71,5.25-6,5.25Z"/><path class="cls-6" d="M74.34,186c2.44,0,4.41,1.62,4.41,3.63s-2,3.62-4.41,3.62H43.74c-2.44,0-4.41-1.62-4.41-3.62s2-3.63,4.41-3.63h30.6m0-3.26H43.74c-4.23,0-7.67,3.09-7.67,6.89s3.44,6.88,7.67,6.88h30.6c4.23,0,7.67-3.09,7.67-6.88s-3.44-6.89-7.67-6.89Z"/><path class="cls-4" d="M23.2,85.85a.69.69,0,0,1-.63-.56.84.84,0,0,1,.28-.87L58.69,56.68a.57.57,0,0,1,.7,0L95.23,84.42a.84.84,0,0,1,.28.87.69.69,0,0,1-.63.56Z"/><path class="cls-6" d="M59,57.34,94.88,85.07H23.2L59,57.34m0-1.56a1.14,1.14,0,0,0-.71.25L22.49,83.76A1.7,1.7,0,0,0,22,85.51a1.35,1.35,0,0,0,1.25,1.12H94.88a1.35,1.35,0,0,0,1.25-1.12,1.74,1.74,0,0,0-.54-1.75L59.75,56a1.14,1.14,0,0,0-.71-.25Z"/><rect class="cls-2" x="32.3" y="90.87" width="9.35" height="42.55"/><path class="cls-6" d="M41,91.65v41H33v-41h8m1.3-1.56H31.65v44.12H42.3V90.09Z"/><rect class="cls-4" x="34.91" y="91.65" width="4.13" height="40.99"/><rect class="cls-2" x="47.08" y="90.87" width="9.35" height="42.55"/><path class="cls-6" d="M55.78,91.65v41h-8v-41h8m1.3-1.56H46.43v44.12H57.08V90.09Z"/><rect class="cls-4" x="49.69" y="91.65" width="4.13" height="40.99"/><rect class="cls-2" x="61.87" y="90.87" width="9.35" height="42.55"/><path class="cls-6" d="M70.56,91.65v41h-8v-41h8m1.3-1.56H61.21v44.12H71.86V90.09Z"/><rect class="cls-4" x="64.47" y="91.65" width="4.13" height="40.99"/><rect class="cls-2" x="76.65" y="90.87" width="9.35" height="42.55"/><path class="cls-6" d="M85.34,91.65v41h-8v-41h8m1.31-1.56H76v44.12H86.65V90.09Z"/><rect class="cls-4" x="79.26" y="91.65" width="4.13" height="40.99"/><path class="cls-2" d="M23.17,140a.72.72,0,0,1-.65-.78v-6.58a.72.72,0,0,1,.65-.78H94.91a.72.72,0,0,1,.65.78v6.58a.72.72,0,0,1-.65.78Z"/><path class="cls-6" d="M94.91,132.65v6.58H23.17v-6.58H94.91m0-1.56H23.17a1.45,1.45,0,0,0-1.3,1.56v6.58a1.45,1.45,0,0,0,1.3,1.56H94.91a1.45,1.45,0,0,0,1.3-1.56v-6.58a1.45,1.45,0,0,0-1.3-1.56Z"/><path class="cls-2" d="M23.17,92.43a.72.72,0,0,1-.65-.78V85.07a.72.72,0,0,1,.65-.78H94.91a.72.72,0,0,1,.65.78v6.58a.72.72,0,0,1-.65.78Z"/><path class="cls-6" d="M94.91,85.07v6.58H23.17V85.07H94.91m0-1.56H23.17a1.45,1.45,0,0,0-1.3,1.56v6.58a1.45,1.45,0,0,0,1.3,1.56H94.91a1.45,1.45,0,0,0,1.3-1.56V85.07a1.45,1.45,0,0,0-1.3-1.56Z"/><rect class="cls-4" x="23.17" y="87.23" width="71.74" height="2.25"/><path class="cls-2" d="M18.61,146.64a.77.77,0,0,1-.69-.83v-6.58a.77.77,0,0,1,.69-.83H99.47a.77.77,0,0,1,.69.83v6.58a.77.77,0,0,1-.69.83Z"/><path class="cls-6" d="M99.47,139.23v6.58H18.61v-6.58H99.47m0-1.66H18.61a1.54,1.54,0,0,0-1.39,1.66v6.58a1.54,1.54,0,0,0,1.39,1.66H99.47a1.54,1.54,0,0,0,1.39-1.66v-6.58a1.54,1.54,0,0,0-1.39-1.66Z"/><path class="cls-2" d="M59,79c-3.6,0-6.52-3.5-6.52-7.8s2.92-7.8,6.52-7.8,6.52,3.5,6.52,7.8S62.64,79,59,79Z"/><path class="cls-6" d="M59,64.18c3.24,0,5.87,3.15,5.87,7s-2.63,7-5.87,7-5.87-3.14-5.87-7,2.63-7,5.87-7m0-1.56c-4,0-7.17,3.85-7.17,8.58s3.21,8.58,7.17,8.58,7.17-3.85,7.17-8.58S63,62.62,59,62.62Z"/><path class="cls-7" d="M57.18,72.77A1.83,1.83,0,0,0,59,74.58a1.92,1.92,0,0,0,1.86-1.81c0-.89-.51-1.48-1.73-1.57s-2-.65-2-1.56A1.74,1.74,0,0,1,59,67.82a1.84,1.84,0,0,1,1.86,1.82"/><line class="cls-7" x1="59.04" y1="74.77" x2="59.04" y2="76.01"/><line class="cls-7" x1="59.04" y1="66.4" x2="59.04" y2="67.76"/><path class="cls-8" d="M93.51,137.44v-6.59H83.94v-41h9.57V83.28h0L57.64,55.54l-.33.26V89.86h3.81v41H57.31V144H98.07v-6.58ZM75.9,130.85H69.16v-41H75.9Z"/></g></g></g></svg>