<svg xmlns="http://www.w3.org/2000/svg" viewBox="0 0 63.75 58.43"><defs><style>.cls-1{isolation:isolate;}.cls-2{fill:#f8f9f7;}.cls-3{fill:#321946;}.cls-4{fill:#5c2f7a;}.cls-5{fill:none;stroke:#321946;stroke-linecap:round;stroke-linejoin:round;stroke-width:0.51px;}.cls-6{fill:#fff;mix-blend-mode:multiply;}</style></defs><title>bank</title><g class="cls-1"><g id="Capa_2" data-name="Capa 2"><g id="Capa_1-2" data-name="Capa 1"><path class="cls-2" d="M4.55,19.17a.49.49,0,0,1-.47-.36.5.5,0,0,1,.21-.56L31.6.58A.45.45,0,0,1,31.87.5a.43.43,0,0,1,.27.08L59.46,18.25a.5.5,0,0,1-.27.92Z"/><path class="cls-3" d="M31.87,1,59.19,18.67H4.55L31.87,1m0-1a1,1,0,0,0-.54.16L4,17.83A1,1,0,0,0,3.6,19a1,1,0,0,0,.95.71H59.19a1,1,0,0,0,.54-1.83L32.41.16A1,1,0,0,0,31.87,0Z"/><rect class="cls-4" x="11.49" y="22.37" width="7.13" height="27.12"/><path class="cls-3" d="M18.12,22.86V49H12V22.86h6.13m1-1H11V50h8.12V21.87Z"/><rect class="cls-2" x="13.48" y="22.86" width="3.15" height="26.12"/><rect class="cls-4" x="22.76" y="22.37" width="7.12" height="27.12"/><path class="cls-3" d="M29.39,22.86V49H23.26V22.86h6.13m1-1H22.26V50h8.12V21.87Z"/><rect class="cls-2" x="24.75" y="22.86" width="3.15" height="26.12"/><rect class="cls-4" x="34.03" y="22.37" width="7.12" height="27.12"/><path class="cls-3" d="M40.65,22.86V49H34.52V22.86h6.13m1-1H33.53V50h8.12V21.87Z"/><rect class="cls-2" x="36.01" y="22.86" width="3.15" height="26.12"/><rect class="cls-4" x="45.29" y="22.37" width="7.13" height="27.12"/><path class="cls-3" d="M51.92,22.86V49H45.79V22.86h6.13m1-1H44.8V50h8.11V21.87Z"/><rect class="cls-2" x="47.28" y="22.86" width="3.15" height="26.12"/><rect class="cls-4" x="4.04" y="48.49" width="55.67" height="5.19" rx="0.5"/><path class="cls-3" d="M59.21,49v4.19H4.53V49H59.21m0-1H4.53a1,1,0,0,0-1,1v4.19a1,1,0,0,0,1,1H59.21a1,1,0,0,0,1-1V49a1,1,0,0,0-1-1Z"/><rect class="cls-4" x="4.04" y="18.17" width="55.67" height="5.19" rx="0.5"/><path class="cls-3" d="M59.21,18.67v4.19H4.53V18.67H59.21m0-1H4.53a1,1,0,0,0-1,1v4.19a1,1,0,0,0,1,1H59.21a1,1,0,0,0,1-1V18.67a1,1,0,0,0-1-1Z"/><rect class="cls-2" x="4.53" y="20.05" width="54.68" height="1.44"/><rect class="cls-4" x="0.53" y="52.66" width="62.69" height="5.25" rx="0.53"/><path class="cls-3" d="M62.69,53.18v4.2H1.06v-4.2H62.69m0-1H1.06a1.05,1.05,0,0,0-1.06,1v4.2a1.05,1.05,0,0,0,1.06,1H62.69a1.06,1.06,0,0,0,1.06-1v-4.2a1.06,1.06,0,0,0-1.06-1Z"/><path class="cls-4" d="M31.87,14.8a5,5,0,1,1,5-5A5,5,0,0,1,31.87,14.8Z"/><path class="cls-3" d="M31.87,5.36A4.47,4.47,0,1,1,27.4,9.83a4.48,4.48,0,0,1,4.47-4.47m0-1a5.47,5.47,0,1,0,5.47,5.47,5.48,5.48,0,0,0-5.47-5.47Z"/><path class="cls-5" d="M30.46,10.83A1.3,1.3,0,0,0,31.87,12a1.37,1.37,0,0,0,1.42-1.15c0-.57-.39-.94-1.32-1s-1.51-.41-1.51-1c0-.76.63-1.16,1.41-1.16a1.31,1.31,0,0,1,1.42,1.16"/><line class="cls-5" x1="31.87" y1="12.1" x2="31.87" y2="12.89"/><line class="cls-5" x1="31.87" y1="6.77" x2="31.87" y2="7.63"/><path class="cls-6" d="M59.21,53.18V49H51.92V22.86h7.29V18.67h0L31.87,1l-.25.16V22.86h2.9V49h-2.9v8.39H62.69v-4.2ZM45.79,49H40.65V22.86h5.14Z"/></g></g></g></svg>