<?xml version="1.0" encoding="iso-8859-1"?>
<!-- Generator: Adobe Illustrator 19.0.0, SVG Export Plug-In . SVG Version: 6.00 Build 0)  -->
<svg xmlns="http://www.w3.org/2000/svg" xmlns:xlink="http://www.w3.org/1999/xlink" version="1.1" id="Layer_1" x="0px" y="0px" viewBox="0 0 510.733 510.733" style="enable-background:new 0 0 510.733 510.733;" xml:space="preserve" width="512" height="512">
<g>
	<g>
		<g>
			<g>
				<path style="fill:#55879B;" d="M463.78,58.38h-8.474l0.02-14.818c0.004-2.953-2.387-5.35-5.34-5.354l-19.558-0.027      c-2.953-0.004-5.35,2.387-5.354,5.34l-0.02,14.86h-8.549c-2.953,0-5.347,2.394-5.347,5.347v19.558      c0,2.953,2.394,5.347,5.347,5.347h8.508l-0.062,45.132l30.253,0.041l0.062-45.173h8.515c2.953,0,5.347-2.394,5.347-5.347V63.727      C469.127,60.774,466.733,58.38,463.78,58.38z"/>
			</g>
			<g>
				<g>
					<path style="fill:#8EA0A5;" d="M500.648,286.411H379.637V182.118c0-33.137,26.863-60,60-60h1.011c33.137,0,60,26.863,60,60       V286.411z"/>
				</g>
			</g>
		</g>
		<g>
			<g>
				<path style="fill:#55879B;" d="M312.891,58.38h-8.473l0.02-14.818c0.004-2.953-2.387-5.35-5.34-5.354l-19.558-0.027      c-2.953-0.004-5.35,2.387-5.355,5.34l-0.021,14.86h-8.549c-2.953,0-5.347,2.394-5.347,5.347v19.558      c0,2.953,2.394,5.347,5.347,5.347h8.507l-0.062,45.132l30.253,0.042l0.062-45.173h8.515c2.953,0,5.347-2.394,5.347-5.347V63.727      C318.238,60.774,315.844,58.38,312.891,58.38z"/>
			</g>
			<g>
				<g>
					<path style="fill:#8EA0A5;" d="M349.759,286.411H228.748V182.118c0-33.137,26.863-60,60-60h1.011c33.137,0,60,26.863,60,60       V286.411z"/>
				</g>
			</g>
		</g>
		<g>
			<path style="fill:#965028;" d="M500.648,296.496h-271.9c-5.569,0-10.084-4.515-10.084-10.084c0-5.569,4.515-10.084,10.084-10.084     h271.9c5.569,0,10.084,4.515,10.084,10.084C510.733,291.981,506.217,296.496,500.648,296.496z"/>
		</g>
	</g>
	<g>
		<g>
			<g id="XMLID_55_">
				<circle style="fill:#F7A58B;" cx="212.777" cy="102.94" r="39.543"/>
			</g>
			<g id="XMLID_52_">
				<path style="fill:#232529;" d="M236.535,472.552c-10.71,0-19.392-8.682-19.392-19.392V298.155      c0-10.71,8.682-19.392,19.392-19.392c10.71,0,19.392,8.682,19.392,19.392V453.16      C255.928,463.87,247.246,472.552,236.535,472.552z"/>
			</g>
			<g id="XMLID_51_">
				<path style="fill:#32363B;" d="M189.722,472.552c-10.71,0-19.392-8.682-19.392-19.392V298.155      c0-10.71,8.682-19.392,19.392-19.392c10.71,0,19.392,8.682,19.392,19.392V453.16      C209.115,463.87,200.432,472.552,189.722,472.552z"/>
			</g>
			<g>
				<path style="fill:#272A2E;" d="M294.442,181.337c-0.105-20.981-17.327-38.051-38.389-38.051c-10.855,0-64.272,0-86.101,0      c-21.311,0-38.734,17.07-38.84,38.132v118.724c0,8.925,7.235,16.16,16.16,16.16c8.925,0,16.16-7.235,16.16-16.16l0-118.642      c0.016-3.084,3.123-5.893,6.519-5.893h0.379v122.548h85.598V175.607h0.125c3.274,0,6.053,2.699,6.069,5.812v118.724      c0,8.925,7.235,16.16,16.16,16.16c8.925,0,16.16-7.235,16.16-16.16L294.442,181.337z"/>
			</g>
			<g>
				<path style="fill:#F7A58B;" d="M131.112,291.218v8.924c0,8.925,7.235,16.16,16.16,16.16c8.925,0,16.16-7.235,16.16-16.16      l0-8.924H131.112z"/>
				<path style="fill:#F7A58B;" d="M262.122,291.218v8.924c0,8.925,7.235,16.16,16.16,16.16c8.925,0,16.16-7.235,16.16-16.16      l0-8.924H262.122z"/>
			</g>
			<polygon style="fill:#373C41;" points="242.535,143.206 239.793,130.938 184.854,130.938 182.112,143.206    "/>
		</g>
		<g>
			<g id="XMLID_49_">
				<circle style="fill:#F7A58B;" cx="81.665" cy="102.94" r="39.543"/>
			</g>
			<g id="XMLID_48_">
				<path style="fill:#272A2E;" d="M105.424,472.552c-10.71,0-19.392-8.682-19.392-19.392V298.155      c0-10.71,8.682-19.392,19.392-19.392s19.392,8.682,19.392,19.392V453.16C124.816,463.87,116.134,472.552,105.424,472.552z"/>
			</g>
			<g id="XMLID_47_">
				<path style="fill:#32363B;" d="M58.611,472.552c-10.71,0-19.392-8.682-19.392-19.392V298.155      c0-10.71,8.682-19.392,19.392-19.392s19.392,8.682,19.392,19.392V453.16C78.003,463.87,69.321,472.552,58.611,472.552z"/>
			</g>
			<g>
				<path style="fill:#373C41;" d="M163.33,181.337c-0.105-20.981-17.327-38.051-38.389-38.051c-10.855,0-64.272,0-86.101,0      c-21.311,0-38.734,17.07-38.84,38.132v118.724c0,8.925,7.235,16.16,16.16,16.16s16.16-7.235,16.16-16.16l0-118.642      c0.016-3.084,3.123-5.893,6.519-5.893h0.379v122.548h85.598V175.607h0.125c3.274,0,6.053,2.699,6.069,5.812v118.724      c0,8.925,7.235,16.16,16.16,16.16c8.925,0,16.16-7.235,16.16-16.16L163.33,181.337z"/>
			</g>
			<g>
				<path style="fill:#F7A58B;" d="M0,291.218v8.924c0,8.925,7.235,16.16,16.16,16.16s16.16-7.235,16.16-16.16l0-8.924H0z"/>
				<path style="fill:#F7A58B;" d="M131.01,291.218v8.924c0,8.925,7.235,16.16,16.16,16.16c8.925,0,16.16-7.235,16.16-16.16l0-8.924      H131.01z"/>
			</g>
			<polygon style="fill:#3F444A;" points="111.424,143.206 108.682,130.938 53.743,130.938 51.001,143.206    "/>
		</g>
	</g>
</g>















</svg>
