<svg xmlns="http://www.w3.org/2000/svg" viewBox="0 0 1600.52 1431.66"><defs><style>.cls-1{fill:#f9b233;}.cls-2{fill:#160d38;}.cls-3{fill:#fff;}.cls-4{fill:#1d7a1b;}.cls-5{fill:#23cc79;}.cls-6{fill:#663387;}.cls-7{fill:#ff926e;}.cls-8{fill:#1d1d1b;}.cls-9{fill:#33945c;}</style></defs><title>consuelo</title><g id="Capa_2" data-name="Capa 2"><g id="Layer_2" data-name="Layer 2"><path class="cls-1" d="M641.52,939.64a54,54,0,0,0-6.92,9.75c-4.12,7.34-6.77,15.38-9.42,23.37q-12.49,37.86-25,75.71c-2.56,3.62-5.26,7.66-8.52,10.18a39.17,39.17,0,0,1-6.35,3.91q-6.48-81-9.29-162.18-1.32-38.52-1.83-77A229.14,229.14,0,0,0,635.53,749a277.4,277.4,0,0,0,18-44.27,26.53,26.53,0,0,0,22.63,9c8.88-.9,17.27-6.06,24.21-13.14,11.69-11.91,19.75-30.11,19.74-49.08a62.28,62.28,0,0,0-.85-10.22,224,224,0,0,1,41.28,12.23c19.34,7.93,37.1,18.93,51.93,33.88,20.9,21.1,34.19,48.52,41.32,77.54-.38-.42-.75-.86-1.13-1.29-6.75-7.85-13.07-16.08-19.59-24.12-2.84-3.49-5-7.24-8.24-10.37-3.59-3.47-7.46-6.8-11.07-10.12C800,706.37,781.46,696.85,763,700c-3.69.62-8,2.57-8.23,6.3-.18,3,2.41,5.32,4.75,7.18l.69.54c-10.63-4.13-22.17-6-32.47-1.65-3.37,1.42-6.6,3.6-8.27,6.86a9,9,0,0,0-.51,7,21.2,21.2,0,0,0-8.78,3.34c-3,2.12-5.11,5.66-4.76,9.28s3.15,6.71,6.43,8.38,7,2.2,10.62,2.69a65.34,65.34,0,0,1,14.3,2.54,18.88,18.88,0,0,0-6.44-.36c-3.8.52-7.58,2.94-8.63,6.63-1.09,3.87,1.07,8.05,4.13,10.67s6.91,4.11,10.52,5.91a68.58,68.58,0,0,1,18.4,13.89,78.29,78.29,0,0,1,7.53,8.94c2.47,3.48,4,7.73,5.84,11.59q7.46,15.62,15.66,30.85c2.69,5,5.39,10,8.26,14.9,2.35,4,6.05,7.78,9.13,11.35,13.34,15.49,32.66,27.47,52.45,33.18l0,.08c-.7,4.59-1.43,9.15-2.19,13.71-5.49,33.33-11.88,66.51-18.93,99.55a14.24,14.24,0,0,0-4.46-2.1c-3.82-1.05-7.87-.68-11.77,0-25.25,4.35-46.56,20.55-69.54,31.87-2.22,1.09-4.54,2.16-7,2.11s-5.08-1.55-5.57-4c-.82-4,13.42-13.26,16.38-15.61a239.33,239.33,0,0,1,22-15.26c15-9.34,30.68-17.48,46-26.33,3.63-2.1,7.31-4.31,10.19-7.37s4.9-7.21,4.55-11.4c-.54-6.34-6.44-11.17-12.67-12.48,4.16-2.19,7.85-5.52,8.08-10.07.27-5.24-4.3-9.52-9.13-11.59-10.31-4.44-22.19-2.21-33,.87a233.86,233.86,0,0,0-57.07,24.93,134.74,134.74,0,0,1,45-27.63c3.89-1.43,7.93-2.72,11.23-5.22s5.8-6.57,5.16-10.66-4.36-7.32-8.4-8.46-8.35-.64-12.48.13c-26.69,5-50.39,20.07-71.71,36.87a422,422,0,0,0-39.42,35.21,106.2,106.2,0,0,1,8.88-21.44c1.92-3.5,4.07-7,5.16-10.8s1-8.26-1.3-11.53a12,12,0,0,0-9.34-4.65,20.69,20.69,0,0,0-10.35,2.72A37.6,37.6,0,0,0,641.52,939.64Z"/><path class="cls-2" d="M1189.85,69a33.51,33.51,0,0,1,20,3.43c10.66,5.83,16.53,18.86,14.8,30.88a34.52,34.52,0,0,1-9.29,18.63q-2.71-4.86-5.71-9.56a181.13,181.13,0,0,0-34-39.31,51.93,51.93,0,0,1,11.06-3.57C1187.73,69.25,1188.79,69.08,1189.85,69Z"/><path class="cls-1" d="M1416.28,297.68v.07a50.88,50.88,0,0,1-46.83,8.06c-11.58,9.54-28.83,10.33-43,4.5-14.4,9.82-34.49,7.6-50.34,0a89.44,89.44,0,0,1-38.23-35.72c.53-2.85,1-5.71,1.44-8.59,7.3-49,.12-100.93-24-144.09a34.52,34.52,0,0,0,9.29-18.63c1.73-12-4.14-25-14.8-30.88a33.51,33.51,0,0,0-20-3.43c4.72-25.93,26.74-47.28,51.18-58.59,18.89-8.76,40.45-13.08,60.77-8.54,30.92,6.88,54.38,33.14,67.57,62s18.08,60.55,25.55,91.34,18.28,62.07,40.48,84.66c5.34,5.44,11.29,10.31,15.95,16.34s8,13.6,6.94,21.15c-2,14.8-19.57,22.6-34.45,21.53A51.81,51.81,0,0,1,1416.28,297.68Z"/><path class="cls-1" d="M914,245.67c-17.68,7.63-40.39,15.76-59.43,17.46-17.63,1.56-36-1.09-51.45-9.62-1.48-.82-2.94-1.69-4.36-2.62-28.32-18.51-35.12-58.17-24.25-88.67,10-28,33.94-48.85,59.54-64,1.57-.92,3.13-1.82,4.71-2.7,19.72-11.15,40.64-20,60.58-30.68C917.13,55.3,933.07,45.76,952.82,40c40.91-12,84.49-12.81,126.63-8.46l0,.38c35.49,2.37,69.23,17.77,96.2,41.16a181.13,181.13,0,0,1,34,39.31q3,4.69,5.71,9.56c24.13,43.16,31.31,95,24,144.09-.44,2.88-.91,5.74-1.44,8.59-.2,1.24-.44,2.48-.68,3.71-.3-.66-.63-1.31-1-2C1227.57,260.19,1208,250.55,1190,254c-15.08,2.87-27.92,14.94-32.24,29.53-18,5-38,.15-53.45-10.5-16-11-27.42-27.52-35.3-45.2-.49-1.11-1-2.2-1.43-3.32a99.29,99.29,0,0,1-39.82-7,182.93,182.93,0,0,1-69.42,27.06A150.16,150.16,0,0,1,914,245.67Z"/><path class="cls-3" d="M190.2,1357.81a119.44,119.44,0,0,0,17.78,5.48,126,126,0,0,0-54.77,40.58,40,40,0,0,0-3.67,5.67c-1.66,1.32-3.27,2.71-4.9,4.06-4.41,3.68-9.18,7.25-14.79,8.54s-12.25-.3-15.31-5.16a12.31,12.31,0,0,1-1.75-7.15,16.91,16.91,0,0,1,1.06-5.22c1.5-4,4.22-7.44,7-10.69a184.18,184.18,0,0,1,54.69-43.19A117.67,117.67,0,0,0,190.2,1357.81Z"/><path class="cls-2" d="M513.32,329.42a110.56,110.56,0,1,1,21.23-65.15A110.42,110.42,0,0,1,513.32,329.42Z"/><path class="cls-3" d="M149.54,1409.54a40,40,0,0,1,3.67-5.67A126,126,0,0,1,208,1363.29c40.94,9.26,85.34-2.43,125.9-16.07q63.86-21.48,125.45-49.08a480,480,0,0,1,19.82,75.7l-110.79,9.23c-35.53,3-62.68,10.8-98.34,10.26-19.27-.3-39.29-2-57.17,5.22-14.58,5.89-26.24,17.14-39.58,25.48-3.84,2.39-8,4.61-12.45,5.13s-9.49-1-12-4.71C145.75,1420,146.94,1414.51,149.54,1409.54Z"/><path class="cls-2" d="M1036.53,253.1c2,1.38,2.68,4.34.63,5.67a7.66,7.66,0,0,1-2.8.88l-39.29,6.79-19.65,3.39c-4.68.81-14.74,4.3-19.29,3.3-6.5-1.45-2-7.78,1.3-10.8,6.63-6.19,19.65-7.22,28.91-8.65a213.85,213.85,0,0,1,42.78-2.31C1031.73,251.49,1034.51,251.72,1036.53,253.1Z"/><path class="cls-3" d="M901.25,809.43c37.2,29.92,78.68,54.52,120.18,78.89a503,503,0,0,0-66.81,107.56c-14.12-13.83-28-27.56-41.65-41-18.69-18.34-36.9-36.06-54.55-52.52-.39-.67-.3-1.25-1.58-1.58l-.17,0c-1-.26-2-.53-3-.83-19.79-5.71-39.11-17.69-52.45-33.18-3.08-3.57-6.78-7.31-9.13-11.35-2.87-4.91-5.57-9.9-8.26-14.9q-8.21-15.22-15.66-30.85c-1.85-3.86-3.37-8.11-5.84-11.59a78.29,78.29,0,0,0-7.53-8.94,68.58,68.58,0,0,0-18.4-13.89c-3.61-1.8-7.45-3.28-10.52-5.91s-5.22-6.8-4.13-10.67c1-3.69,4.83-6.11,8.63-6.63a18.88,18.88,0,0,1,6.44.36,65.34,65.34,0,0,0-14.3-2.54c-3.63-.49-7.35-1-10.62-2.69s-6.08-4.72-6.43-8.38,1.8-7.16,4.76-9.28a21.2,21.2,0,0,1,8.78-3.34,9,9,0,0,1,.51-7c1.67-3.26,4.9-5.44,8.27-6.86,10.3-4.32,21.84-2.48,32.47,1.65l-.69-.54c-2.34-1.86-4.93-4.19-4.75-7.18.23-3.73,4.54-5.68,8.23-6.3,18.46-3.13,37,6.39,50.75,19.06,3.61,3.32,7.48,6.65,11.07,10.12,3.24,3.13,5.4,6.88,8.24,10.37,6.52,8,12.84,16.27,19.59,24.12.38.43.75.87,1.13,1.29,1.66,1.93,3.39,3.84,5.14,5.69A422.46,422.46,0,0,0,901.25,809.43Z"/><path class="cls-3" d="M719.25,641.29a62.28,62.28,0,0,1,.85,10.22c0,19-8.05,37.17-19.74,49.08-6.94,7.08-15.33,12.24-24.21,13.14a26.53,26.53,0,0,1-22.63-9,384.32,384.32,0,0,0,12.86-57.2c1.76-11.53,3.08-23.13,4.08-34.72.13-1.54.27-3.08.37-4.62,8-5.17,18-6.12,26.39-1.84C708.63,612.12,716.69,626,719.25,641.29Z"/><path class="cls-3" d="M27.84,732.7A193.11,193.11,0,0,0,17,764.5l-.53-.13a6.28,6.28,0,0,1-7.11,4.2c-3.51-.74-6-4.14-6.69-7.66s0-7.16.94-10.65a118.67,118.67,0,0,1,24.77-48l.4.06A91.91,91.91,0,0,0,27.05,726,49.75,49.75,0,0,0,27.84,732.7Z"/><path class="cls-3" d="M27.84,732.7a49.75,49.75,0,0,1-.79-6.67,92,92,0,0,1,15.44-56.45c3.77-5.62,8.71-11.15,15.35-12.42l.24.15c-8.88,14.87-12.63,34.53-11.44,49.59.39,4.76,1.22,9.61,3.63,13.73a16.29,16.29,0,0,0,5.59,5.69c-.22,4.13-.64,8.28-2.25,12.07-1.89,4.49-5.83,8.44-10.66,8.94s-9.72-2.72-12.29-7A23.35,23.35,0,0,1,27.84,732.7Z"/><path class="cls-3" d="M125.57,647.92a76.3,76.3,0,0,0-25.81,44.86c-.89,5.19-1.31,10.64-4,15.18s-8.5,7.81-13.25,5.53a9.87,9.87,0,0,1-4.49-4.87,24.89,24.89,0,0,1-1.84-6c-3.29-17.24-.17-35.44,7.87-51,2.73-5.29,6.18-11.5,10.7-16A23.29,23.29,0,0,1,99.43,632c8.15-4.81,18.72-6.36,28-5.17a47,47,0,0,1,27.51,13.79A247,247,0,0,0,125.57,647.92Z"/><path class="cls-3" d="M55.86,726.32a16.29,16.29,0,0,1-5.59-5.69c-2.41-4.12-3.24-9-3.63-13.73-1.19-15.06,2.56-34.72,11.44-49.59,8-13.42,20.2-22.94,36.7-21.68-4.52,4.47-8,10.68-10.7,16-8,15.55-11.16,33.75-7.87,51a24.89,24.89,0,0,0,1.84,6,36,36,0,0,1-3.86,11.47c-2.62,4.45-7.25,8.06-12.4,8A12,12,0,0,1,55.86,726.32Z"/><path class="cls-3" d="M156.33,1337.23a128.54,128.54,0,0,0,19.22,13.5,184.18,184.18,0,0,0-54.69,43.19c-2.79,3.25-5.51,6.67-7,10.69a16.91,16.91,0,0,0-1.06,5.22l-.89,0c-3.19,2.12-7.81-.37-9.19-3.93s-.49-7.58.67-11.23A93.65,93.65,0,0,1,156.33,1337.23Z"/><path class="cls-1" d="M319,1142.56c43.34-12.38,86.47-25.54,129.61-38.56a333.82,333.82,0,0,1,52.09,174.8q-20.52,10-41.38,19.34-61.5,27.55-125.45,49.08c-40.56,13.64-85,25.33-125.9,16.07a119.44,119.44,0,0,1-17.78-5.48,117.67,117.67,0,0,1-14.65-7.08,128.54,128.54,0,0,1-19.22-13.5c-16.75-14.12-30.4-32.31-40.72-51.73-29.15-54.82-41.54-121-56.31-180.88-15.57-63.13-29.45-126.71-40-190.87-6.48-39.28-11.71-79.23-7.57-118.82A223.93,223.93,0,0,1,17,764.5a193.11,193.11,0,0,1,10.83-31.8,23.35,23.35,0,0,0,2.82,7.65c2.57,4.26,7.34,7.5,12.29,7s8.77-4.45,10.66-8.94c1.61-3.79,2-7.94,2.25-12.07a12,12,0,0,0,5.93,1.76c5.15.07,9.78-3.54,12.4-8a36,36,0,0,0,3.86-11.47,9.87,9.87,0,0,0,4.49,4.87c4.75,2.28,10.6-1,13.25-5.53s3.08-10,4-15.18a76.3,76.3,0,0,1,25.81-44.86,247,247,0,0,1,29.36-7.32q9.63-1.8,19.36-2.94a58.54,58.54,0,0,0-1.69,13.85,69.17,69.17,0,0,0,21.17,49.08c7.44,7.08,16.43,12.24,26,13.14a29.53,29.53,0,0,0,23.22-8A274.87,274.87,0,0,0,260.59,749a229.08,229.08,0,0,0,66.56,78.34q.54,42.43.19,84.87Q326.43,1027.46,319,1142.56Z"/><path class="cls-3" d="M229.55,646.33A383.89,383.89,0,0,0,243,705.78a29.53,29.53,0,0,1-23.22,8c-9.53-.9-18.52-6.06-26-13.14a69.17,69.17,0,0,1-21.17-49.08,58.54,58.54,0,0,1,1.69-13.85c3.37-13.82,11.59-26,22.86-31.33,9-4.25,19.54-3.34,28.12,1.75q.18,2.35.39,4.71C226.63,624,227.89,635.19,229.55,646.33Z"/><path class="cls-4" d="M858.42,902.41c-.58-.55-1.17-1.09-1.75-1.62l.17,0C858.12,901.16,858,901.74,858.42,902.41Z"/><path class="cls-2" d="M590.44,614.68c3.25,2.07,5.54,6.21,4.18,9.81-1.75,4.63-7.85,5.5-12.81,5.46-22.76-.15-46.72-3.94-64.46-18.19-2.74-2.2-5.35-4.71-6.82-7.9s-1.57-7.19.48-10c3.38-4.63,8.29-2.59,12.25-.51a171.4,171.4,0,0,0,18.17,8.11,185.09,185.09,0,0,0,38,10.09C583.23,612.11,587.19,612.61,590.44,614.68Z"/><path class="cls-4" d="M602.08,1045.81c.44-.57.87-1.15,1.32-1.71a21.62,21.62,0,0,1-4.18,7.19c.31-.94.63-1.89.94-2.82C600.81,1047.54,601.45,1046.65,602.08,1045.81Z"/><path class="cls-2" d="M288.86,589.57a252.37,252.37,0,0,1-59.31,56.76c-1.66-11.14-2.92-22.34-3.89-33.54q-.21-2.35-.39-4.71c-3.22-40.69-2.35-82.22,8.3-121.35,13.36-49.08,42.3-93,80.79-122.63A207,207,0,0,1,347,343.55a110.52,110.52,0,0,0,166.35-14.13,206.5,206.5,0,0,1,68.44,34.68c38.48,29.64,67.43,73.55,80.78,122.63,10.65,39.17,11.53,80.72,8.29,121.44-.1,1.54-.24,3.08-.37,4.62-1,11.59-2.32,23.19-4.08,34.72a252.23,252.23,0,0,1-61-57.94c-46,0-96.11-16.52-117.34-35.18a150.75,150.75,0,0,1-40.92-59.08,150.63,150.63,0,0,1-40.91,59.08C385,573.05,334.84,589.62,288.86,589.57Z"/><path class="cls-2" d="M588.46,676.85c5.29,4.75-4.23,10.24-7.63,11.46-22.8,8.11-49.86,7.29-69.38-7-2.23-1.64-4.56-4.5-3.07-6.84a4,4,0,0,1,4.37-1.38,13.71,13.71,0,0,1,4.28,2.31A57.29,57.29,0,0,0,536.78,684a61.9,61.9,0,0,0,37.68-3.17C577.64,679.44,585,673.78,588.46,676.85Z"/><path class="cls-2" d="M403.56,674.44c1.48,2.34-.84,5.2-3.08,6.84-19.5,14.32-46.58,15.14-69.38,7-3.4-1.22-12.9-6.71-7.63-11.46,3.43-3.07,10.81,2.59,14,3.93A61.9,61.9,0,0,0,375.15,684a57.5,57.5,0,0,0,19.76-8.58,13.6,13.6,0,0,1,4.28-2.31A4,4,0,0,1,403.56,674.44Z"/><path class="cls-2" d="M400.92,593.83c2.07,2.84,1.95,6.85.48,10s-4.08,5.7-6.81,7.9c-17.75,14.25-41.71,18-64.47,18.19-5,0-11.05-.83-12.8-5.46-1.36-3.6.94-7.74,4.18-9.81s7.2-2.57,11-3.16a184.82,184.82,0,0,0,38-10.09,170.66,170.66,0,0,0,18.18-8.11C392.64,591.24,397.55,589.2,400.92,593.83Z"/><path class="cls-3" d="M327.15,827.32A229.08,229.08,0,0,1,260.59,749,274.87,274.87,0,0,1,243,705.78a383.89,383.89,0,0,1-13.4-59.45,252.37,252.37,0,0,0,59.31-56.76c46,0,96.1-16.52,117.34-35.18a150.63,150.63,0,0,0,40.91-59.08A150.75,150.75,0,0,0,488,554.39c21.23,18.66,71.35,35.23,117.34,35.18a252.23,252.23,0,0,0,61,57.94,384.32,384.32,0,0,1-12.86,57.2,277.4,277.4,0,0,1-18,44.27,229.14,229.14,0,0,1-61.36,74.35c-36.48,28.89-81,46.12-126.11,47.26C405,869.51,362.61,853.81,327.15,827.32ZM594.62,624.49c1.36-3.6-.93-7.74-4.18-9.81s-7.21-2.57-11-3.16a185.09,185.09,0,0,1-38-10.09,171.4,171.4,0,0,1-18.17-8.11c-4-2.08-8.87-4.12-12.25.51-2.05,2.84-1.95,6.85-.48,10s4.08,5.7,6.82,7.9c17.74,14.25,41.7,18,64.46,18.19C586.77,630,592.87,629.12,594.62,624.49Zm-13.79,63.82c3.4-1.22,12.92-6.71,7.63-11.46-3.42-3.07-10.82,2.59-14,3.93A61.9,61.9,0,0,1,536.78,684,57.29,57.29,0,0,1,517,675.37a13.71,13.71,0,0,0-4.28-2.31,4,4,0,0,0-4.37,1.38c-1.49,2.34.84,5.2,3.07,6.84C531,695.6,558,696.42,580.83,688.31Zm-180.35-7c2.24-1.64,4.56-4.5,3.08-6.84a4,4,0,0,0-4.37-1.38,13.6,13.6,0,0,0-4.28,2.31A57.5,57.5,0,0,1,375.15,684a61.9,61.9,0,0,1-37.68-3.17c-3.19-1.34-10.57-7-14-3.93-5.27,4.75,4.23,10.24,7.63,11.46C353.9,696.42,381,695.6,400.48,681.28Zm.92-77.42c1.47-3.18,1.59-7.19-.48-10-3.37-4.63-8.28-2.59-12.25-.51a170.66,170.66,0,0,1-18.18,8.11,184.82,184.82,0,0,1-38,10.09c-3.82.59-7.78,1.09-11,3.16s-5.54,6.21-4.18,9.81c1.75,4.63,7.84,5.5,12.8,5.46,22.76-.15,46.72-3.94,64.47-18.19C397.32,609.56,399.93,607.05,401.4,603.86Z"/><path class="cls-3" d="M448.06,870.59c45.14-1.14,89.63-18.37,126.11-47.26q.5,38.53,1.83,77a601.49,601.49,0,0,1-248.66,11.81q.36-42.44-.19-84.87C362.61,853.81,405,869.51,448.06,870.59Z"/><path class="cls-1" d="M500.71,1278.8a1407.37,1407.37,0,0,0,126-69.5l-1.08-1.75q26.05-17.34,51.35-35.82a122.56,122.56,0,0,0,46.57-37c11.25-14.76,19-31.86,29.26-47.28,9.79-14.67,22.17-28,37.67-36.42,10.73-5.84,22.65-9.18,33.62-14.55,1.3-.64,2.59-1.3,3.83-2q-7.82,35.2-16.5,70.23C801.08,1146.43,788,1187.7,776,1229.06c-14.06,48.57-31.86,92.3-81,114.4-33.55,15.07-71,18.33-107.67,21.37l-108.18,9a480,480,0,0,0-19.82-75.7Q480.18,1288.83,500.71,1278.8Z"/><path class="cls-5" d="M448.62,1104c-43.14,13-86.27,26.18-129.61,38.56q7.41-115,8.33-230.37A601.49,601.49,0,0,0,576,900.38q2.81,81.2,9.29,162.18c-6.19,3.09-13.27,5-19.56,6.83-38.24,10.87-76.33,22.31-114.39,33.79Z"/><path class="cls-3" d="M836.53,1018.69a10.56,10.56,0,0,0-4.06-5.39,14.24,14.24,0,0,0-4.46-2.1c-3.82-1.05-7.87-.68-11.77,0-25.25,4.35-46.56,20.55-69.55,31.87-2.21,1.09-4.53,2.16-7,2.11s-5.08-1.55-5.57-4c-.82-4,13.42-13.26,16.38-15.61a239.33,239.33,0,0,1,22-15.26c15-9.34,30.68-17.48,46-26.33,3.63-2.1,7.31-4.31,10.19-7.37s4.9-7.21,4.55-11.4c-.54-6.34-6.44-11.17-12.67-12.48,4.16-2.19,7.85-5.52,8.08-10.07.27-5.24-4.3-9.52-9.13-11.59-10.31-4.44-22.19-2.21-33,.87a233.86,233.86,0,0,0-57.07,24.93,134.83,134.83,0,0,1,45-27.63c3.89-1.43,7.93-2.72,11.23-5.22s5.8-6.57,5.16-10.66-4.36-7.32-8.4-8.46-8.35-.64-12.48.13c-26.69,5-50.39,20.07-71.71,36.87a422,422,0,0,0-39.42,35.21,106.2,106.2,0,0,1,8.88-21.44c1.92-3.5,4.07-7,5.16-10.8s1-8.26-1.3-11.53a12,12,0,0,0-9.34-4.65,20.69,20.69,0,0,0-10.35,2.72,37.6,37.6,0,0,0-10.32,8.2,54,54,0,0,0-6.92,9.75c-4.12,7.34-6.77,15.38-9.42,23.37q-12.49,37.86-25,75.71c.65-.93,1.29-1.82,1.92-2.66.44-.57.87-1.15,1.32-1.71a21.62,21.62,0,0,1-4.18,7.19c.31-.94.63-1.89.94-2.82-2.56,3.62-5.26,7.66-8.52,10.18a39.17,39.17,0,0,1-6.35,3.91c-6.19,3.09-13.27,5-19.56,6.83-38.24,10.87-76.33,22.31-114.39,33.79l-2.72.82a333.82,333.82,0,0,1,52.09,174.8,1407.37,1407.37,0,0,0,126-69.5l-1.08-1.75q26.05-17.34,51.35-35.82a122.56,122.56,0,0,0,46.57-37c11.25-14.76,19-31.86,29.26-47.28,9.79-14.67,22.17-28,37.67-36.42,10.73-5.84,22.65-9.18,33.62-14.55,1.3-.64,2.59-1.3,3.83-2a22.93,22.93,0,0,0,5.79-4.71C836.23,1026.67,837.67,1022.47,836.53,1018.69Z"/><path class="cls-6" d="M954.62,995.88c77.25,75.63,161.26,154.13,247.4,196.22,32.26,15.77,66.26,29.54,102,32.56s73.91-5.9,100-30.61c29.2-27.64,38.91-69.54,47.23-108.88,14.52-68.58,27.89-131.59,40.71-196.36q44.7,240.06,108.54,476H1052.26c-.56-53.34-20.36-128.85-41.46-172.12-23.34-47.89-52.15-93.2-71.68-142.78-12.13-30.79-20.47-62.58-26.15-95C926.6,968.32,940.5,982.05,954.62,995.88Z"/><path class="cls-6" d="M1021.43,888.32c-41.5-24.37-83-49-120.18-78.89a422.46,422.46,0,0,1-42.33-38.8c-1.75-1.85-3.48-3.76-5.14-5.69-7.13-29-20.42-56.44-41.32-77.54-14.83-14.95-32.59-25.95-51.93-33.88,61.83-9.73,123.36-21.12,183.93-36.82,23-5.94,46.62-12.94,64.42-28.64a66.11,66.11,0,0,0,10.18-11.36c38.82,32.56,94.51,44.72,143.09,29.75,50.7-15.62,91.14-60,103.18-111.49,15.1,11.6,32.5,21.24,50.5,30.14,42.88,21.22,89.62,36.15,127,66,54.55,43.51,82.54,118,70.19,186.64-6.91,38.41-13.88,75-21,111.07-12.82,64.77-26.19,127.78-40.71,196.36-8.32,39.34-18,81.24-47.23,108.88-26.08,24.71-64.2,33.65-100,30.61s-69.77-16.79-102-32.56c-86.14-42.09-170.15-120.59-247.4-196.22A503,503,0,0,1,1021.43,888.32Z"/><path class="cls-2" d="M882.6,282.69c4.33-.19,12,.94,9.17,6.44-2,3.85-10.8,8.47-14.28,11.17l-14.58,11.36-29.19,22.7a6.24,6.24,0,0,1-2.37,1.34c-2.3.53-4.18-1.95-4-4.28s1.67-4.44,3.17-6.33a176.08,176.08,0,0,1,27.81-28.18C865.05,291.45,873.75,283.09,882.6,282.69Z"/><path class="cls-2" d="M1010.26,314a16.78,16.78,0,1,1-16.78,16.79A16.79,16.79,0,0,1,1010.26,314Z"/><path class="cls-2" d="M882.81,346.77A16.78,16.78,0,1,1,866,363.55,16.77,16.77,0,0,1,882.81,346.77Z"/><path class="cls-3" d="M1157.77,283.51c4.32-14.59,17.16-26.66,32.24-29.53,18-3.43,37.56,6.21,46.23,22.35.35.65.68,1.3,1,2,7.46,15.86,4.59,36-6.86,49.39a45.27,45.27,0,0,1-6,5.8c-1.19,5-2.34,10.08-3.37,15.16-5.63,27.65-8.27,56.7-.55,83.86,7.57,26.69,24,46.45,44.92,62.46-12,51.49-52.48,95.87-103.18,111.49-48.58,15-104.27,2.81-143.09-29.75a63.5,63.5,0,0,0,10.42-23.29c-23.81.39-48-6.09-69.73-16.19-89.17-41.29-124.61-132.06-146.54-221.78-5-20.27-8.74-41.07-10.12-61.93,15.42,8.53,33.82,11.18,51.45,9.62,19-1.7,41.75-9.83,59.43-17.46a150.16,150.16,0,0,0,44.38-1.11,182.93,182.93,0,0,0,69.42-27.06,99.29,99.29,0,0,0,39.82,7c.47,1.12.94,2.21,1.43,3.32,7.88,17.68,19.35,34.21,35.3,45.2C1119.76,283.66,1139.76,288.53,1157.77,283.51Zm-120.61-24.74c2-1.33,1.39-4.29-.63-5.67s-4.8-1.61-7.41-1.73a213.85,213.85,0,0,0-42.78,2.31c-9.26,1.43-22.28,2.46-28.91,8.65-3.25,3-7.8,9.35-1.3,10.8,4.55,1,14.61-2.49,19.29-3.3l19.65-3.39,39.29-6.79A7.66,7.66,0,0,0,1037.16,258.77Zm-10.11,72a16.79,16.79,0,1,0-16.79,16.77A16.79,16.79,0,0,0,1027.05,330.76ZM899.58,363.55a16.78,16.78,0,1,0-16.77,16.77A16.77,16.77,0,0,0,899.58,363.55Zm-7.81-74.42c2.84-5.5-4.84-6.63-9.17-6.44-8.85.4-17.55,8.76-24.3,14.22a176.08,176.08,0,0,0-27.81,28.18c-1.5,1.89-3,4-3.17,6.33s1.73,4.81,4,4.28a6.24,6.24,0,0,0,2.37-1.34l29.19-22.7,14.58-11.36C881,297.6,889.8,293,891.77,289.13Z"/><circle class="cls-7" cx="1068.38" cy="367.8" r="28.89"/><circle class="cls-7" cx="590.51" cy="723.63" r="28.89" transform="translate(-338.73 629.5) rotate(-45)"/><circle class="cls-7" cx="883" cy="419.18" r="28.89" transform="translate(-37.78 747.15) rotate(-45)"/><circle class="cls-7" cx="320.64" cy="728.46" r="28.89" transform="translate(-374.93 341.62) rotate(-37.16)"/><path class="cls-8" d="M1019.06,576.7c82.67-4.21,128.69-72.93,149.07-172-26.26,78.8-58.85,148.35-138.65,148.73Z"/><path class="cls-8" d="M151.64,1338.5l10.62,19.23,13.29-7C165.25,1343,154.68,1334.8,151.64,1338.5Z"/><path class="cls-8" d="M190.82,1370.75c-3.39-7.41-20.1-17.14-20.1-17.14l4.83-2.88L208,1363.29Z"/><path class="cls-8" d="M196.32,1369.1c22.68,12.69,52.72,3.39,82.93-6.45-28.23,6.72-52.86,8.2-71.27.64Z"/><path class="cls-8" d="M77.17,665.15c-8.18,17.17-11.35,42.27-3,54.94l3.86-11.47Z"/><path class="cls-8" d="M48.64,684.79c-10.15,22-7.58,40.76,2.79,57.5l4.43-16C47.27,718.07,45.87,703.32,48.64,684.79Z"/><path class="cls-2" d="M555.92,1004.65h1.61l2.12,2.23v1.39c-.23.44-.46.92-.73,1.44l-1.15.47a7.83,7.83,0,0,1-2.4.26l-1.46-1.46v-2.84C554.28,1005.27,555.35,1005.37,555.92,1004.65Z"/><path class="cls-2" d="M546.7,1049.15h1.5l1.55.73c0,.13.1.39.19.74l.51.54v1.71c-.2.2-.39.41-.59.62v.56l-1.63.83h-1.47c-.49-.67-1.66-.37-2-2v-2.37C544.93,1049.63,546.25,1049.9,546.7,1049.15Z"/><path class="cls-2" d="M495.57,1069v1.47l-2.26,2.25h-1.39l-1.55-.83c.21-.59-.34-.81-.57-1.18v-2.28l1.43-1.43h2.83C495,1067.37,494.83,1068.46,495.57,1069Z"/><path class="cls-2" d="M447.52,1099.38h-1.1l-1.49-.76c-.19-.35-.43-.82-.76-1.46V1095l1.5-1.39h2.79c.91.33.73,1.56,1.48,2V1097Z"/><path class="cls-2" d="M526.2,1052.78v-1.65l2.06-2H530a1.66,1.66,0,0,0,1.16.65c.32.06.56.5.84.78v2.92l-1.48,1.41h-2.3Z"/><path class="cls-2" d="M343.66,1121.62l1.44-1.44h2.4c.2.23.47.5.71.8a7.9,7.9,0,0,1,.64.88c.19.31.34.64.58,1.1v.92l-2,2.06H345.1l-1.44-1.43Z"/><path class="cls-2" d="M381.5,1108.05c-.85-.41-.77-1.48-1.44-2v-1.76l2.09-2h1.6l2.07,2v2.34l-1.44,1.44Z"/><path class="cls-2" d="M446.2,1075.7h1.7l.63.58h.56c.24.48.48,1,.83,1.63v1.48a3,3,0,0,0-.72,1.37l-1.58.66h-2c-.85-.47-.76-1.51-1.41-2V1078l.74-1.55.73-.19Z"/><path class="cls-2" d="M484.83,1081.44h-2.1l-1.47-.74a3.42,3.42,0,0,0-.39-.91,1.52,1.52,0,0,1-.08-1.77,7.09,7.09,0,0,1,1.8-2.32h1.5c.71.52,1.76.54,2.24,1.62v2.73Z"/><path class="cls-2" d="M499.06,1079.6v-1.66l.7-1.47,1.5-.77h1.55l2,2.09v1.63c-.18.36-.77.56-.55,1.17l-1.64.84h-2.26Z"/><path class="cls-2" d="M547.84,1072.81h-1.13l-.62-.58h-.56c-.25-.48-.49-1-.83-1.64v-2.2l1.62-1.3H549l.83.8v.58l.57.6v1.72l-1.43,1.43h-.55Z"/><path class="cls-2" d="M559.69,1026.32l-2.06,2H556c-.36-.22-.59-.77-1.18-.56l-.84-1.64v-2.24l1.69-1.26h2.09a1.61,1.61,0,0,0,.4.38,5.35,5.35,0,0,0,.85.23l.19.81.52.55Z"/><path class="cls-2" d="M535.43,1026v-1.19l.74-1.43,1.42-.81h2.17l1.45,1.44a6.37,6.37,0,0,0,0,1.38c.17.74-.46,1.16-.57,1.76-.06.31-.16.62-.42.59-.71-.09-1,.92-1.77.62a1.64,1.64,0,0,0-.69,0Z"/><path class="cls-2" d="M436.37,1108.05l-1.44-1.44v-2.34l2.1-2h1.59l2.07,2v1.78a1.75,1.75,0,0,0-.65,1.17c-.09.32-.51.56-.78.83Z"/><path class="cls-2" d="M430,1093.6l1.43,1.43v2.84c-.42.9-1.48.92-2.15,1.51h-1.43c-.15-.1-.29-.2-.45-.29-.85-.5-1.08-1.45-1.57-2.2-.21-.33-.07-.88-.09-1.33.67-.22.29-1.06.87-1.25l1.22-.71Z"/><path class="cls-2" d="M545.52,1031.78c.64.22.85-.35,1.25-.57a4.94,4.94,0,0,1,3.68,2V1035c-.67.53-.58,1.58-1.45,2h-3l-1.32-1.68v-1.92C544.93,1033,545.17,1032.48,545.52,1031.78Z"/><path class="cls-2" d="M527.62,1067h3l1.35,1.57v2l-.71,1.42c-.74.12-1.34,1-2.19.71a4.25,4.25,0,0,1-2.25-1.42c.33-.76-.88-1-.61-1.77A9.66,9.66,0,0,1,527.62,1067Z"/><path class="cls-2" d="M527.67,1037c-.87-.39-.8-1.42-1.41-2a.86.86,0,0,1,0-.8c.44-.85.55-1.93,1.57-2.4.24-.11.49-.19.73-.3.76-.38.91-.38,1.75,0,.31.16.65.27,1,.43a4,4,0,0,0,.14.74c.07.17.26.28.46.48v2.39l-1.37,1.43Z"/><path class="cls-2" d="M373.85,1117.41a6.75,6.75,0,0,0-1.34-.68c-.54-.11-.7-.59-1.08-.84.24-.74-.72-1-.66-1.74s.64-1.27.83-2c.06-.24.38-.41.62-.64h3l1.27,1.69v2.67l-.79.79h-1.14Z"/><path class="cls-2" d="M493.43,1054.9H492l-1.45-.75c-.18-.34-.42-.81-.75-1.46v-1.51c.2-.37.84-.55.51-1.15l1.69-.87h1.4l1.42.72.74,1.48v1.31l-.74,1.42Z"/><path class="cls-2" d="M513.32,1050.53l.75,1.45c-.23.45-.46.93-.88,1.77l-1.19,1.14h-2.32l-1.37-1.52v-2.86l1.56-1.35h2.26c.26.32.61.77,1,1.22Z"/><path class="cls-2" d="M330.14,1120.92l.81,1.4v1.42c-.29.55-.49,1-.75,1.45l-1.46.75h-1.51c-.37-.19-.54-.84-1.15-.51l-.87-1.69v-1.52a2.44,2.44,0,0,0,.47-.55,2.92,2.92,0,0,0,.18-.72l1.55-.77h1.3Z"/><path class="cls-2" d="M390.75,1116.72l-1.45-1.45v-2.34l1.5-1.4h2.87l1.37,1.52v2.28l-1.54,1.32-1.27.64c-.1,0-.22,0-.29,0C391.57,1117,391.32,1116.52,390.75,1116.72Z"/><path class="cls-2" d="M419,1102.27h1.15c.4.82,1.71.36,2,1.39v3l-1.63,1.3h-2.15a2,2,0,0,0-.43-.41,5.5,5.5,0,0,0-.86-.23l-.15-.79-.52-.55v-1.16c.71-.29.46-1.14,1-1.61S418.73,1102.94,419,1102.27Z"/><path class="cls-2" d="M365.43,1126h-1.65c-1.19-.54-1.54-1.76-2.21-2.72a5.5,5.5,0,0,1,2.06-3H366l1.25,1.69v2.73Z"/><path class="cls-2" d="M404.31,1105.09v.89c-.24.37-.78.6-.57,1.19l-1.64.84h-2.24l-1.26-1.69v-2.69c.37-.81,1.42-.72,2-1.34.12-.14.54,0,.83,0,.58,0,.8.81,1.46.59.28.36.59.7.84,1.08A10.61,10.61,0,0,1,404.31,1105.09Z"/><path class="cls-2" d="M484.89,1063.57h-2.82c-.9-.37-.82-1.41-1.43-2a.86.86,0,0,1-.07-.8c.49-.89.53-2.08,1.83-2.45.75-.22,1.34-1,2.22-.26a5.61,5.61,0,0,0,1.13.62c-.15.78,1,1.16.61,2.06a3.87,3.87,0,0,0,0,1.36Z"/><path class="cls-2" d="M335.87,1129.4c.64.23.83-.4,1.31-.59l1.7.74,1.25,1.25v2.43l-1.31,1.32h-3.11c-.2-.31-.58-.87-.95-1.42-.55-.63-.18-1.48-.38-2.23Z"/><path class="cls-2" d="M540.4,1058.47c.28.6.43.92.57,1.24.4.77.11,1.62.27,2.38l-1.48,1.48h-2.82c-.9-.37-.81-1.41-1.43-2a.89.89,0,0,1-.06-.8c.41-.86.55-1.93,1.55-2.41a11,11,0,0,1,1.47-.58c.63-.21,1,.38,1.47.57A2.78,2.78,0,0,0,540.4,1058.47Z"/><path class="cls-2" d="M472.14,1067.8l1.33-.77h2.18l1.42,1.43v2.86a4.13,4.13,0,0,1-2.44,1.47c-.79.3-1.32-.49-2-.73-.86-.34-1.06-1.42-1.32-2.25S472,1068.39,472.14,1067.8Z"/><path class="cls-2" d="M500.48,1063.57l-1.43-1.44v-2.39c.43-.41.84-1.09,1.42-1.27a8.67,8.67,0,0,0,1.19-.66c.86-.06,1,.88,1.75.59.48.47,1,.93,1.4,1.34v1.82c-.68.54-.6,1.6-1.44,2Z"/><path class="cls-2" d="M558.23,1058.36l1.45,1.45v1.72c-.66.52-.55,1.6-1.44,2h-2.93l-1.37-1.52v-2.28l1.61-1.35,1.19-.61c.11,0,.23,0,.3,0C557.41,1058.05,557.66,1058.56,558.23,1058.36Z"/><path class="cls-2" d="M411.61,1099.37h-1.82c-.54-.67-1.61-.59-2-1.44v-2.88l1.44-1.44h2.4a13.29,13.29,0,0,1,1.11,1.21,8.32,8.32,0,0,1,.63,1.18c.26.48.26.5,0,1a8.32,8.32,0,0,1-.63,1.18A14.57,14.57,0,0,1,411.61,1099.37Z"/><path class="cls-2" d="M355.81,1117.44a2.37,2.37,0,0,0-2-.72l-.91-1.74v-2l1.44-1.46h2.83c.9.37.84,1.4,1.42,2a1.11,1.11,0,0,1,.06,1.06c-.67.77-.62,2.21-2.08,2.26C356.36,1116.83,356.16,1117.15,355.81,1117.44Z"/><path class="cls-2" d="M466.32,1081.47H464l-1.29-2v-2.4c.52-.77,1.49-.78,2.06-1.4h1.44c1.19.53,1.54,1.76,2.22,2.72A5.51,5.51,0,0,1,466.32,1081.47Z"/><path class="cls-2" d="M439.27,1084.94l1.41,1.47v2.37l-1.69,1.31h-2.75l-1-1.41-.16.16c-.05-.08-.14-.15-.14-.23,0-.75,0-1.51,0-2.2l1.47-1.47Z"/><path class="cls-2" d="M576.73,1040.46l.83.84v3.49l-.72.78-1.33.16-.47.46-.62-.49h-1.08l-.88-.82v-3.6l.8-.82Z"/><path class="cls-2" d="M559.69,1043.64c-.73.38-.49,1.43-1.23,1.8-.55.28-1.12.54-1.66.8a5.89,5.89,0,0,1-2.87-2.07V1042l1.4-1.48h2.91c.86.42.79,1.48,1.45,2Z"/><path class="cls-2" d="M467.85,1095.05c-.21.59.34.82.58,1.2a3.7,3.7,0,0,1-1.76,2.55c-.65.31-1.29.94-2,.5a5.61,5.61,0,0,0-1.2-.6c-.25-.09-.42-.39-.64-.61-.3-.51-.11-1.09-.14-1.65s0-1,0-1.33l1.42-1.5h2.34Z"/><path class="cls-2" d="M539.76,1040.46l1.44,1.44v2.39l-1.4,1.34c-.7-.29-.89.65-1.57.61a12.23,12.23,0,0,1-1.11-.59c-.39-.24-.73-.56-1.1-.84.23-.66-.63-.89-.59-1.48,0-.29-.11-.7,0-.84.62-.58.56-1.62,1.41-2Z"/><path class="cls-2" d="M572.4,1008.64v-2.55l1.43-1.43h2.37l1.36,1.54v2.9l-1.68,1.26h-2.09Z"/><path class="cls-2" d="M522.72,1077.34v2.79l-1.54,1,.24.3h-2.48l-1.42-1.36v-2.91l1.45-1.41h2.38Z"/><path class="cls-2" d="M564.6,1049.13h2.33l1.4,1.48v2.94l-1.74,1.3h-2l-1.25-1.24c0-.08-.14-.15-.14-.22,0-1,0-1.9,0-2.82Z"/><path class="cls-2" d="M495.57,1086.38v2.33l-1.47,1.4h-2.94l-1.31-1.61v-2.17l1.24-1.24c.08,0,.15-.14.23-.14h2.81Z"/><path class="cls-2" d="M454.92,1085h2.75c.88.28.83,1.31,1.37,1.92a1.53,1.53,0,0,1,0,1.31,13.87,13.87,0,0,1-1.15,1.87h-3.69c-.23-.44-.47-.91-.8-1.57v-2.15Z"/><path class="cls-2" d="M567.49,1013.89l.84.85v3.48l-.78.82H564l-.71-.64a5,5,0,0,1-.15-2c0-.57,0-1.14,0-1.66l.86-.87Z"/><path class="cls-2" d="M517.52,1041.9l1.46-1.42h2.87c.22.22.5.48.82.78v3.58c-.6.8-1.58.9-2.31,1.4-.67-.26-1.2-.91-1.91-.55l-.93-.89Z"/><path class="cls-2" d="M512,1067l1.43,1.44v.55l.57.63-.49.49c0,.37-.08.82-.12,1.27-.33.81-1.27.71-1.81,1.22a1.1,1.1,0,0,1-1.32.11c-.63-.55-1.64-.53-2-1.41v-2.86c.49-.48,1-1,1.43-1.44Z"/><path class="cls-2" d="M522.72,1059.24v3.45l-1.62.83h-2.26l-1.25-1.7v-2.66c.32-.77,1.25-.68,1.78-1.19a1.13,1.13,0,0,1,1.32-.12C521.32,1058.4,522.31,1058.39,522.72,1059.24Z"/><path class="cls-2" d="M572.43,1062v-2.72c.27-.87,1.29-.83,1.9-1.36a1.56,1.56,0,0,1,1.31,0,11.68,11.68,0,0,1,1.74,1.07,3.31,3.31,0,0,1,.21,1.75c0,.48,0,1,0,1.4l-1.44,1.44H573.8Z"/><path class="cls-2" d="M453.42,1071.36v-2.95a8.24,8.24,0,0,0,2.06-.91c.83-.66,1.44-.73,2.2,0,.21.21.63.21.94.3v1.23l.64.71c-.21.46-.43.94-.66,1.41a1.64,1.64,0,0,1-.27.46c-.18.21-.45.61-.59.57-.69-.19-.88.67-1.48.61-.28,0-.69.11-.83,0C454.86,1072.16,453.83,1072.22,453.42,1071.36Z"/><path class="cls-2" d="M472.8,1090.14c-.88-.38-.83-1.4-1.41-2-.19-.2-.15-.75-.05-1.09s.6-.63.6-1.2c0-.27.46-.55.75-.86h3.08l1,1.41.16-.16c.05.07.14.15.14.23,0,.75,0,1.51,0,2.2l-1.47,1.47Z"/><path class="cls-2" d="M568.35,1035.56,566.9,1037h-2.35c-.37-.42-.8-.92-1.35-1.57v-2.75c.22-.8,1.24-.77,1.86-1.26a1.36,1.36,0,0,1,1.29-.09c.61.58,1.67.46,2,1.71Z"/><path class="cls-2" d="M575.72,992.5h-1.87l-1.45-1.42v-2.84c.38-.89,1.4-.84,2-1.42a1.13,1.13,0,0,1,1.07-.05c.62.56,1.56.58,2.08,1.4v3Z"/><path class="cls-2" d="M411,1116.66h-2.44l-.66-.66c-.05-.07-.15-.15-.15-.22,0-1,0-1.9,0-2.82l1.46-1.45h2.83c.88.39.86,1.39,1.41,2a1.31,1.31,0,0,1-.11,1.28c-.37.38-.28.87-.53,1.2C412.24,1116.32,411.42,1115.83,411,1116.66Z"/><path class="cls-2" d="M572.4,1024l1.45-1.41h2.38l1.32,1.66v2.67c-.52.82-1.47.84-2.08,1.39a1.1,1.1,0,0,1-1.07,0c-.6-.59-1.62-.53-2-1.42Z"/><path class="cls-2" d="M549,1019.08h-2.92l-1.37-1.53v-2.32l1.82-1.28h2.52c.82.33.7,1.27,1.22,1.8a1.1,1.1,0,0,1,.12,1.3C549.84,1017.68,549.86,1018.67,549,1019.08Z"/><path class="cls-2" d="M563.16,1000.44c0-1.08,0-1.94,0-2.79a1.23,1.23,0,0,1,0-.2l1.46-1.46h2.26l1.43,1.43v2.82c-.32.9-1.34.86-2,1.4a1.57,1.57,0,0,1-1.31,0A14.39,14.39,0,0,1,563.16,1000.44Z"/><path class="cls-2" d="M422.22,1088.69l-1.43,1.43h-2.85c-.89-.43-1.06-1.41-1.47-2.18s.65-1.44.68-2.26l1.62-.67h2l1.44,1.36Z"/><path class="cls-2" d="M502,1046.29a6.34,6.34,0,0,1-2.94-2.12v-1.71c.44-.36.73-.79,1.39-.9.46-.08.83-.72,1.2-1.07h1.71c.93.41.76,1.52,1.45,2v1.71l-1,1Z"/><path class="cls-2" d="M380.06,1123.89v-1.49c.29-.58.49-1,.73-1.47l1.47-.75h1.42l1.4.8.68,1.33v1.7c-.59.46-1.35-.08-1.86.63-.35.48-1.27-.12-1.77.6-.16.24-.85.11-1.25.15C380.58,1124.81,380.55,1124.22,380.06,1123.89Z"/><path class="cls-2" d="M340.19,1115.21a5.46,5.46,0,0,1-3.06,2.07l-.75-.57h-.53l-1.41-1.45v-1.14l.81-.86H337l.51-.51c.82,0,1.65,0,2.48,0,.07,0,.19.31.19.47C340.21,1113.91,340.19,1114.57,340.19,1115.21Z"/><path class="cls-2" d="M353.16,1133.47c-.15-.21-.25-.28-.25-.36,0-.76,0-1.52,0-2.21a4.62,4.62,0,0,0,.57-.7,3,3,0,0,1,2.3-1.38c.58,0,.8.8,1.48.64.15,0,.41.36.6.58a2.34,2.34,0,0,1,.25.47c.23.47.45.94.64,1.35-.46.84-1.34.09-1.81.73s-1.54-.06-1.94.81A17,17,0,0,1,353.16,1133.47Z"/><path class="cls-2" d="M389.94,1098.51c-.2-.48-.45-1-.68-1.59.15-.17.24-.37.38-.41.43-.13.87.06,1.35-.22a4.71,4.71,0,0,1,2.71-1c.12,0,.27-.24.58-.56.24.36.47.73.77,1.2v1.27c-.29.59-.48,1-.72,1.47l-1.48.75h-1.42Z"/><path class="cls-2" d="M566.92,1069.92l-.62.59h-1.69l-.63.57-.69-.06a11.19,11.19,0,0,1-.15-2.57l1.59-1.38H567l1.28,1.64v1C567.86,1070.12,567.36,1069.82,566.92,1069.92Z"/><path class="cls-2" d="M329.51,1138.08c.47.66,1.41,1,1.49,2.07a5.45,5.45,0,0,0-1.75.56c-.62.48-1.58-.1-2,.77-.64.14-1.28,0-2,.09a5.3,5.3,0,0,1-.09-.94,1.2,1.2,0,0,1,.24-.75c.57-.5.27-1.56,1.2-1.8Z"/><path class="cls-2" d="M367.34,1106.6,365.9,1108h-2.29c-.43-.28-.65-1-1.41-.49V1106c.49-.38,1.29,0,1.31-.79h1.61c.63-.33,1.22-.86,2-.49C367.54,1105.28,367.26,1106,367.34,1106.6Z"/><path class="cls-2" d="M540.3,1078h-1.7l-.54.55-1.21,0c-.33.33-.6.76-1.19.5-.43-.37-.14-.88-.24-1.37l2.17-2h1.54l2,1.23C541,1077.51,540.59,1077.7,540.3,1078Z"/><path class="cls-2" d="M513.26,1035.77,512,1037h-2.35c-.22-.25-.47-.54-.8-.9.66-.52,1.06-1.43,2.11-1.52.54-.81,1.49-1,2.22-1.58l.9.9C513.89,1034.4,513.64,1035,513.26,1035.77Z"/><path class="cls-2" d="M512.9,1085.23v.57c-.41.67-1.28,0-1.74.58s-1.26,0-1.85.29l-.81.52c-.4-.45-.13-.94-.22-1.39l.78-.77h3.64C512.77,1085,512.84,1085.16,512.9,1085.23Z"/><path class="cls-2" d="M467.85,1061.26v1.46l-.85.79h-3c-.26-.54.26-.67.47-.84A13.14,13.14,0,0,1,467.85,1061.26Z"/><path class="cls-2" d="M430,1081.47h-2.29c-.07,0-.14-.12-.22-.2.06-.78,1.05,0,1.25-.79.1-.32.8-.21,1.17-.59a4.41,4.41,0,0,1,1.43-.64c0,.27.08.54.12.77Z"/><path class="cls-2" d="M320.67,1133.87c.08.08,0,0-.05-.06,0-1.21,0-2.42,0-3.7l.77-.14c.1.1.23.16.23.23,0,.94,0,1.87,0,3.1Z"/><path class="cls-2" d="M481.32,1095.52c-.09-.48-.15-.8-.2-1.09.58-.3,1.17-.32,1.49-.83h2.46c0,.83-.5.44-.75.58l-.6.58H482Z"/><path class="cls-2" d="M521,1027.76c0-.57.57-.72.83-1.15l.78.08c0,.57-.51.72-.75,1.07Z"/><path class="cls-2" d="M455.14,1102.85c-.34.59-.34.59-1.11.33C454.25,1102.57,454.77,1103,455.14,1102.85Z"/><path class="cls-2" d="M455.14,1102.85c.34-.59.34-.59,1.11-.34C456,1103.13,455.51,1102.74,455.14,1102.85Z"/><path class="cls-2" d="M521.15,1027.69l-.5.59C520.26,1027.78,520.7,1027.82,521.15,1027.69Z"/><path class="cls-2" d="M467.69,1061.32l.5-.59C468.58,1061.24,468.13,1061.2,467.69,1061.32Z"/><path class="cls-2" d="M1487.7,951.54h2.79c.91.33.73,1.56,1.48,2v1.33l-2.42,2.42h-1.1l-1.49-.76-.76-1.46v-2.14Z"/><path class="cls-2" d="M1486.2,1024l1.42-1.43h2.85c.89.42.92,1.49,1.5,2.15V1026l-2.28,2.27h-1.37l-1.31-.68c-.33-.57-.55-.95-.81-1.42Z"/><path class="cls-2" d="M1477,1035.31v-2.06l2.39-2h1.38l2,2.18v2.17l-1.57,1.35h-2.83Z"/><path class="cls-2" d="M1473.49,1059.24v2.92l-1.54,1.38h-2.74c-.84-.28-.78-1.32-1.36-1.89a.94.94,0,0,1-.12-.78c.28-.94.55-2.06,1.49-2.44.69-.28,1.39-1,2.28-.59a15.51,15.51,0,0,1,1.58,1A2.57,2.57,0,0,1,1473.49,1059.24Z"/><path class="cls-2" d="M1479,1072.81l-2.07-2.07v-2.27l1.44-1.44h2.88c.85.41.77,1.48,1.44,2v1.75l-2.06,2Z"/><path class="cls-2" d="M1473.48,1024.43v2.45c-.42.87-1.48.78-2,1.45h-1.71a4.88,4.88,0,0,1-2.06-3.66c.21-.41.8-.62.58-1.23l1.64-.84h2.25Z"/><path class="cls-2" d="M1477,997.43l1.44-1.44h2.94c.26.33.57.67.82,1.06a10.84,10.84,0,0,1,.56,1.19v1.53l-2.11,2H1479l-2-2.06Z"/><path class="cls-2" d="M1464.23,1103.72v2.93l-1.57,1.35h-2l-1.43-.72a2.84,2.84,0,0,0-.73-1.33,4.35,4.35,0,0,1,.85-2.5c.35-.73,1.32-.54,1.82-1.15a1.08,1.08,0,0,1,1.07,0C1462.81,1102.89,1463.82,1102.85,1464.23,1103.72Z"/><path class="cls-2" d="M1462.81,1067l1.42,1.46v2.82c-.51.92-1.54,1.11-2.43,1.49s-1.31-.5-2-.74c-.86-.3-1-1.42-1.32-2.24s.63-1.42.82-2.2h.56l.62-.59Z"/><path class="cls-2" d="M1501.3,981c-.67,1.07-1.08,2.13-2.19,2.82h-2.32l-1.31-1.6v-2.81l1.82-1.28h1.84C1500.18,978.68,1500.62,979.83,1501.3,981Z"/><path class="cls-2" d="M1480.7,978.08l.62.59h.56l.83,1.63v1.51c-.14.35-.82.51-.5,1.13l-1.68.87h-1.43l-1.42-.72a2.8,2.8,0,0,0-.73-1.33c0-.48,0-1,0-1.43l.8-1.57.68-.17.55-.51Z"/><path class="cls-2" d="M1490.53,974.61c-.6-.21-.83.34-1.2.58a5.44,5.44,0,0,1-3.3-2.35c.27.41.17.33.17.26,0-.77,0-1.53,0-2.12l1.4-1.55h2.89l1.47,1.41v2.34Z"/><path class="cls-2" d="M1501.21,962.77v1.14l-.58.62v.56l-1.63.83h-2.2l-1.31-1.62v-2.69c.38-1,1.53-.71,2-1.44.44.1.87-.09,1.35.2a3.87,3.87,0,0,1,2,2A2.45,2.45,0,0,0,1501.21,962.77Z"/><path class="cls-2" d="M1490.53,1040.46l1.43,1.44v2.39l-1.4,1.34c-.69-.29-.88.65-1.48.61s-.78-.9-1.47-.61l-1.4-1.34v-2.39l1.43-1.44Z"/><path class="cls-2" d="M1486.2,988.82a6.36,6.36,0,0,1,2.89-2.07,5.52,5.52,0,0,1,2.87,2.12V991c-.51.54-1,1-1.41,1.48h-2.92l-1.43-1.43Z"/><path class="cls-2" d="M1488.34,933.61h1.42l1.45.74c.18.34.42.82.75,1.47v1.51c-.2.37-.84.54-.51,1.15l-1.69.86h-1.4l-1.42-.71-.74-1.49v-1.3c.29-.57.58-1.11.74-1.42Z"/><path class="cls-2" d="M1477,1051.16l.59-.62V1050l1.63-.83h1.51c.36.15.52.82,1.14.5l.86,1.68v1.42l-.71,1.43a2.85,2.85,0,0,0-1.34.72h-1.43l-1.57-.81-.16-.67-.52-.55Z"/><path class="cls-2" d="M1491.23,1009.61l-1.41.81h-1.41l-1.46-.75-.74-1.46v-1.5c.19-.37.84-.55.51-1.16l1.69-.86h1.4l1.42.71.74,1.48v1.31Z"/><path class="cls-2" d="M1501.21,1033.82V1035l-.58.62v.56l-1.63.83h-2.2l-1.31-1.62v-2.69c.38-1,1.53-.71,2-1.44.44.09.87-.09,1.35.19a3.87,3.87,0,0,1,2,2A2.16,2.16,0,0,0,1501.21,1033.82Z"/><path class="cls-2" d="M1471.47,1075.7c.42.82,1.71.42,2,1.43v2.92l-1.48,1.41h-2.4l-1.26-1.38c.24-.68-.61-.9-.63-1.47a6.46,6.46,0,0,1,2.08-2.91Z"/><path class="cls-2" d="M1451.39,1111.55h2.76c.86.49.82,1.48,1.4,2.08a1.11,1.11,0,0,1,0,1.06c-.5.39-.46,1-.76,1.43s-.94.51-1.39.79c-.23.14-.44.3-.71.49l-.91-.71h-1.1l-.83-1.62v-2.17Z"/><path class="cls-2" d="M1509.61,1009.26l-1.17,1.16h-2.34l-1.4-1.5v-2.78c.34-.88,1.43-.77,2-1.46h1.73a6.32,6.32,0,0,1,2.07,2.83C1510.24,1008,1510,1008.45,1509.61,1009.26Z"/><path class="cls-2" d="M1469.16,1040.47h2.93l1.36,1.56v2.09l-.87,1.55h-1.11l-.7.64c-.47-.21-.94-.42-1.42-.65a2.64,2.64,0,0,1-.46-.27c-.21-.19-.6-.45-.57-.59.19-.69-.67-.89-.61-1.48,0-.28-.1-.69,0-.83C1468.36,1041.91,1468.3,1040.89,1469.16,1040.47Z"/><path class="cls-2" d="M1504.68,991.08v-2.82c.37-.9,1.39-.84,2-1.42a1.09,1.09,0,0,1,1.06-.07c.76.68,2.22.6,2.26,2.08,0,.21.33.41.59.7l-.65,1-.13,1.17c-.36.15-.68.27-1,.42-.09,0-.14.13-.24.23-.4.25-.88.07-1.33.1s-.75,0-1.1,0Z"/><path class="cls-2" d="M1495.44,997.41,1497,996a9.4,9.4,0,0,1,1.83,0,9.91,9.91,0,0,1,1.76.74c0,.41.09.86.13,1.28l.55.65a4.75,4.75,0,0,1-1.32,2.32c-.42.3-1,.42-1.41.73a1.12,1.12,0,0,1-1.07,0c-.6-.59-1.62-.54-2-1.41Z"/><path class="cls-2" d="M1449.84,1097.92v-1.64a2.07,2.07,0,0,0,.54-1.77l.8-.85h2.28l1.54.81v1.13l.67.71a11,11,0,0,0-.65,1.38c-.26.78-1,1.08-1.45,1.69h-1.71C1451.37,1098.67,1450.24,1098.87,1449.84,1097.92Z"/><path class="cls-2" d="M1481.3,1013.89c.44.47.91.94,1.41,1.47v2.37l-1.69,1.32h-2.75c-.24-.35-.62-.88-1-1.42l-.16.16c0-.07-.14-.15-.14-.22,0-.76,0-1.52,0-2.21l1.47-1.47Z"/><path class="cls-2" d="M1496.88,1013.89h2.84c.89.38.86,1.39,1.41,2a1.33,1.33,0,0,1-.1,1.29c-.5.55-.32,1.53-1.28,1.85h-3.52l-.34-.81a2.44,2.44,0,0,1-.44-1.79,10.14,10.14,0,0,1,0-1.1Z"/><path class="cls-2" d="M1495.44,944.28l1.45-1.42h2.81c.89.33.85,1.34,1.4,2a1.54,1.54,0,0,1,0,1.31,14.09,14.09,0,0,1-1.14,1.86h-3.67l-.82-1.59Z"/><path class="cls-2" d="M1462.82,1084.94l1.41,1.47v2.37l-1.69,1.31h-2.64c-.85-.49-.83-1.47-1.4-2.08a1.08,1.08,0,0,1,0-1.06c.66-.56.44-1.69,1.82-2Z"/><path class="cls-2" d="M1459.63,1051.72V1050l.88-.82h2.41l1.27,1.67v2.61l-1.46,1.46h-2.24l-1.43-1.43v-1.15C1459.23,1052.13,1459.43,1051.93,1459.63,1051.72Z"/><path class="cls-2" d="M1500.64,929.26c-.4.85-1.41.81-2,1.39a1.08,1.08,0,0,1-1.07,0c-.6-.58-1.6-.53-2.08-1.4v-3c.35-.26.88-.65,1.72-1.25h2.06l.79.79v1.71c.2.2.39.41.59.62Z"/><path class="cls-2" d="M1482.73,964.51l-1.44,1.42h-2.91l-1-.9.71-1.23v-1.87l.83-1.64c.53-.28,1.19-.06,1.79-.1l2,2Z"/><path class="cls-2" d="M1468.36,1008.91l.48-.48v-2l.89-1.75h1.72c.52.68,1.6.55,2,1.45v3l-1.72,1.31h-2.11C1469.31,1010,1468.84,1009.45,1468.36,1008.91Z"/><path class="cls-2" d="M1492,917.82v1.45l-1.1,1.9c-.24.19-.31.29-.39.3h-2.84l-.84-.84v-1.16l.54-.6v-2.24l1.6-.93A5.5,5.5,0,0,1,1492,917.82Z"/><path class="cls-2" d="M1507.68,974.79l-.42.39c-.42-.74-1.15-.52-1.76-.62l-.82-.81v-2.9l1.46-1.41a20,20,0,0,1,2.55,0V972l.56.56v1.85C1508.82,974.86,1508.3,974.44,1507.68,974.79Z"/><path class="cls-2" d="M1486.2,1059.8l1.42-1.41c.7.32.87-.66,1.47-.6a6.27,6.27,0,0,1,2.28,1.42c-1,1.36-1.35,3.14-2.5,4.35h-1.24l-1.43-1.43Z"/><path class="cls-2" d="M1505.16,1027.37l-.45-.47v-3l1.7-1.27h2.09l.78.79c.45.78-1,1-.56,1.74-.66.32-.58,1.09-1,1.61s-.47,1.17-1,1.52Z"/><path class="cls-2" d="M1443.43,1122.51l.92-1.77c.9.31.9.31,2,2.34a6.79,6.79,0,0,1-2.07,2.87h-1.18a3.25,3.25,0,0,1-.21-.71c0-.27-.06-.68.09-.8C1443.74,1123.85,1443.36,1123.05,1443.43,1122.51Z"/><path class="cls-2" d="M1469.45,1097.33v.65l-.64.27c-.82-.25-.45-1.23-1.09-1.51v-.91l.73-1.46,1.48-.76c.44,0,1.08,0,1.94,0C1470.88,1095,1470.66,1096.45,1469.45,1097.33Z"/><path class="cls-2" d="M1443.33,1138.08c.07.38.09.56.14.85-.28.28-.63.59-.93.94s-.26,1.06-.8,1.4a5.39,5.39,0,0,0-.91.88c-.17-.24-.26-.31-.26-.39,0-.75,0-1.51,0-2.21.52-.52,1-1,1.44-1.47Z"/><path class="cls-2" d="M1433.86,1152.57c-.65-1.25.18-2,.52-2.74s.79-1.57,1.17-2.44l.73,0c.09.2.18.36.24.52.29.82-.71,1.27-.58,2.05C1435,1150.55,1434.83,1151.82,1433.86,1152.57Z"/><path class="cls-2" d="M1497.17,910.22c0,.76,0,1.53,0,2.3,0,.07-.13.13-.3.3-.38-.5-.76-1-1.37-1.82v-2.69l.82-.71c.53.65.18,1.34.29,2Z"/><path class="cls-2" d="M1453.43,1081.5c-.13-1.27-.13-1.27.41-2.09V1077l.85-.17.91,1.72-.9,1.8Z"/><path class="cls-2" d="M1492,899.81v2.31l-1.43,1.43c-.5-.42-.44-1,.31-2.08v-2.39C1491.47,899.08,1491.63,899.58,1492,899.81Z"/><path class="cls-2" d="M1464,1032.45s.16.1.16.17c0,1,0,1.91,0,3l-1.43,1.16c-.34-.44-.34-.44.26-1.21v-2.43Z"/><path class="cls-2" d="M1481.58,947.52v-2.66l.82-.8c.1.1.31.2.32.31,0,.76,0,1.52,0,2.25C1482.31,946.92,1482.11,947.42,1481.58,947.52Z"/><path class="cls-2" d="M1505,953.82l.84.88V957l-1.06-1a6.28,6.28,0,0,1-.08-2.13c0-.35-.19-.75.19-1.08C1505.79,953,1504.81,953.75,1505,953.82Z"/><path class="cls-2" d="M1472.33,989.34l.76-.75s.13,0,.2,0,.19.13.19.2c0,.75,0,1.5,0,2.08l-.79,1.17c-.23-.23-.36-.3-.36-.37C1472.33,990.9,1472.33,990.15,1472.33,989.34Z"/><path class="cls-2" d="M1514.21,1000.61c-.25-.91-1.22-1.61-.72-2.79l.7-.12C1514.63,998.14,1514.63,998.84,1514.21,1000.61Z"/><path class="cls-2" d="M1481.74,947.4l-.51.59C1480.84,947.49,1481.29,947.53,1481.74,947.4Z"/><path class="cls-7" d="M1365,196.73c.69-.51.55-1.6,1.46-2h3l1.31,1.63v2.16c-.15.15-.34.26-.41.42a5.5,5.5,0,0,0-.23.86l-.79.15-.56.53H1367l-2-2Z"/><path class="cls-7" d="M1343.59,207.1c-.19.21-.39.41-.59.62v.56l-1.62.83h-2.2l-1.31-1.6v-2.73c.42-.91,1.52-.72,2-1.42h1.65l2.06,2Z"/><path class="cls-7" d="M1266.61,221.26h2.18l1.43,1.43v2.82c-.32.9-1.4.78-2,1.48h-1.54l-2.21-2.23v-1.38c.24-.45.52-1,.69-1.3Z"/><path class="cls-7" d="M1288.72,225l-2,2h-1.6l-1.67-1a5.44,5.44,0,0,1-.46-.45v-3l1.66-1.28h2.13c.13.13.24.32.41.39a5.35,5.35,0,0,0,.85.23c0,.22.11.48.18.81l.52.55Z"/><path class="cls-7" d="M1337.82,225.76V222.7l1.42-1.42h2.29c.36.17.56.76,1.17.55l.84,1.63v1.29l-2.23,2.23h-1.39Z"/><path class="cls-7" d="M1380,225l-.58.62v.56l-1.63.83h-1.51c-.36-.15-.52-.82-1.14-.49-.26-.52-.51-1-.87-1.69v-1.42L1375,222l.58-.24c.61-.39.69-.47.76-.47.76,0,1.51,0,2.19,0l1.48,1.43Z"/><path class="cls-7" d="M1255.22,249.85l2-2h1.7l.61.57h.57l.83.85v3l-1.67,1.27h-2.11c-.13-.12-.24-.31-.4-.38a5.82,5.82,0,0,0-.86-.23c-.05-.22-.11-.48-.18-.81l-.52-.55Z"/><path class="cls-7" d="M1279.48,250v1.34l-.77,1.53-1.56.65h-2c-.51-.51-1-1-1.46-1.46v-2.87c.34-.26.69-.56,1.07-.81s.64-.3,1.18-.56h1.51Z"/><path class="cls-7" d="M1328.57,249.3a4.44,4.44,0,0,1,2.37-1.44h1.39l2,2.19v1.49s0,.11-.07.15a1.26,1.26,0,0,0-.51,1.14l-1.71.71h-2l-1.41-1.37Z"/><path class="cls-7" d="M1370,248.64l.71,1.41v2.21l-1.79,1.29h-1.81l-1.48-.75a1.94,1.94,0,0,0-.11-.64,2.79,2.79,0,0,0-.54-.59v-1.51c.29-.59.48-1,.72-1.47l1.48-.75h1.41Z"/><path class="cls-7" d="M1365.94,266.21l.45-.44h3l1.27,1.67v2.11a1.84,1.84,0,0,0-.39.4,5.5,5.5,0,0,0-.23.86l-.8.18-.56.52H1367l-2-2v-1.59Z"/><path class="cls-7" d="M1424.8,270.77l-1.4.71h-1.55l-2-2.3v-1.35l1.21-2h3.15l1.38,1.37v2.17Z"/><path class="cls-7" d="M1374.22,278.1v-1.61l2-2.08h1.57l1.44.75c.17.32.41.8.75,1.46v2.17l-1.58,1.34h-2.73C1374.76,279.88,1374.93,278.64,1374.22,278.1Z"/><path class="cls-7" d="M1270.23,293.73v2.91c-.4.83-1.45.74-2,1.42h-1.76l-2-2.15v-1.43l.74-1.47,1.56-.64h2Z"/><path class="cls-7" d="M1285,298.08c-.52-.66-1.58-.57-2-1.45v-2.95l1.6-1.32h2c.42.21.89.44,1.42.72a2.7,2.7,0,0,0,.72,1.29V296l-2,2.06Z"/><path class="cls-7" d="M1341.5,298.07h-1.61c-.51-.65-1.54-.56-2-1.42v-3l1.42-1-.17-.17c.08-.05.15-.14.23-.14h2l1.5.72.77,1.49v1.56Z"/><path class="cls-7" d="M1380,296.05l-.58.62v.56l-1.63.83h-1.51c-.36-.15-.52-.82-1.14-.5l-.87-1.68v-1.42L1375,293l.58-.24c.61-.39.69-.48.76-.48h2.19l1.48,1.43Z"/><path class="cls-7" d="M1279.48,178.8v1.71l-.58.62v.65a3.89,3.89,0,0,0-.74.21,5.4,5.4,0,0,0-.73.54H1275l-1.28-1.64v-2.72a4.82,4.82,0,0,0,.42-.43l1.67-1h1.61Z"/><path class="cls-7" d="M1259.35,182.56h-1.89l-1.52-.77a2.78,2.78,0,0,0-.71-1.31v-1.6l2-2.09H1259c.53.66,1.58.57,2,1.44v2.94Z"/><path class="cls-7" d="M1275.6,229.93h1a6.31,6.31,0,0,1,2.9,2.07v1.66l-.59.62v.56l-.83.83h-3l-1.3-1.62v-2.16c.15-.15.33-.26.4-.42a3.89,3.89,0,0,0,.21-.78C1274.72,230.24,1275.7,230.9,1275.6,229.93Z"/><path class="cls-7" d="M1414.35,244.94h-1.14c-.53-.74-1.91-.51-2-1.66,0-.59-.82-.81-.61-1.47.05-.17-.07-.49,0-.55.72-.51.38-1.71,1.35-2.06h3.09l1.26,1.71v2.69C1415.93,244.37,1414.87,244.28,1414.35,244.94Z"/><path class="cls-7" d="M1315.87,252.16l-1.45,1.45a6.28,6.28,0,0,0-1.37,0c-.74.17-1.16-.46-1.77-.57-.31-.06-.62-.16-.59-.42.09-.71-.91-1-.61-1.77a3.63,3.63,0,0,0,0-1l.89-.89c.34-.34.68-.67,1.07-1.07h1.69l1.32.68.81,1.42Z"/><path class="cls-7" d="M1314.33,306.72h-2.76c-.89-.35-.83-1.49-1.48-2.1v-1.73l1.58-.86c.2-.48.72-.62,1.09-1.06h.85l1.5.76.75,1.46v2.15Z"/><path class="cls-7" d="M1274.55,301.53c.64.22.85-.35,1.25-.57a4.92,4.92,0,0,1,3.67,2.05v1.72c-.66.53-.57,1.58-1.44,2h-3l-1.33-1.58v-2Z"/><path class="cls-7" d="M1319.33,295.74v-1.29a9.94,9.94,0,0,0,.57-.83,1.68,1.68,0,0,0,.15-.49l1.44-.82h2.17l1.45,1.44a6.28,6.28,0,0,0,0,1.37c.17.75-.47,1.17-.58,1.77-.06.31-.16.62-.42.59-.71-.09-1,.92-1.76.62a1.68,1.68,0,0,0-.7,0Z"/><path class="cls-7" d="M1438.32,267.18l1.45-1.44a10.5,10.5,0,0,1,1.94,0,8.59,8.59,0,0,1,1.69.72c0,.76.95,1.19.68,2a9.41,9.41,0,0,1-.89,1.9,6.61,6.61,0,0,1-1,1.08h-1.72l-1.78-1c-.2-.25-.31-.32-.31-.39C1438.32,269.08,1438.32,268.13,1438.32,267.18Z"/><path class="cls-7" d="M1383.45,270.07v-2.91l1.5-1.39h2.1l1.47.74a3.42,3.42,0,0,0,.39.91,1.48,1.48,0,0,1,.08,1.77,6.14,6.14,0,0,1-1.86,2.32h-1.43C1384.93,271.07,1384,270.87,1383.45,270.07Z"/><path class="cls-7" d="M1330,265.74h2.17l1.42.81.71,1.4v1.43l-2.17,2.07c-.54,0-1.37.34-2.07-.42-.21-.23-.94,0-.88-.42.1-.76-.89-1-.65-1.78a6.07,6.07,0,0,0,0-1.65Z"/><path class="cls-7" d="M1313.58,271.51h-1.19l-2.24-2.26v-1.37c.2-.41.44-.88.74-1.48l.7-.14.35-.35c.07-.06.15-.17.22-.17h2.26l1.44,1.43v2.28c-.2.37-.78.58-.56,1.18Z"/><path class="cls-7" d="M1278.73,266.55l.71,1.4v1.43l-2.17,2.07c-.53,0-1.37.34-2.07-.42-.21-.23-.93,0-.88-.42.11-.76-.88-1-.65-1.77a6.15,6.15,0,0,0,0-1.66l1.44-1.44h2.18Z"/><path class="cls-7" d="M1257.23,271.51l-2-2.06v-1.66c.23-.36.78-.58.57-1.18l1.64-.84h2.24c.26.36.66.89,1.26,1.69v2.1a1.57,1.57,0,0,0-.38.39,5.66,5.66,0,0,0-.23.85l-.81.2-.55.51Z"/><path class="cls-7" d="M1268.79,280.18h-2.17l-1.42-.81-.71-1.41v-1.43l2.17-2.07c.54,0,1.37-.33,2.07.43.21.22.94,0,.88.42-.1.75.89,1,.65,1.77a6.07,6.07,0,0,0,0,1.65Z"/><path class="cls-7" d="M1288.71,276.4V278c-.28.55-.48.94-.75,1.45l-1.46.74h-2.17l-1.34-1.57v-2c.22-.44.45-.91.72-1.43a2.82,2.82,0,0,0,1.31-.71h1.6Z"/><path class="cls-7" d="M1321.74,274.4h1.12l1.49.76c.18.36.43.83.76,1.46v2.15c-.46.4-.95.85-1.54,1.38h-2.06l-1.43-.72-.75-1.49v-1.11Z"/><path class="cls-7" d="M1340,274.41h1.62l1.42,1.42v.56c.2.2.39.41.59.62v1.13l-.58.62v.56l-1.63.83h-2.21l-1.3-1.63v-2.71a3.73,3.73,0,0,1,.42-.43Z"/><path class="cls-7" d="M1394.13,280.18l-1.42-1.43v-2.84c.42-.9,1.48-.92,2.15-1.51h1.42l.45.29c.85.5,1.09,1.45,1.58,2.2.21.33.07.88.09,1.33-.67.22-.29,1.06-.87,1.26l-1.22.7Z"/><path class="cls-7" d="M1434.86,278.15c-.67.52-.56,1.59-1.45,2h-2.81c-1-.35-.76-1.58-1.52-2v-1.38l2.31-2.3h1.35l1.44.74.16.67.52.56Z"/><path class="cls-7" d="M1394.13,209.13l-1.42-1.46v-2.81c.41-.89,1.48-.91,2.14-1.51h1.43l.45.29c.85.49,1.09,1.44,1.57,2.2.22.33.08.88.11,1.33-.67.22-.31,1.05-.81,1.38H1397l-.62.58Z"/><path class="cls-7" d="M1378,203.35l.62.59h.56l.83,1.63v2.2l-1.61,1.31h-2l-1.42-.72c-.18-.39-.24-1-.71-1.29V205.4l2-2.05Z"/><path class="cls-7" d="M1255.22,196.72l.59-.62v-.56l1.62-.83h2.2l1.31,1.59v2c-.21.42-.44.89-.72,1.43a2.68,2.68,0,0,0-1.29.71h-1.65l-2.06-2Z"/><path class="cls-7" d="M1320.14,208.39c-.32-.58-.54-1-.8-1.42v-1.6l2-2h1.71l.62.58h.57l.83,1.64v2.22l-1.64,1.28h-1.94Z"/><path class="cls-7" d="M1315.84,196.19v2.1l-.77,1.51a1.54,1.54,0,0,0-1.29.66h-1.27l-2.42-2.42v-1.1l.79-1.56a1.74,1.74,0,0,0,.6-.13,3.34,3.34,0,0,0,.65-.56h2.32Z"/><path class="cls-7" d="M1332.15,200.46h-1.34l-1.53-.76c-.15-.37-.32-.77-.65-1.56v-2c.5-.53.95-1,1.36-1.47h2.16l1.44.76.74,1.45v1.55Z"/><path class="cls-7" d="M1277.45,194.69l.62.59h.56l.82,1.62v1.54l-2.16,2h-1.54a2.77,2.77,0,0,0-.56-.47,2.85,2.85,0,0,0-.74-.18c-.19-.44-.36-.85-.69-1.65v-2l1.37-1.45Z"/><path class="cls-7" d="M1320.19,221.92l1.43-.63h2.15l1.28,1.66v2c-.23.45-.52,1-.8,1.55h-.57l-.62.58h-1.71l-2-2v-1.61C1319.6,223,1319.82,222.58,1320.19,221.92Z"/><path class="cls-7" d="M1383.45,196.12l1.47-1.41h2.25c.35.13.53.76,1.13.55a11.26,11.26,0,0,1,.9,1.58,1.47,1.47,0,0,1-.07,1.09,6,6,0,0,1-2,2.53h-1.42c-.76-.47-1.72-.62-2.24-1.45Z"/><path class="cls-7" d="M1266.81,203.35H1268l1.42.75.81,1.41v2.17l-1.44,1.45a6.28,6.28,0,0,0-1.37,0c-.75.17-1.17-.47-1.77-.58-.31-.06-.62-.16-.59-.42.09-.71-.92-1-.62-1.76a1.68,1.68,0,0,0,0-.7Z"/><path class="cls-7" d="M1283.79,203.91c.64.22.85-.35,1.21-.54h1.64l2.08,2v1.57c-.29.53-.49.92-.77,1.44l-1.45.74h-2.19l-1.32-1.68v-1.92C1283.21,205.08,1283.44,204.61,1283.79,203.91Z"/><path class="cls-7" d="M1447.56,275.86c.42-.82,1.42-.81,2-1.44h2a11.81,11.81,0,0,1,1.1,1.34,10.22,10.22,0,0,1,.71,1.62l-.57.86v1l-1.63.84H1449l-1.45-1.44Z"/><path class="cls-7" d="M1421.14,288.7l-1.25-1.25V285l1.93-1.26h2.49l1.24,1.76v1.91a7.29,7.29,0,0,1-2.68,2.07Z"/><path class="cls-7" d="M1389.23,180.48l-2,2.07h-2.33l-1.44-1.43v-2.89c.41-.85,1.47-.76,2-1.44h1.68a6.29,6.29,0,0,1,2.09,2.82Z"/><path class="cls-7" d="M1315.87,181.12l-1.46,1.44a6.11,6.11,0,0,0-1.35,0c-.74.16-1.17-.45-1.77-.58-.3-.06-.63-.15-.6-.41.1-.71-.92-1-.61-1.77a3.7,3.7,0,0,0,0-1l.89-.88c.33-.34.67-.68,1-1a1.59,1.59,0,0,1,1.78.31c.26.25.86.15,1.31.21.28.46.25,1.09.79,1.4Z"/><path class="cls-7" d="M1396.45,298.08h-1.64c-.39-.16-.61-.63-1.18-.62-.28,0-.57-.46-.89-.74v-3.1l1.94-1.25h1.49l2.25,2.26a1.12,1.12,0,0,1-.24,1.17c-.3.32-.38.82-.64,1.17A12.43,12.43,0,0,1,1396.45,298.08Z"/><path class="cls-7" d="M1383.45,303l.58-.62v-.57a5.4,5.4,0,0,0,1.17-.61,1,1,0,0,1,1-.21c.86.41,2,.52,2.37,1.57.14.36.4.62.5.93a2.06,2.06,0,0,1,0,1.32,14.09,14.09,0,0,1-1.14,1.86h-3.09l-1.41-1.37Z"/><path class="cls-7" d="M1330,306.75l-1.4-1.47V303c.12-.34.76-.52.55-1.12a10.09,10.09,0,0,1,1.34-.8,1.55,1.55,0,0,1,1.07-.1,10.21,10.21,0,0,1,1.84,1.06c.55.37.44,1.15.92,1.63a1.09,1.09,0,0,1,0,1.05c-.74.51-.4,1.72-2,2Z"/><path class="cls-7" d="M1422.82,229.89c1,.62,2.06,1,2.75,2.14v2.34l-1.81,1.28h-2.61l-1.25-1.7V232C1420.43,231,1421.56,230.52,1422.82,229.89Z"/><path class="cls-7" d="M1387.83,235.69h-2.94l-1.43-1.42V232c.2-.37.77-.58.54-1.25a3.7,3.7,0,0,0,.73-.25c.54-.33,1.17-.9,1.73-.53.77.52,2.07.46,2.19,1.78a1.8,1.8,0,0,1,0,2.66C1388.74,235,1388.22,235.18,1387.83,235.69Z"/><path class="cls-7" d="M1330,235.7l-1.4-1.47V232c.12-.35.76-.53.55-1.13a10,10,0,0,1,1.34-.79,1.55,1.55,0,0,1,1.07-.11,10.21,10.21,0,0,1,1.84,1.06c.55.38.44,1.15.92,1.63a1.06,1.06,0,0,1,0,1.06c-.58.6-.53,1.61-1.4,2Z"/><path class="cls-7" d="M1313.15,229.83l.76.69H1315l.82,1.62v2.16c-.42.38-.92.81-1.55,1.35h-2.78c-.83-.51-.78-1.51-1.41-2v-1.68l1.17-1.17Z"/><path class="cls-7" d="M1337.82,240.6l1.47-1.41h2.8c.93.49,1.1,1.53,1.49,2.41s-.78,1.21-.66,2a4.47,4.47,0,0,1-2.31,1.3c-.83.29-1.42-.63-2.21-.81v-.56l-.58-.62Z"/><path class="cls-7" d="M1259.45,235.67h-2.74c-.83-.28-.78-1.31-1.35-1.88a.93.93,0,0,1-.13-.79c.25-.85.48-1.86,1.28-2.28s1.48-1.14,2.46-.67l1.24.59.78,1.5v2.15Z"/><path class="cls-7" d="M1392.73,225.61v-3l1.83-1.28h1.65l2.2,2.21a1.22,1.22,0,0,1-.25,1.26c-.3.3-.38.81-.64,1.16a10.32,10.32,0,0,1-1,1.06h-1.7C1394.24,226.42,1393.27,226.41,1392.73,225.61Z"/><path class="cls-7" d="M1393.35,244.07c-.14-.31-.32-.71-.62-1.42V240.5l1.67-1.27h2.7c.83.37.68,1.46,1.37,2v1.14c-.68.31-.53,1.12-1,1.61s-1.31.28-1.61,1h-1.05Z"/><path class="cls-7" d="M1374.22,260.84v-2.29l1.47-1.47c.58.21.79-.39,1.19-.59a5.36,5.36,0,0,1,3,2v2.36l-1.23,1.23c-.07.05-.15.14-.22.14h-2.82Z"/><path class="cls-7" d="M1420.66,248.57l1.39-.71h1.4l1.42.72.75,1.49v1.29c-.26.5-.5,1-.78,1.53-.38.18-.95.23-1.29.71h-1.49l-1.46-.74-.75-1.47V250Z"/><path class="cls-7" d="M1414.93,262.27h-2.82c-.9-.37-.84-1.39-1.42-2a1.06,1.06,0,0,1-.06-1.06c.67-.76.59-2.22,2.07-2.26.21,0,.41-.33.58-.47.83-.11,1.2,1.21,2,.45l1,.9v3Z"/><path class="cls-7" d="M1429.08,258.57a6.44,6.44,0,0,1,2.9-2.07,5.84,5.84,0,0,1,2.86,2.06v2.22l-1.4,1.48h-2.92l-1.44-1.43Z"/><path class="cls-7" d="M1429.1,242.88v-2.24l1.47-1.47h2.85l1.44,1.44v2.32l-1.43,1.42c-.71-.34-.87.68-1.43.6A6,6,0,0,1,1429.1,242.88Z"/><path class="cls-7" d="M1385.47,247.83h1.74c.42.62,1.21.91,1.45,1.7.12.43.41.8.55,1.22a2.23,2.23,0,0,1,0,.72l-2,2.12h-2.3l-1.47-1.47v-2.84C1383.87,248.42,1384.94,248.5,1385.47,247.83Z"/><path class="cls-7" d="M1374.21,241.19c.66-.54.58-1.6,1.44-2h2.91l1.41,1.48v2.23a5.93,5.93,0,0,1-2.87,2.06,6.51,6.51,0,0,1-2.89-2.07Z"/><path class="cls-7" d="M1360.07,239.17l1.41,1.45v2.82c-.4.89-1.47.9-2.14,1.49a.72.72,0,0,1-.56,0,4.62,4.62,0,0,1-2.48-1.49c.32-.69-.76-.84-.57-1.48a2.74,2.74,0,0,0,.65-2c.44-.3,1.08-.24,1.38-.79Z"/><path class="cls-7" d="M1323.66,239.17l1.44,1.43V243l-1.4,1.34c-.7-.29-.89.66-1.48.62s-.78-.91-1.48-.62l-1.4-1.33v-1.82c.68-.54.6-1.61,1.44-2Z"/><path class="cls-7" d="M1287.23,239.17c.88.38.81,1.42,1.42,2a.86.86,0,0,1,0,.8c-.45.85-.55,1.93-1.57,2.4l-1.34.63-.92-.6H1284c-.59-.17-.41-.63-.56-.93s-.58-.47-.52-.93a8,8,0,0,0,0-.85v-1l1.43-1.49Z"/><path class="cls-7" d="M1342.15,191.22h-2.91l-1.39-1.5v-2.1l.77-1.54,1.24-.1.69-.6c.89.53,2.07.58,2.48,1.83.22.67.86,1.25.51,2a13.15,13.15,0,0,1-1,1.59A3.78,3.78,0,0,1,1342.15,191.22Z"/><path class="cls-7" d="M1270.23,242.73l-.82,1.57a2.67,2.67,0,0,0-2,.64c-.64.18-.78-.91-1.48-.58a4.57,4.57,0,0,1-1.48-2.49.77.77,0,0,1,0-.56c.39-.7.83-1.38,1.26-2.08h3.06l1.44,1.44Z"/><path class="cls-7" d="M1322.29,185.37c.55.28.75.87,1.38.64l1.42,1.5v2.31l-1.51,1.38h-2.75c-.88-.32-.77-1.41-1.46-2v-1.73C1320,186.45,1321.11,186,1322.29,185.37Z"/><path class="cls-7" d="M1407.1,231.22v3l-1.39,1.5h-2.14l-1.58-.83a2.66,2.66,0,0,0-.63-2c-.17-.64.91-.78.57-1.48a4.7,4.7,0,0,1,2.5-1.48.8.8,0,0,1,.57,0C1405.69,230.33,1406.37,230.77,1407.1,231.22Z"/><path class="cls-7" d="M1370.74,234.26l-1.44,1.43h-2.94c-.25-.32-.56-.67-.81-1.05s-.31-.65-.57-1.19V232a5.87,5.87,0,0,1,2.87-2.06,6.42,6.42,0,0,1,2.89,2.07Z"/><path class="cls-7" d="M1410.58,224a7.3,7.3,0,0,1,2.12-2.71H1415l1.31,1.6v2.75c-.23.21-.56.74-.92.77-.55,0-.77.5-1.18.63h-1.47A5.57,5.57,0,0,1,1410.58,224Z"/><path class="cls-7" d="M1356.3,186.89c.4-.84,1.41-.8,2-1.38a1.35,1.35,0,0,1,1.09,0c.41.13.63.61,1.19.6.28,0,.55.47.87.76v3.08l-1.42,1,.16.17c-.07,0-.15.14-.22.14h-2.81c-.3-.29-.57-.56-.85-.85v-1.11l-.58-.63c.19-.19.37-.4.56-.6Z"/><path class="cls-7" d="M1359.47,227h-1.53c-1.19-.54-1.54-1.77-2.22-2.73a5.61,5.61,0,0,1,2.07-3h2.39l1.26,1.92v2.44C1361.23,226.53,1359.9,226.25,1359.47,227Z"/><path class="cls-7" d="M1380,189.78l-1.43,1.43h-2.89c-.84-.37-.75-1.45-1.44-2v-1.71a5.93,5.93,0,0,1,2.87-2.06,6.49,6.49,0,0,1,2.89,2.07Z"/><path class="cls-7" d="M1397.07,191.18H1394l-.92-1.5-.25.25c0-.08-.14-.15-.14-.23,0-.75,0-1.51,0-2l.84-1.65h1.13l.62-.57a5.3,5.3,0,0,1,2.35,1.16,9,9,0,0,1,.84,1.93A5.1,5.1,0,0,1,1397.07,191.18Z"/><path class="cls-7" d="M1402.8,212.61h2.93l1.35,1.55V217l-.74.75h-1.13l-.7.62-.47-.46-1.25-.14c-1-.37-.75-1.48-1.41-2a1.1,1.1,0,0,1,0-1.07C1402,214,1401.94,213,1402.8,212.61Z"/><path class="cls-7" d="M1365,216.23v-1.54c.68-.53.56-1.6,1.45-2.06h3l1.31,1.6v2.24l-1.84,1.42-1,.49-1.79-.89Z"/><path class="cls-7" d="M1398.47,259v1.21a1.58,1.58,0,0,0-.64,1.16c0,.29-.49.54-.78.84h-3l-1.3-1.63v-2l.82-1.55h1.13l.58-.54c.62-.22.85.5,1.23.5a1.42,1.42,0,0,1,1.3.91C1398,258.36,1398,258.81,1398.47,259Z"/><path class="cls-7" d="M1369.3,283.64l1.43,1.44v2.39l-1.4,1.34c-.7-.29-.88.65-1.48.61s-.78-.9-1.48-.61c-.48-.47-1-.93-1.4-1.34v-1.82c.83-.43.44-1.71,2.1-2Z"/><path class="cls-7" d="M1319.33,260.27v-1.63c.62-1.12,1.77-1.56,2.83-2.17l1.79.89,1.13,1.33v2.2l-1.56,1.35h-2.69C1320,262,1320.08,260.85,1319.33,260.27Z"/><path class="cls-7" d="M1407.13,252.16l-1.44,1.44h-2.26a6.45,6.45,0,0,1-2.08-2.84c0-.64.91-.82.62-1.52l1.33-1.4h1.82c.54.67,1.61.59,2,1.44Z"/><path class="cls-7" d="M1357.8,298.08a6.42,6.42,0,0,1-2.07-2.89,5.52,5.52,0,0,1,2.12-2.87H1360l1.48,1.41v2.91c-.42.86-1.48.78-2,1.44Z"/><path class="cls-7" d="M1439.77,253.61l-1.44-1.44v-2.88c.38-.85,1.45-.76,2-1.44H1442a5.86,5.86,0,0,1,2.07,2.86,6.6,6.6,0,0,1-2.07,2.9Z"/><path class="cls-7" d="M1251.75,257.94v3.48l-.88.82H1248a2.52,2.52,0,0,0-.56-.49,3.66,3.66,0,0,0-.84-.17v-3.72c.32-.77,1.25-.68,1.78-1.19a1.13,1.13,0,0,1,1.32-.11C1250.35,257.11,1251.35,257.1,1251.75,257.94Z"/><path class="cls-7" d="M1402.8,283.65h2.93l1.35,1.56V288l-.74.75h-1.13l-.7.62-.47-.46-1.25-.14c-1-.38-.75-1.48-1.41-2a1.1,1.1,0,0,1,0-1.07C1402,285.07,1401.94,284.07,1402.8,283.65Z"/><path class="cls-7" d="M1416.37,275.7v3.14l-1.48,1a4.81,4.81,0,0,1-2.26.36l-1.29-1.29a3.24,3.24,0,0,0-.74-1.42,5.44,5.44,0,0,1,2-3h1.66Z"/><path class="cls-7" d="M1361.5,204.65v3.14l-1.49,1c-.23.5-.72.3-1.18.34s-.76,0-1.09,0c-.45-.46-.86-.87-1.27-1.27a3.14,3.14,0,0,0-.75-1.43,5.55,5.55,0,0,1,2-3h1.65Z"/><path class="cls-7" d="M1355.76,259.63l.51-.51V258c.31-.28.64-.8,1-.83.55-.05.76-.48,1.23-.65a4.54,4.54,0,0,0,2.21.67l.63.64c.05.07.15.15.15.22,0,.95,0,1.89,0,2.83l-1.44,1.43h-3l-.81-1C1356.17,260.87,1356.56,260.05,1355.76,259.63Z"/><path class="cls-7" d="M1341.54,262.24h-2.37l-1.31-1.61v-2.07c.57-1,1.72-1.48,2.74-2.06.47-.09.65.49.94.51,1.48.1,1.43,1.49,2,2.32a.85.85,0,0,1,0,.82C1342.9,260.71,1343.19,261.88,1341.54,262.24Z"/><path class="cls-7" d="M1305.18,262.27h-2.91l-.81-.89V258c.27-.81,1.27-.8,1.89-1.31a1.56,1.56,0,0,1,1.31,0,11.3,11.3,0,0,1,1.75,1.07,3.46,3.46,0,0,1,.21,1.76c0,.47,0,.95,0,1.4C1306.13,261.33,1305.65,261.8,1305.18,262.27Z"/><path class="cls-7" d="M1274.87,288.57l-1.16-1.17v-2.34l1.5-1.4H1278c.88.34.8,1.4,1.42,2,.15.14,0,.55.07.83.09.61-.83.82-.58,1.49a10,10,0,0,1-1.07.88,9.89,9.89,0,0,1-1.22.6Z"/><path class="cls-7" d="M1359.48,274.4c.53.67,1.59.59,2,1.45v2.91l-1.48,1.4h-2.22a5.93,5.93,0,0,1-2.08-2.9,5.21,5.21,0,0,0,.57-1.16,1.46,1.46,0,0,1,.87-1c.44-.17.9-.22,1.12-.66Z"/><path class="cls-7" d="M1401.22,197.62c.72-1.15,1.13-2.21,2.24-2.9h2.32l1.31,1.6V199c-.35.87-1.44.88-2.14,1.43a.87.87,0,0,1-.83,0c-.8-.64-2.21-.62-2.29-2.08C1401.81,198.14,1401.49,197.94,1401.22,197.62Z"/><path class="cls-7" d="M1267.27,185.36c.69.23.85.93,1.49.59l1.45,1.65v2.24l-1.56,1.35H1266c-.87-.29-.82-1.32-1.37-1.94a1.39,1.39,0,0,1,0-1.3c.53-.78.63-2,2-2C1266.8,185.89,1267,185.57,1267.27,185.36Z"/><path class="cls-7" d="M1407.13,267.42V270c-.39,1-1.48,1-2.18,1.54a.87.87,0,0,1-.83,0c-.8-.64-2.21-.62-2.29-2.08,0-.22-.34-.42-.51-.62a11.28,11.28,0,0,1,.79-1.75,9.13,9.13,0,0,1,1.23-1.27h2.44Z"/><path class="cls-7" d="M1383.45,216.27V214l1.75-1.3h2.6c.89.35.75,1.3,1.25,1.86a1.33,1.33,0,0,1,.07,1.29c-.44.42-.42,1-.76,1.45s-1,.44-1.41.8c-.14.12-.3.21-.44.32A5.54,5.54,0,0,1,1383.45,216.27Z"/><path class="cls-7" d="M1238.73,176.79h2.34l1.43,1.43v2.94l-1.54,1.36h-2.32l-1.27-1.66v-2.6C1237.86,177.72,1238.31,177.24,1238.73,176.79Z"/><path class="cls-7" d="M1306.62,186.77v3.12l-2.12,1.32h-2.22l-.84-.84V187c.32-.9,1.34-.86,2-1.4a1.57,1.57,0,0,1,1.31,0A13.78,13.78,0,0,1,1306.62,186.77Z"/><path class="cls-7" d="M1292.18,249.26l1.48-1.41H1296l1.3,1.72v2.64l-1.24,1.25c-.08,0-.15.14-.23.14h-2.22l-1.46-1.44Z"/><path class="cls-7" d="M1276.73,218.46l-1.82-.9-1.13-1.13c-.24-.76,0-1.61-.09-2.26l1.41-1.56H1278c.89.42.77,1.5,1.45,2-.1.45.09.89-.2,1.37-.64,1.06-.59,1.09-2,2A6.9,6.9,0,0,0,1276.73,218.46Z"/><path class="cls-7" d="M1350.82,247.83l1.42,1.44v3l-1.57,1.33h-2.29l-1.25-1.71v-2.61l1.41-1.41Z"/><path class="cls-7" d="M1287.42,191.2h-3.06l-1.39-1.4c-.1-.68,0-1.53,0-2.27l1.45-1.52c.63.23.84-.36,1.23-.56a4.13,4.13,0,0,1,2.34,1.29c.31.41.44,1,.74,1.42a1.37,1.37,0,0,1-.06,1.1A22.16,22.16,0,0,1,1287.42,191.2Z"/><path class="cls-7" d="M1297.34,213.53v3.39l-.74.81-1.28.11-.47.46a4.08,4.08,0,0,0-.8-.49,3.63,3.63,0,0,0-1,0l-.73-.66c-.08-.12-.18-.2-.18-.27,0-1.15,0-2.29,0-3.4l.86-.86h3.52Z"/><path class="cls-7" d="M1305.18,298.08h-2.33l-1.4-1.48v-2.93l1.61-1.31h2.17l1.25,1.24c0,.08.14.15.14.23,0,.94,0,1.89,0,2.81Z"/><path class="cls-7" d="M1297.38,178.57v2.55c-.47.47-1,.94-1.43,1.43h-2.37l-1.36-1.54v-2.9l1.68-1.27H1296C1296.31,177.25,1296.78,177.82,1297.38,178.57Z"/><path class="cls-7" d="M1438.32,285.08l1.44-1.42h2.83c.9.41.94,1.46,1.49,2.16a.88.88,0,0,1,0,.82c-.52.72-.58,1.76-1.59,2.22h-1l-.51.51-.6-.46-1.25-.13c-.29-.47-.26-1.1-.8-1.41Z"/><path class="cls-7" d="M1270.23,258.44v2.39c-.49.49-1,1-1.44,1.44h-2.88c-.85-.41-.8-1.44-1.41-2-.15-.13,0-.55,0-.83,0-.6.82-.83.59-1.49.37-.28.72-.58,1.1-.84a5.9,5.9,0,0,1,.7-.38c.48-.27.51-.27,1,0a9.43,9.43,0,0,1,1.18.62A15,15,0,0,1,1270.23,258.44Z"/><path class="cls-7" d="M1311.57,212.59h3l1.28,1.82v1.91a7.15,7.15,0,0,1-2.66,2.06c-.89-.4-1.93-.58-2.47-1.55.16-.71-.93-1-.58-1.78A5.43,5.43,0,0,1,1311.57,212.59Z"/><path class="cls-7" d="M1331.51,218.51c-1-.77-2.23-.93-2.87-2.55v-2l1.23-1.22c.07-.05.15-.15.22-.15h2.74c.93.39.83,1.33,1.34,1.86a1.08,1.08,0,0,1,.11,1.31c-.46.43-.46,1-.76,1.45s-1,.49-1.41.81C1332,218.12,1331.82,218.25,1331.51,218.51Z"/><path class="cls-7" d="M1383.45,285.09l1.43-1.44h2.89c.85.38.78,1.42,1.4,2,.15.14,0,.55.06.83.07.61-.84.82-.58,1.49a12.86,12.86,0,0,1-1.09.86,10.9,10.9,0,0,1-1.18.6,6.56,6.56,0,0,1-2.93-2.08Z"/><path class="cls-7" d="M1282.94,258.57a6.56,6.56,0,0,1,2.93-2.09,13.07,13.07,0,0,1,1.18.6,12.86,12.86,0,0,1,1.09.86c-.26.67.65.89.58,1.49,0,.28.09.68-.06.83a2.93,2.93,0,0,0-.62,1.2c-.1.33-.48.58-.69.8h-3l-1.44-1.43Z"/><path class="cls-7" d="M1331.56,289.52c-1.12-.65-2.2-1-2.92-2.2V285l1.23-1.23c.07-.05.15-.14.22-.14h2.74c.93.39.83,1.32,1.34,1.86a1.08,1.08,0,0,1,.11,1.31c-.44.43-.45,1-.76,1.45s-1,.49-1.41.8C1332,289.17,1331.82,289.3,1331.56,289.52Z"/><path class="cls-7" d="M1292.18,284.51l.84-.83h3.49l.81.74V288l-.8.81h-1.14l-.62.57c-.41-.74-1.15-.52-1.75-.62l-.83-.81Z"/><path class="cls-7" d="M1258.29,218.26l-.44-.43h-1.1c-.22-.2-.42-.41-.64-.58-.45-.36-.32-1-.77-1.44-.22-.21-.14-.92,0-1.3a14.7,14.7,0,0,1,1.15-1.87h3.17l1.25,1.7v2A5.18,5.18,0,0,1,1258.29,218.26Z"/><path class="cls-7" d="M1250.2,191.22h-2.29l-1.29-1.73v-2.66c.32-.8,1.26-.69,1.79-1.21.38-.38.89-.11,1.34-.15.42.81,1.71.41,2,1.41v3.53a5.28,5.28,0,0,0-.7.24A9.6,9.6,0,0,0,1250.2,191.22Z"/><path class="cls-7" d="M1447.56,260.83v-2.28c.31-.44,1-.67.46-1.48a6.21,6.21,0,0,0,1.42,0,3.36,3.36,0,0,0,.88-.58l1.64.73c.46.91.9,1.78,1.4,2.79l-1.25,2.21h-3.17Z"/><path class="cls-7" d="M1257.14,283.65h2.42l1.43,1.44v2.31c-.4.41-.79.84-1.23,1.21s-1.07.25-1.38.8l-.5-.5-1.26-.12c-.81-.33-.71-1.27-1.23-1.81s-.12-.89-.14-1.35C1256,285.19,1255.7,283.94,1257.14,283.65Z"/><path class="cls-7" d="M1311.54,288.84c-.85-.41-.82-1.42-1.4-2a1.09,1.09,0,0,1,0-1.09c.59-.61.52-1.64,1.42-2.06h2.93l1.37,1.52v2.28l-1.59,1.37-1,.49-.52-.48Z"/><path class="cls-7" d="M1248.25,168.16h1.92l1.48.74s.09.07.09.15c0,1.14,0,2.28,0,3.37-.43.89-1.44.86-2,1.44a1.21,1.21,0,0,1-1.1,0c-.4-.2-.66-.57-1.2-.6-.29,0-.54-.5-.84-.79v-3Z"/><path class="cls-7" d="M1352.24,302.42v2.94c-.43.36-.93.8-1.56,1.35h-2l-1.47-.74a.36.36,0,0,1-.11-.16v-3.36c.44-.91,1.44-.87,2-1.45a1.11,1.11,0,0,1,1.09,0C1350.81,301.58,1351.82,301.54,1352.24,302.42Z"/><path class="cls-7" d="M1306.6,240.68v2.74c-.29.89-1.32.84-1.93,1.38a1.5,1.5,0,0,1-1.3,0,13.27,13.27,0,0,1-1.87-1.15V240l1.56-.8h2.15Z"/><path class="cls-7" d="M1246.55,243v-2.35l1.43-1.43h2.28c.34.47.91.53,1.44.78v3.53c-.27.87-1.43.8-2.08,1.42a1.08,1.08,0,0,1-1.06,0C1248,244.17,1246.84,244.45,1246.55,243Z"/><path class="cls-7" d="M1348.7,235.7l-1.61-.84v-3.45c.27-.84,1.29-.81,1.9-1.33a1.56,1.56,0,0,1,1.31-.05,11.83,11.83,0,0,1,1.75,1.08,3.55,3.55,0,0,1,.2,1.76c0,.47,0,.95,0,1.36l-1.44,1.47Z"/><path class="cls-7" d="M1306.62,225.64c-.33.26-.67.56-1.06.81a10.91,10.91,0,0,1-1.19.56h-1.57c-.35-.41-.78-.91-1.33-1.57v-2.86l1.73-1.25h2l1.41,1.36Z"/><path class="cls-7" d="M1251.75,225.6l-1.44,1.42h-1.68c-.48-.7-1.68-.37-2-1.34v-3.1l2-1.25h1.77l1.43,1.42Z"/><path class="cls-7" d="M1297.34,267.42v2.67c-.52.82-1.47.84-2.09,1.39a1.1,1.1,0,0,1-1.07,0c-.59-.59-1.61-.54-2-1.42v-2.85l1.46-1.41H1296Z"/><path class="cls-7" d="M1303.06,310.21h2.14c.44.47.89,1,1.41,1.5v2.83l-.73.76c-.69.19-1.51,0-2.07.77l-2.32-1.33V311Z"/><path class="cls-7" d="M1297.37,231.37v2.93l-1.54,1.36h-2.31l-1.28-1.66v-2.66c.37-.92,1.46-.74,2-1.39a1.12,1.12,0,0,1,1.08,0C1296,230.55,1297,230.51,1297.37,231.37Z"/><path class="cls-7" d="M1293.62,306.75l-1.42-1.45v-2.8c.31-.9,1.34-.86,2-1.4a1.55,1.55,0,0,1,1.3,0,13.87,13.87,0,0,1,1.87,1.15v3.08l-1.42,1.42Z"/><path class="cls-7" d="M1350.83,265.74l1.41,1.46V270c-.3.9-1.33.85-1.94,1.39a1.5,1.5,0,0,1-1.3,0,13.33,13.33,0,0,1-1.75-1.07,3.79,3.79,0,0,1-.19-1.76c0-.47,0-.94,0-1.37l1.44-1.45Z"/><path class="cls-7" d="M1352.26,216.93l-.83.81c-.59.11-1.33-.13-1.74.62l-.62-.56h-1.16l-.8-.87V213.4l.7-.69c1-.29,2,0,2.93-.15l1.52,1.52Z"/><path class="cls-7" d="M1302.87,209.13l-1.43-1.44v-2.81c.32-.9,1.34-.86,2-1.4a1.55,1.55,0,0,1,1.3,0,14.52,14.52,0,0,1,1.87,1.15v3.08l-1.37,1.42Z"/><path class="cls-7" d="M1347.06,284.51l.83-.83h3c.29.37.7.89,1.28,1.65V288c-.3.32-.55.6-.79.87h-1.16l-.61.55-.48-.47-1.27-.15-.83-.8Z"/><path class="cls-7" d="M1250.34,280.17H1248l-1.43-1.43v-2.82c.34-.9,1.35-.86,2-1.4a1.55,1.55,0,0,1,1.3,0,15.24,15.24,0,0,1,1.86,1.14v3Z"/><path class="cls-7" d="M1305,280.13h-2.29l-1.26-1.95v-2.43c.37-.8,1.41-.72,2-1.32a1.19,1.19,0,0,1,1.09,0,2.79,2.79,0,0,0,1.2.61c.3,0,.54.5.83.79v3Z"/><path class="cls-7" d="M1297.38,199c-.37.89-1.4.83-2,1.41-.2.2-.75.16-1.09.06s-.63-.61-1.2-.6c-.27,0-.55-.46-.87-.75v-3l1.25-1.24c.07-.05.15-.14.22-.15h2.22l1.46,1.44Z"/><path class="cls-7" d="M1347.06,196.12l1.5-1.41h2.34l1.31,1.69V199c-.49.84-1.47.82-2.08,1.39a1.06,1.06,0,0,1-1.06,0c-.56-.65-1.69-.44-2-1.81Z"/><path class="cls-7" d="M1246.55,204.84c.38-.88,1.4-.83,2-1.41a1.08,1.08,0,0,1,1.07-.05c.62.56,1.57.58,2.08,1.4v3l-1.41,1,.16.16c-.07.05-.15.14-.22.14H1248l-1.47-1.47Z"/><path class="cls-7" d="M1412.62,292.31h2.31l1.42,1.63v2.72c-.49.59-1.27,0-1.84.6a3.7,3.7,0,0,1-1.73.85c-.66-.31-1-1-1.61-1.49.22-.6-.37-.81-.56-1.17s.22-.7.43-1,.18-.88.62-1.18A10.15,10.15,0,0,0,1412.62,292.31Z"/><path class="cls-7" d="M1238,266.5l.61-.61c.07-.05.15-.15.22-.15h2.24l1.45,1.44V270c-.37.89-1.38.86-2,1.41-.24.21-.92.1-1.3-.07a14.05,14.05,0,0,1-1.74-1.06C1236.77,268.81,1238.08,267.77,1238,266.5Z"/><path class="cls-7" d="M1433.73,296.94h-1.48c-.15.14-.28.28-.43.43a4.24,4.24,0,0,1-1.91.1l-.82-1.6v-1.43l.81-1.39,1.39-.71h1.53c.33.11.51.75,1.14.53l.84,1.63v1.7Z"/><path class="cls-7" d="M1369.22,182.53H1367c-.34-.14-.53-.76-1.15-.54l-.85-1.63V178.8l.62-.68c.12-.08.2-.18.27-.18h4l.86.85v2.36Z"/><path class="cls-7" d="M1270.23,171.79a6,6,0,0,1-2.9,2.12,6,6,0,0,0-1.13-.58,1.42,1.42,0,0,1-1.13-1.07c-.11-.64-.91-1-.61-1.75.06-.16,0-.43.15-.5.48-.27.34-.82.6-1.25h1.33c.14.13.27.27.46.46h1.48l1.75.93Z"/><path class="cls-7" d="M1334.31,178.51v2a2.44,2.44,0,0,0-.47.55,2.52,2.52,0,0,0-.16.74l-1.65.7h-2.14l-1.26-1.7v-2.08a2,2,0,0,1,.52-.21Z"/><path class="cls-7" d="M1367.91,300.88c1,.69,2.1,1.07,2.78,2.18v1.72c-.12.11-.18.23-.25.23h-3l-1.11,1.23c-.25-.1-.68-.16-.71-.31a1.57,1.57,0,0,0-.65-1.16V303C1365.61,302,1366.73,301.55,1367.91,300.88Z"/><path class="cls-7" d="M1242.51,199c-.41.84-1.47.76-2,1.43h-1.14c-.1-.13-.3-.26-.3-.41,0-.86,0-1.72,0-2.66l-.52-.66v-2c.89-.1,1.73,0,2.52,0l1.47,1.45Z"/><path class="cls-7" d="M1347.09,180.69v-1.92c.36-.36,1.9-.37,5.12-.06v2.53l-1.71,1.26h-2.14C1348.13,182.17,1347.75,181.62,1347.09,180.69Z"/><path class="cls-7" d="M1240.87,164.65h-2.12l-1.42-1.44c0-.82,0-1.65,0-2.43a2.7,2.7,0,0,1,2.77.41c.92-.27,1.47.66,2.3.72a3.87,3.87,0,0,1,.09,1.91Z"/><path class="cls-7" d="M1284.41,310.22h2.94c.25.35.54.71.79,1.1s.33.63.57,1.11v.94c-.33.5-.84.27-1.28.3a6.31,6.31,0,0,1-1.15,0c-.45-.05-.62-.69-1.2-.58a1.14,1.14,0,0,1-1-.29,5.29,5.29,0,0,0-1.16-.61C1283,311.19,1283.91,310.84,1284.41,310.22Z"/><path class="cls-7" d="M1242.51,249.17v3l-1.46,1.42h-1.11c-.1-.12-.3-.26-.3-.4,0-1.24,0-2.49,0-3.72l.9-1.66C1241.58,247.77,1241.75,248.92,1242.51,249.17Z"/><path class="cls-7" d="M1339.25,310.22h2.87a4.66,4.66,0,0,1,1.49,2.56c-.64.56-1.39.25-2.09.27l-.52-.52h-2.92c-.36-.42-.39-.75-.06-1.08S1338.83,310.64,1339.25,310.22Z"/><path class="cls-7" d="M1242.51,216.91c-.48.34-.7,1.2-1.57.76-.33-.6-.09-1.27-.17-1.9l-.47-.48c-.32-.73.07-1.58-.15-2.35.33-.36.33-.37,1.59-.25l.6.6c.06.07.16.14.16.21C1242.51,214.64,1242.51,215.77,1242.51,216.91Z"/><path class="cls-7" d="M1242.51,234.91l-1.56.67c-.06-.06-.17-.13-.17-.21,0-1.51,0-3,0-4.54,0-.07.11-.15.18-.22.86-.43,1.08.43,1.55.78Z"/><path class="cls-7" d="M1406.63,301.76l-.93.93c-1-.27-1.7.49-2.51.81a2.72,2.72,0,0,1-1.56.35c.29-1.67.39-1.63,2-2.62C1404.93,300.45,1405.55,301.71,1406.63,301.76Z"/><path class="cls-7" d="M1412.68,209.08a5.27,5.27,0,0,1-2.1-3c.07-.1.1-.22.17-.24.25-.07.51-.1.74-.15.23.46.45.85.64,1.25a4,4,0,0,0,.42,1C1412.9,208.28,1413.11,208.62,1412.68,209.08Z"/><path class="cls-7" d="M1320.77,310.28h2.38c.07,0,.13.13.22.22-1.07.51-2.1,1.09-3.29,1.6-.1-.48-.15-.73-.21-1Z"/><path class="cls-7" d="M1456.7,268.13a4.92,4.92,0,0,1,.09.76c0,.08-.23.17-.37.21s-.18-.12-.18-.19c0-.25.06-.51.09-.77Z"/><path class="cls-7" d="M1285.25,173.32c.37.1.89-.28,1.11.33C1285.59,173.91,1285.59,173.91,1285.25,173.32Z"/><path class="cls-7" d="M1285.25,173.32c-.37-.11-.89.28-1.1-.34C1284.91,172.73,1284.91,172.73,1285.25,173.32Z"/><path class="cls-7" d="M1357.83,310.71l-.37-.21c.06-.06.14-.19.19-.18a2.18,2.18,0,0,1,.38.18Z"/><path class="cls-9" d="M636.9,925.42l.45-.45h3l1.28,1.66v2.12c-.13.14-.31.25-.39.41a5.5,5.5,0,0,0-.23.86l-.8.17c-.15.14-.36.33-.56.53H638l-2-2v-1.61Z"/><path class="cls-9" d="M608.79,1009v-2.91c.4-.84,1.46-.75,2-1.43h1.76l2,2.15v1.56a2.5,2.5,0,0,0-.48.56,2.44,2.44,0,0,0-.15.74l-1.66.69h-2Z"/><path class="cls-9" d="M584.8,978.08c.51.68,1.6.54,2,1.45v2.83c-.38.89-1.48.87-2.11,1.5h-1.41l-1.65-.88v-.56l-.57-.6v-1.71l2-2Z"/><path class="cls-9" d="M604,966h-3l-1.43-1.43v-2.28c.17-.37.77-.56.55-1.19l1.16-.58a1.43,1.43,0,0,1,1.75,0,5.57,5.57,0,0,1,1,.42,13.69,13.69,0,0,1,1.28,1.26v1.71Z"/><path class="cls-9" d="M609.44,956.42c-.13-.32-.31-.72-.62-1.43v-2.15l1.67-1.27h2.11a1.68,1.68,0,0,0,.41.39,5.35,5.35,0,0,0,.85.23c0,.21.11.47.18.8l.52.56v1.72l-2,2h-1.59Z"/><path class="cls-9" d="M584.82,1049.13a1.61,1.61,0,0,0,1.16.63c.3,0,.55.5.84.79v2.84c-.36,1-1.59.76-2,1.51h-1.5l-1.53-.77c-.18-.38-.23-1-.71-1.29v-1.66c.69-.71,1.35-1.39,2-2Z"/><path class="cls-9" d="M600.25,1032.16c.19-.58,1-.2,1.25-.87.45,0,1-.13,1.31.1s.87.28,1.21.57.81.79,1.26,1.24v1.7l-1.21,2h-3.15l-1.37-1.38v-2.17Z"/><path class="cls-9" d="M591.15,1023.12c.64.22.85-.35,1.22-.55h2.28l1.42,1.43v2.29l-.57.61v.56l-1.63.84h-1.41l-2.11-2.22v-1.37Z"/><path class="cls-9" d="M596.08,1009l-1.47,1.44a6,6,0,0,0-1.34,0c-.74.16-1.17-.45-1.77-.58-.3-.06-.63-.16-.59-.41.09-.72-.92-1-.62-1.77a3.34,3.34,0,0,0,0-1l.89-.89,1.07-1.07H594l1.54.8v.57c.2.2.39.41.58.61Z"/><path class="cls-9" d="M581.08,1034.92v-1.69l1-1,1.67-1h.84l1.45.75.74,1.46v2.17l-1.57,1.34h-2.74C581.61,1036.7,581.78,1035.46,581.08,1034.92Z"/><path class="cls-9" d="M582.51,996h2.91l1.39,1.5v2.1c-.25.49-.49,1-.74,1.47a3.48,3.48,0,0,0-.92.39,1.48,1.48,0,0,1-1.77.07,6.12,6.12,0,0,1-2.32-1.86v-1.42C581.51,997.46,581.71,996.53,582.51,996Z"/><path class="cls-9" d="M599.55,997.42,601,996h2.79c1,.34.75,1.58,1.51,2v1.55a2.6,2.6,0,0,1-.28.45,7.34,7.34,0,0,1-1,1,6.93,6.93,0,0,1-1,.41c-.85.44-1,.45-1.75.09-.24-.11-.49-.21-.72-.33s-.31-.18-.47-.27v-.56l-.58-.62Z"/><path class="cls-9" d="M594.64,992.52h-2.93c-.25-.32-.57-.65-.82-1a8.72,8.72,0,0,1-.55-1.27v-1.4c.58-1,1.71-1.48,2.84-2.15l1,.61,1.17.13c.15.36.27.69.42,1,0,.08.13.13.23.24.25.39.07.87.1,1.32s0,.75,0,1.1Z"/><path class="cls-9" d="M603.31,983.86h-1.5c-.4-.2-.82-.36-1.2-.59s-.73-.56-1.06-.81v-3c.35-.25.72-.54,1.1-.79s.64-.34,1.1-.58h1.5l2.06,2v1.64Z"/><path class="cls-9" d="M613.26,992.52h-3l-1.43-1.43v-2.28c.17-.37.77-.56.55-1.19a5.34,5.34,0,0,0,1.14-.59,1,1,0,0,1,1-.26c.73.28,1.62.38,2.1,1.08a9.22,9.22,0,0,1,.93,1.89,1.11,1.11,0,0,1-.07.82C614.14,991.19,613.73,991.77,613.26,992.52Z"/><path class="cls-9" d="M621.64,983.81h-2.29l-1.25-1.71v-2.6l1.41-1.42h2.28l1.42,1.45v3Z"/><path class="cls-9" d="M608.79,970.86l1.44-1.44h2.86c.87.38.8,1.43,1.42,2,.15.14,0,.55.06.83.07.61-.84.82-.58,1.5a6.64,6.64,0,0,1-2.27,1.45,6.49,6.49,0,0,1-2.93-2.08Z"/><path class="cls-9" d="M596.08,1041.91v2.26a6.56,6.56,0,0,1-2.93,2.08,10.9,10.9,0,0,1-1.18-.6,12.86,12.86,0,0,1-1.09-.86c.26-.67-.65-.88-.58-1.49,0-.28-.09-.69.06-.83.62-.58.55-1.62,1.4-2h2.88Z"/><path class="cls-9" d="M629.14,933.62H631l1.45,1.42V938l-1.5,1.41h-2.33l-1.32-1.59v-2.85Z"/><path class="cls-9" d="M618.9,948l-.85-.84v-3.49l.78-.81h3.54l.71.64a4.91,4.91,0,0,1,.14,2c0,.57,0,1.14,0,1.66l-.87.86Z"/><path class="cls-9" d="M594.64,969.42l1.43,1.44v2.25a6,6,0,0,1-2.66,2l-.56-.52h-1.1c-.89-.42-.82-1.45-1.42-2.06a1.14,1.14,0,0,1,0-1.09c.59-.61.56-1.63,1.4-2Z"/><path class="cls-9" d="M630.44,957.29h-1.13c-.52-.68-1.6-.56-2-1.45v-3l1.6-1.32h2.18l1.26,1.25c0,.07.13.15.13.22,0,1,0,1.9,0,2.81l-.85.86h-.56Z"/><path class="cls-9" d="M623.21,961.62v3l-1.59,1.32h-2.27l-1.25-1.73v-2.65c.37-.78,1.38-.73,2-1.32a1.09,1.09,0,0,1,1.08,0C621.77,960.79,622.79,960.74,623.21,961.62Z"/><path class="cls-9" d="M604,1019.09h-3l-1.42-1.66v-2.11l1.43-1.42h2.82c.9.36.87,1.37,1.41,2,.21.25.11.92-.05,1.31A16,16,0,0,1,604,1019.09Z"/><path class="cls-9" d="M586.83,1015.41v2.24l-1.43,1.43h-2.82c-.9-.34-.86-1.35-1.4-2-.22-.24-.14-.92,0-1.3a14,14,0,0,1,1.13-1.86h3Z"/><path class="cls-9" d="M648.07,919.46v1.7c-.33.52-.85.24-1.28.31-1-.31-.9-1.53-1.59-2.08v-1.68l1.3-1.32a8.62,8.62,0,0,0,.9-.32,4.82,4.82,0,0,0,.56-.38c.71,0,.8.64,1.29.8l-.6.66v1.69Z"/><path class="cls-9" d="M635.94,946.6v-1.71c.79-.44.37-1.72,2.08-2h1.79c.07.24.22.48.15.57-.31.45-.82.81-1,1.3a4,4,0,0,1-.82,1.38,10.45,10.45,0,0,0-.86,1.3s-.18,0-.54,0l-.5-1.17Z"/><path class="cls-9" d="M651,902.14l-1.48,1.36h-2.53a5.63,5.63,0,0,1,.83-1.61c.92-.86,1.12-2.31,2.37-2.87l.81.78Z"/><path class="cls-9" d="M593.66,1057.59l.11,1c-.57,1.18-2.19,1-2.52,2.11-.7,0-1-.12-.94-.82a5.47,5.47,0,0,1,1.73-1.49C592.51,1058.18,593,1057.93,593.66,1057.59Z"/><path class="cls-9" d="M609.4,1023.53c-.15.74.26,1.41-.36,1.89-.43-.38-.24-.87-.23-1.29C608.82,1024,609.12,1023.8,609.4,1023.53Z"/><path class="cls-9" d="M609.2,1023.78l.51-.59C610.1,1023.69,609.65,1023.65,609.2,1023.78Z"/><path class="cls-9" d="M640.64,911.86l.21-.21a2.26,2.26,0,0,1,.18.39c0,.05-.12.13-.18.19Z"/><path class="cls-9" d="M600,1050.35l.51-.59C600.86,1050.26,600.41,1050.22,600,1050.35Z"/><path class="cls-9" d="M600.28,1050.22l-.5.59C599.39,1050.3,599.84,1050.34,600.28,1050.22Z"/><path class="cls-8" d="M1182.88,308.87h.06a2.4,2.4,0,0,0,2.4-2.35A29.47,29.47,0,0,1,1216,277.77a2.37,2.37,0,0,0,2.5-2.3,2.4,2.4,0,0,0-2.3-2.51,34.28,34.28,0,0,0-35.69,33.45A2.4,2.4,0,0,0,1182.88,308.87Z"/><path class="cls-8" d="M1505.28,674.13c-12.76-33.93-33.83-63.29-60.94-84.92-26.59-21.21-58.25-35.14-88.86-48.6-12.76-5.61-26-11.42-38.58-17.66-41.28-20.42-81.26-45.6-94.18-91.11-6.46-22.75-6.27-49,.6-82.72.89-4.35,1.93-9.05,3.15-14.26a47.34,47.34,0,0,0,5.72-5.61,49.2,49.2,0,0,0,7.54-51.26c.77-4.05,1.42-7.89,2-11.64,8.42-56.58-2.25-111.73-30.06-155.3a183.41,183.41,0,0,0-32.82-38.41,2.41,2.41,0,1,0-3.2,3.6,178.31,178.31,0,0,1,32,37.4c26.78,42,37.48,97.38,29.35,152q-.42,2.82-.92,5.73c-10.08-14.89-28.92-23.1-46.47-19.76-15.73,3-28.82,15.08-33.71,29.92-16.11,4-34.64.21-50.17-10.5a82.48,82.48,0,0,1-10.06-8.21c-11.55-11-19.63-24.95-26-39.4-7.19-16.31-11.06-34.35-15.16-51.62a2.41,2.41,0,0,0-4.69,1.11c3.69,15.5,7.85,32.92,14.3,49.22-36.65-.08-72.79-22.32-89-55.26a2.41,2.41,0,0,0-4.32,2.12c10.69,21.76,29.68,39.06,51.87,48.91A181.23,181.23,0,0,1,958,242.19a149.42,149.42,0,0,1-41.58,1.32,2.41,2.41,0,0,0-2.54-.4l-.16.07a113.94,113.94,0,0,1-22.74-5.44c-22.34-7.93-40.65-23.35-50.24-42.3a2.41,2.41,0,1,0-4.29,2.18c10.14,20,29.43,36.31,52.92,44.66a114.3,114.3,0,0,0,16,4.37c-15.38,6.2-34.57,12.61-51,14.08-12.84,1.14-31.66.48-49.1-8.83a2.45,2.45,0,0,0-2.33-1.38,2.94,2.94,0,0,0-2.14,4c1.31,18.89,4.61,39,10.1,61.49,13.44,54.94,28.79,96.15,48.32,129.7,25.54,43.85,58.11,74.5,99.56,93.7,17.6,8.15,41.63,16.27,67.65,16.45a61.85,61.85,0,0,1-10.58,21.21,2.41,2.41,0,1,0,3.83,2.92,66.54,66.54,0,0,0,11.76-24.19,114.59,114.59,0,0,0,27.15-4.13c27.52-7.7,53.34-27.2,72.71-54.88,21.24-30.36,32.52-66.32,39.15-90.72a2.41,2.41,0,1,0-4.64-1.27c-10.4,38.24-22.62,66.59-38.46,89.23-18.73,26.77-43.61,45.6-70,53a117.71,117.71,0,0,1-44.26,3.21c-18.1-2-35.74-7.57-52.23-15.21-40.54-18.77-72.4-48.78-97.43-91.76-19.29-33.13-34.48-73.94-47.8-128.41a365.92,365.92,0,0,1-9.71-57.26c13.5,6.49,27.49,8.35,39,8.35,3.55,0,6.87-.17,9.87-.44,19.73-1.76,43-10.3,59.62-17.4A141.17,141.17,0,0,0,932,249.21a162.39,162.39,0,0,0,26.75-2.27,185.9,185.9,0,0,0,69.35-26.79,102,102,0,0,0,36.19,6.81c.57,0,1.15,0,1.73,0l.81,1.87c9.09,20.4,21.25,35.94,36.13,46.2a71,71,0,0,0,39.93,12.92,59.08,59.08,0,0,0,11.62-1.14,40.59,40.59,0,0,0-.65,5.3,2.41,2.41,0,1,0,4.81.25,59.33,59.33,0,0,1,1.13-6.81c1.19-7.13,6.2-14.13,11.39-19.05a39,39,0,0,1,19.28-10.12c13.44-2.56,27.85,2.75,37.28,12.46a39.73,39.73,0,0,1,5,6.28c8.12,12.74,8,29.92,1.11,43.16a41.07,41.07,0,0,1-5.29,7.87c-1.82,2.12-4,3.45-6,5.25a37,37,0,0,1-6.94,4.89,48.48,48.48,0,0,1-11,4.1,46.33,46.33,0,0,1-23.5-.32,2.41,2.41,0,0,0-1.32,4.63,50.28,50.28,0,0,0,13.8,1.91,52.31,52.31,0,0,0,27-7.53c-.72,3.21-1.38,6.24-2,9.11-7,34.48-7.2,61.49-.52,85,13.43,47.31,54.4,73.19,96.68,94.1,12.71,6.29,26,12.12,38.77,17.75,30.33,13.34,61.7,27.14,87.8,48,26.43,21.09,47,49.74,59.43,82.86s15.88,68.21,9.89,101.48c-18.72,104.09-37.7,193.76-59.68,297.6l-2.07,9.76c-9.2,43.5-19.06,81.62-46.52,107.64-23.57,22.32-59.35,33.24-98.13,30-37.33-3.16-72.1-18.12-101.18-32.33-95.17-46.51-189-138.87-271.78-220.35-24.73-24.35-48.15-47.38-70.91-68.62a3.88,3.88,0,0,0-2.48-2.32l-.84-.78a2.4,2.4,0,0,0-2.91-.27C834.65,891.93,815.72,880,803,865.21c-.72-.84-1.47-1.68-2.23-2.53a57,57,0,0,1-6.65-8.47c-2.8-4.81-5.48-9.75-8.21-14.82-5.43-10.07-10.68-20.42-15.62-30.75-.5-1-1-2.13-1.45-3.21a49.48,49.48,0,0,0-4.58-8.73,82.13,82.13,0,0,0-7.76-9.22,70.64,70.64,0,0,0-19.07-14.36c-.84-.43-1.69-.83-2.54-1.24a32.87,32.87,0,0,1-7.48-4.36c-2.28-1.95-4.22-5.25-3.38-8.19s4-4.54,6.63-4.89a16.54,16.54,0,0,1,5.63.34c.7.22,1.4.46,2.08.72a2.33,2.33,0,0,0,1.16.14l1.33.43a107.55,107.55,0,0,1,56.23,44.33,2.41,2.41,0,1,0,4.08-2.55,112.5,112.5,0,0,0-58.78-46.35c-1.58-.52-3.2-1-4.86-1.38a67.83,67.83,0,0,0-14.82-2.64c-3.37-.47-6.85-1-9.76-2.45-2.29-1.16-4.84-3.48-5.13-6.46-.23-2.49,1.25-5.28,3.77-7.1,2.19-1.56,5-2.54,9.15-3.15,15.74-2.33,33.55,2.38,50.18,13.25C786,751.48,798.62,765,810.8,778.1a2.38,2.38,0,0,0,1.76.77,2.4,2.4,0,0,0,1.76-4c-12.37-13.3-25.16-27.05-40.78-37.27-17.3-11.33-35.94-16.3-52.62-14.1a6.85,6.85,0,0,1,.7-3.15c1.48-2.91,4.65-4.72,7-5.73,8.36-3.51,18.53-3,30.33,1.54l.56.44a2.36,2.36,0,0,0,1.77.49c2.2.93,4.44,2,6.74,3.15a143.8,143.8,0,0,1,51.66,45.11,2.39,2.39,0,0,0,2,1,2.4,2.4,0,0,0,2-3.79,148.81,148.81,0,0,0-53.39-46.62,97.12,97.12,0,0,0-8.86-4l-.41-.32c-2-1.54-3.94-3.35-3.84-5.13.13-2.11,3.22-3.56,6.23-4.07,15.39-2.61,33.14,4.12,48.72,18.45,1.33,1.22,2.7,2.45,4.07,3.68,2.32,2.09,4.72,4.24,7,6.4a45.48,45.48,0,0,1,5.06,6.21c.94,1.3,1.91,2.64,3,4,2.16,2.65,4.29,5.33,6.42,8,4.27,5.34,8.67,10.86,13.22,16.15,2.27,2.65,4.35,5,6.34,7.07,47.68,50.4,108.36,86,167.05,120.46,20.16,11.84,41,24.07,60.94,36.69l170.13,107.61.44.27a3.37,3.37,0,0,1,.32.19,3.59,3.59,0,0,0,.81.72,3,3,0,0,0,1.57.45,2.71,2.71,0,0,0,.69-.08,3.22,3.22,0,0,0,2-1.51,5.8,5.8,0,0,0,.67-2.56c0-.16,0-.32,0-.47q1.65-9.64,3.25-19.3t3.15-19.31q1.55-9.66,3.06-19.33t3-19.34q1.47-9.67,2.88-19.35t2.8-19.37q1.36-9.69,2.7-19.38t2.61-19.39q1.29-9.7,2.53-19.4t2.43-19.42q1.2-9.71,2.34-19.43t2.26-19.43q1.1-9.72,2.16-19.45T1299,762.7q1-9.72,2-19.46t1.89-19.48q.93-9.74,1.81-19.48t1.71-19.5a2.41,2.41,0,0,0-2.2-2.6,2.38,2.38,0,0,0-2.6,2.19q-.84,9.75-1.71,19.47t-1.8,19.47q-.91,9.72-1.89,19.45t-2,19.44q-1,9.72-2.07,19.44T1290,801.06q-1.1,9.72-2.25,19.42t-2.34,19.4q-1.19,9.71-2.43,19.4t-2.52,19.38q-1.28,9.69-2.61,19.37t-2.7,19.36q-1.37,9.68-2.79,19.34t-2.88,19.33q-1.45,9.66-3,19.32t-3,19.3q-1.56,9.66-3.15,19.29-1.55,9.3-3.12,18.57L1087.74,925.37c-20-12.66-40.89-24.91-61.08-36.77-41.85-24.56-84.71-49.72-123-80.37-.31-24.24-.15-48,.09-74.35a2.41,2.41,0,0,0-2.39-2.43,2.38,2.38,0,0,0-2.43,2.39c-.22,24.89-.38,47.54-.13,70.45A414.19,414.19,0,0,1,860.67,769c-1.94-2.05-4-4.3-6.19-6.9-4.49-5.22-8.87-10.71-13.1-16-2.14-2.68-4.29-5.37-6.45-8-1-1.21-1.92-2.5-2.82-3.74a49.68,49.68,0,0,0-5.61-6.85c-2.31-2.22-4.74-4.41-7.09-6.52-1.36-1.22-2.71-2.43-4-3.64-16.68-15.35-35.92-22.52-52.79-19.66-4.73.8-9.91,3.47-10.22,8.53a7.34,7.34,0,0,0,.44,3c-9.75-2.46-18.46-2.13-26,1-4.57,1.92-7.76,4.6-9.48,8a11.64,11.64,0,0,0-1.2,6.21,21.68,21.68,0,0,0-7.35,3.25c-4,2.84-6.16,7.23-5.76,11.45s3.35,8.07,7.73,10.3c3.67,1.87,7.77,2.44,11.39,2.94l.21,0s.41,0,1.07.08a10.69,10.69,0,0,0-4,5.66c-1.25,4.39.67,9.55,4.88,13.16a37.2,37.2,0,0,0,8.54,5.05c.82.39,1.64.78,2.45,1.19A65.66,65.66,0,0,1,753,790.81a77.35,77.35,0,0,1,7.31,8.67,46.39,46.39,0,0,1,4.11,7.9c.5,1.12,1,2.24,1.51,3.33,5,10.4,10.26,20.82,15.72,31,2.75,5.1,5.45,10.08,8.29,15a60.09,60.09,0,0,0,7.22,9.24c.74.83,1.47,1.65,2.17,2.47,13.89,16.13,34.82,29,56.12,34.6l1.12,1a4.94,4.94,0,0,0,1.39,1.32l0,0c22.43,21,45.53,43.68,69.91,67.68,83.05,81.74,177.17,174.39,273,221.24,29.49,14.41,64.77,29.58,102.89,32.81q7,.59,13.86.58c34.75,0,66.28-11.29,88-31.85,30.8-29.16,40.3-74.06,47.93-110.13l2.07-9.77c22-103.87,41-193.58,59.71-297.73C1521.54,744,1518,708.07,1505.28,674.13Z"/><path class="cls-8" d="M945.15,394.4a64.84,64.84,0,0,0-2.61,10.66c-.87,6.67.58,12.55,4.07,16.54,4,4.57,9.65,6,15.68,6a63.15,63.15,0,0,0,11.8-1.35,2.41,2.41,0,0,0-.91-4.73c-8.55,1.65-18,2.57-22.95-3.12-3.47-4-3.31-9.68-2.92-12.74a62.33,62.33,0,0,1,2.44-9.87c.48-1.57,1-3.2,1.41-4.83,6.58-24.7-1.68-52.87-20.56-70.1a2.4,2.4,0,1,0-3.24,3.55c17.59,16.06,25.28,42.3,19.15,65.31C946.1,391.29,945.62,392.87,945.15,394.4Z"/><path class="cls-8" d="M1416.18,300.12a2.22,2.22,0,0,0,.51.06,2.41,2.41,0,0,0,.5-4.76c-20.28-4.37-37.5-21.28-41.86-41.12a2.41,2.41,0,1,0-4.7,1C1375.38,277,1394.11,295.37,1416.18,300.12Z"/><path class="cls-8" d="M1366.35,307.24c1.14.45,2.32.86,3.51,1.22a2.15,2.15,0,0,0,.71.11,2.41,2.41,0,0,0,.7-4.71c-1.07-.33-2.13-.7-3.16-1.1a48.22,48.22,0,0,1-29.5-36.81,2.41,2.41,0,1,0-4.76.74A53.12,53.12,0,0,0,1366.35,307.24Z"/><path class="cls-8" d="M1319.86,309.75a48.39,48.39,0,0,0,5.45,2.69,2.56,2.56,0,0,0,.93.18,2.4,2.4,0,0,0,.93-4.62,44.91,44.91,0,0,1-4.92-2.42c-13.25-7.58-24-21.27-31.86-40.67a2.41,2.41,0,0,0-4.46,1.81C1294.24,287.15,1305.65,301.63,1319.86,309.75Z"/><path class="cls-8" d="M973.3,468.28l.29,0a112.92,112.92,0,0,0,65-31.15,2.4,2.4,0,1,0-3.36-3.44A108,108,0,0,1,973,463.48a2.41,2.41,0,0,0,.29,4.8Z"/><path class="cls-8" d="M219.51,716.13q1.58.15,3.12.15a31.81,31.81,0,0,0,19.16-6.37,272.9,272.9,0,0,0,16.66,40.17c35,67.79,101.91,114,172.94,121.8a2.4,2.4,0,0,0,1.76.92q5.07.27,10.14.27c1.59,0,3.18,0,4.76-.07s3.18.07,4.78.07c3.37,0,6.76-.09,10.14-.27a2.4,2.4,0,0,0,1.76-.92c71-7.85,138-54,172.94-121.8a273.35,273.35,0,0,0,16.9-40.92,28.68,28.68,0,0,0,18.88,7.12,29.44,29.44,0,0,0,2.95-.15c8.8-.9,17.68-5.69,25.69-13.85,12.8-13.06,20.43-32,20.42-50.78,0-20.64-10-40.09-24.2-47.32a28,28,0,0,0-22.82-1c-.65.24-1.28.51-1.91.8,3.31-46.29.51-83.94-8.72-117.84-13.56-49.81-42.55-93.81-81.64-123.9a207.32,207.32,0,0,0-66.6-34.31,2.39,2.39,0,0,0-4.24-1.25l-.07,0a2.41,2.41,0,0,0-3,1.67,2.44,2.44,0,0,0,.32,2A108.4,108.4,0,0,1,424,372.41a107.23,107.23,0,0,1-73.29-28.62,2.4,2.4,0,0,0-3.23-3.2l0,0c-.27-.27-.55-.53-.81-.8a2.4,2.4,0,0,0-3.67,3.09,209.07,209.07,0,0,0-30.07,19.29c-39.09,30.09-68.08,74.09-81.64,123.9C222,520,219.22,557.67,222.54,604c-.47-.21-.95-.41-1.43-.59a32.12,32.12,0,0,0-25,.76c-15.24,7.21-25.89,26.68-25.91,47.34a71.37,71.37,0,0,0,21.91,50.84C200.66,710.47,210.14,715.24,219.51,716.13ZM677.18,607.64a23.29,23.29,0,0,1,19,.84c12.68,6.43,21.55,24.13,21.57,43,0,17.5-7.11,35.22-19.05,47.4-5,5.12-13.06,11.44-22.74,12.43a24,24,0,0,1-19.71-7.27c8.19-26.65,13.7-56.8,16.66-91.07.1-1.15.18-2.27.27-3.42A26.87,26.87,0,0,1,677.18,607.64ZM235.9,487.36c13.28-48.8,41.67-91.89,79.93-121.35a205.26,205.26,0,0,1,30.71-19.53A112,112,0,0,0,424,377.23a113.22,113.22,0,0,0,90.25-45,202.83,202.83,0,0,1,66,33.8c38.26,29.46,66.64,72.55,79.93,121.35,9.29,34.15,11.94,72.26,8.3,119.48a34.89,34.89,0,0,0-12.24,15.64,2.41,2.41,0,1,0,4.47,1.79A30.6,30.6,0,0,1,668,613.5a484,484,0,0,1-9,60.73,315.48,315.48,0,0,1-19.26,60.37q-3,6.74-6.35,13.28c-36.88,71.46-110,118.37-185.24,120.31-75.34-1.87-148.52-48.8-185.42-120.31-10.83-21-18.53-43.62-24-66.55A469.29,469.29,0,0,1,228.09,613a30.46,30.46,0,0,1,8.35,11.32,2.41,2.41,0,0,0,4.43-1.9,35,35,0,0,0-13.29-15.77C224,559.52,226.62,521.46,235.9,487.36ZM198.17,608.51a27.33,27.33,0,0,1,21.23-.61,29.76,29.76,0,0,1,3.58,1.64c.09,1.15.17,2.29.27,3.46,3,34.67,8.6,65.14,16.95,92A27.06,27.06,0,0,1,220,711.34c-10.47-1-19.13-7.34-24.55-12.49A66.51,66.51,0,0,1,175,651.51C175,632.63,184.55,615,198.17,608.51Z"/><path class="cls-8" d="M439.74,740.29c7.5,2.21,15.9,4.68,24.45,4.68,1,0,2.06,0,3.09-.11,10.94-.81,20.38-6.72,24.06-15,3.37-7.65,1.91-16.22.12-24.36-4.87-22.12-10.82-44.27-17.69-65.86a2.4,2.4,0,1,0-4.58,1.46c6.82,21.45,12.73,43.46,17.57,65.44,1.68,7.66,3,15.06.17,21.37-3,6.72-10.82,11.5-20,12.19-8.72.64-17.42-1.92-25.82-4.39a2.41,2.41,0,0,0-1.36,4.62Z"/><path class="cls-8" d="M434.21,784.28a2.4,2.4,0,0,0,1.41-.46c16.76-12.16,40.46-14.09,59-4.8a2.41,2.41,0,0,0,2.16-4.3c-20.07-10.08-45.77-8-63.95,5.21a2.41,2.41,0,0,0,1.42,4.35Z"/><path class="cls-8" d="M828.64,1008.87c-4.5-1.22-9.21-.67-12.81,0-18.26,3.16-34.61,12.42-50.41,21.37-6.45,3.66-13.12,7.44-19.79,10.72-2,1-4,1.93-5.89,1.86-1.34,0-2.92-.8-3.24-1.94.35-1.67,4.69-5.52,12.91-11.44,1.13-.81,2-1.47,2.59-1.9a232.6,232.6,0,0,1,21.72-15.1c9.39-5.85,19.25-11.34,28.79-16.64,5.62-3.13,11.44-6.37,17.11-9.65,4.1-2.38,7.73-4.6,10.75-7.82,3.67-3.93,5.56-8.76,5.18-13.25-.5-5.91-4.72-10.45-9.71-12.92,3.19-2.66,4.95-5.81,5.14-9.29.35-6.78-5.49-11.74-10.58-13.93-11.21-4.82-23.79-2.32-34.62.76a236.54,236.54,0,0,0-29,10.36,131.43,131.43,0,0,1,18.47-8.48l1.33-.48c3.59-1.3,7.31-2.65,10.53-5.09,3.49-2.65,6.93-7.44,6.08-12.94-.72-4.72-4.79-8.91-10.12-10.41-4.58-1.3-9.23-.73-13.59.09C740,908.21,715.12,925.54,696.72,940c-11.45,9-23.19,18.64-32.88,29.68a102.44,102.44,0,0,1,5.94-12.86c.31-.57.64-1.15,1-1.73a44.57,44.57,0,0,0,4.41-9.56c1.46-5.09.86-10-1.65-13.58a14.38,14.38,0,0,0-11.22-5.67,22.89,22.89,0,0,0-11.56,3,36.84,36.84,0,0,0-5.48,3.59l18.35-98.13a2.41,2.41,0,1,0-4.73-.89L639.34,938.27a2.4,2.4,0,0,0,0,.28,56,56,0,0,0-6.81,9.66c-4.24,7.57-7,15.82-9.6,23.8l-20.39,61.69c-1.73,5.26-3.22,9.8-6.23,14.22a47.53,47.53,0,0,1-12.71,12.62c-4.07,2.71-9.45,4.12-14.65,5.49-1.31.35-2.6.69-3.85,1-37.47,10.65-74,21.61-114.43,33.81l-20.87,6.3q-17.53,5.31-35.08,10.59c-25,7.52-44.34,13.23-62.62,18.52-11.11,3.22-21.38,6.14-31.38,8.94q-7.86,2.2-15.73,4.36l-7.86,2.14c-.56.15-1.18.37-1.83.59a10.48,10.48,0,0,1-3.76.87,6.77,6.77,0,0,1-.44-2.13c-.05-.52-.11-1-.19-1.47l-59-315.71a2.41,2.41,0,1,0-4.73.89l59,315.7c.07.34.11.72.15,1.11.21,2,.6,5.57,4.27,6.3a5.85,5.85,0,0,0,1.26.12,15.8,15.8,0,0,0,5-1.13c.54-.19,1.05-.37,1.51-.49l7.89-2.15q7.88-2.16,15.74-4.36c10-2.81,20.31-5.74,31.43-9,18.3-5.29,37.62-11,62.66-18.53q17.55-5.28,35.09-10.59l20.87-6.3c40.42-12.19,76.92-23.15,114.36-33.79,1.21-.34,2.47-.67,3.75-1,5.33-1.4,11.37-3,16.1-6.15a52.08,52.08,0,0,0,14-13.91c3.4-5,5.07-10.06,6.83-15.43l20.39-61.68c2.56-7.77,5.22-15.79,9.23-23,4.37-7.8,10-13.68,16.27-17a18.31,18.31,0,0,1,9.13-2.45,9.67,9.67,0,0,1,7.47,3.65c1.66,2.34,2,5.79.95,9.47a40.68,40.68,0,0,1-4,8.53c-.33.59-.66,1.18-1,1.77a107.85,107.85,0,0,0-6.9,15.26c-1,2.67-1.62,5.44-2.58,8.1-.9,2.49-.71,5-.76,7.69a5,5,0,0,0,3.54-1.83c1.25-1.41,2.19-3.07,3.4-4.52,1.55-1.85,3-3.78,4.55-5.61,3.19-3.69,6.6-7.2,10.14-10.56,7.14-6.78,14.79-13,22.52-19.07l.23-.18c18-14.15,42.23-31.08,70.66-36.39,3.77-.71,7.77-1.22,11.39-.19,3,.83,6.16,3.17,6.68,6.51s-2,6.65-4.24,8.38c-2.64,2-5.85,3.16-9.26,4.39l-1.35.49a138.46,138.46,0,0,0-45.71,28,236.43,236.43,0,0,0-45.63,36.08,2.41,2.41,0,0,0,0,3.41,2.4,2.4,0,0,0,3.4,0A231.46,231.46,0,0,1,787.1,934.28c10-2.85,21.57-5.2,31.39-1,4,1.71,7.89,5.23,7.68,9.26-.18,3.48-3.2,6-6.08,7.67-7-1.16-13.88.74-19.84,2.64a225.25,225.25,0,0,0-97.09,61.87,2.41,2.41,0,1,0,3.54,3.26,220.41,220.41,0,0,1,95-60.54c5.25-1.68,11.29-3.34,17-2.54a2.41,2.41,0,0,0,2,.36c4.73,1.26,9.6,5,10,10.15.26,3.13-1.16,6.61-3.91,9.55-2.56,2.74-5.88,4.76-9.64,6.94-5.64,3.26-11.44,6.49-17,9.61-9.59,5.33-19.5,10.85-29,16.76A242.13,242.13,0,0,0,749,1023.71c-.51.41-1.36,1-2.42,1.78-10.25,7.38-15.65,12.15-14.83,16.2.78,3.79,4.55,5.83,7.88,5.89,2.94.06,5.63-1.13,8.12-2.35,6.79-3.35,13.52-7.16,20-10.85,15.45-8.75,31.42-17.8,48.86-20.81,3.31-.57,7.16-1,10.72-.06,3.35.92,6,3.23,6.85,5.89,1,3.21-.59,6.61-2.38,8.72-2.32,2.74-5.62,4.57-8.84,6.15-4.82,2.36-10,4.37-14.93,6.31a166.27,166.27,0,0,0-18.78,8.28c-14.27,7.77-27.23,20.28-38.52,37.2-4.37,6.55-8.33,13.48-12.16,20.18-5.21,9.12-10.59,18.55-17,27-7.87,10.33-17.93,19.12-27.65,27.62l-.31.27A252.4,252.4,0,0,1,660,1185.92q-9.24,5.68-18.54,11.45-10.49,6.48-21,13c-30,18.42-61,35.93-92.31,52s-63.57,31.26-96,45-65.79,26.39-99.08,37.59c-41.23,13.88-84.41,25-124.18,16.11a2.21,2.21,0,0,0-.8-.17,116.76,116.76,0,0,1-17-5.31,112,112,0,0,1-13.16-6.26,2.37,2.37,0,0,0-2-1.14,127.32,127.32,0,0,1-17.91-12.62,2.39,2.39,0,0,0-2.64-.55,95.77,95.77,0,0,0-54.34,58.93c-1.24,3.93-2.29,8.54-.62,12.82a10.21,10.21,0,0,0,6.27,5.85,8.46,8.46,0,0,0,2.54.4,8.06,8.06,0,0,0,1.3-.12,13.92,13.92,0,0,0,1.93,5.39c2.68,4.24,7.89,6.73,13.54,6.73a19.85,19.85,0,0,0,4.36-.5c5.57-1.28,10.25-4.56,14.27-7.8a13.07,13.07,0,0,0,2.12,9.12c2.52,3.67,7.18,5.85,12.25,5.85a17.72,17.72,0,0,0,2.05-.11c5.08-.59,9.65-3.1,13.46-5.48,4.81-3,9.45-6.42,13.93-9.72,8.31-6.12,16.15-11.89,25.28-15.57,15-6,32-5.62,48.35-5.22,2.63.07,5.26.14,7.88.18,22,.33,40.5-2.46,60.1-5.41,12.16-1.83,24.74-3.72,38.48-4.86l107.21-8.93a2.41,2.41,0,0,0-.4-4.8l-107.21,8.93c-13.9,1.16-26.56,3.06-38.8,4.9-19.39,2.92-37.71,5.7-59.31,5.35q-3.9-.06-7.83-.17c-16.89-.42-34.35-.85-50.27,5.57-9.69,3.9-18.15,10.13-26.33,16.15-4.41,3.25-9,6.6-13.63,9.52-3.52,2.2-7.35,4.3-11.46,4.78s-7.92-1-9.78-3.69c-4-5.77,1.73-14.33,4.36-17.74a124.43,124.43,0,0,1,53-39.53,142.88,142.88,0,0,0,31,3.25c31.54,0,64.1-9,95.5-19.56,33.4-11.25,66.85-23.94,99.42-37.72s64.89-28.94,96.29-45.13,62.55-33.75,92.62-52.23q10.49-6.45,21-13,9.28-5.74,18.53-11.44a257.35,257.35,0,0,0,34.33-25.3l.31-.27c9.9-8.65,20.14-17.61,28.3-28.32,6.62-8.67,12.09-18.24,17.37-27.5,3.79-6.63,7.7-13.49,12-19.9,10.85-16.26,23.24-28.25,36.82-35.64a159.88,159.88,0,0,1,18.24-8c5.06-2,10.28-4,15.28-6.48,3.52-1.71,7.5-3.93,10.4-7.35,3.34-3.93,4.61-9,3.32-13.24S833.62,1010.23,828.64,1008.87Zm-717,394.89a20,20,0,0,0-1,4,2.76,2.76,0,0,1-2.37.2,5.41,5.41,0,0,1-3.25-3c-1.12-2.89-.26-6.48.73-9.62A90.92,90.92,0,0,1,155.94,1340a134.12,134.12,0,0,0,14.73,10.59A187.28,187.28,0,0,0,119,1392.35C116.32,1395.52,113.27,1399.27,111.6,1403.76Zm39.71-1.36a42.56,42.56,0,0,0-3.65,5.56c-1,.85-2.08,1.71-3.12,2.58l-1.43,1.2c-3.92,3.27-8.54,6.85-13.79,8.06-4.41,1-10.2-.08-12.75-4.11-1.68-2.67-1.86-6.5-.46-10.25s4.13-7.1,6.58-10a182.43,182.43,0,0,1,52.84-42,117.84,117.84,0,0,0,13.78,6.57c3.67,1.46,7.37,2.71,11.1,3.79A127.34,127.34,0,0,0,151.31,1402.4Z"/><path class="cls-8" d="M102.13,693.19a74.17,74.17,0,0,1,25-43.43,2.41,2.41,0,0,0-3.1-3.69,79.07,79.07,0,0,0-26.65,46.3c-.16,1-.31,1.92-.46,2.88-.66,4.2-1.27,8.17-3.22,11.5-2.08,3.56-6.65,6.24-10.13,4.57-3-1.45-3.92-4.27-4.81-7.27-1.12-3.76-1.23-8.33-1.39-12.27A74.45,74.45,0,0,1,78,678.52a79.63,79.63,0,0,1,8.21-25.81c3.54-6.85,8.26-16.5,15.9-19.61a63.35,63.35,0,0,1,7.46-2.73A44.67,44.67,0,0,1,153.94,643a2.41,2.41,0,0,0,3.53-3.27,49.78,49.78,0,0,0-29.75-15.33c-10.4-1.34-21.43.71-29.51,5.47a25.58,25.58,0,0,0-4.34,3.27,37.56,37.56,0,0,0-27.81,10.32A55.41,55.41,0,0,0,56.69,655c-7.71,1.79-12.92,8.38-16.2,13.26a94.37,94.37,0,0,0-13.76,32.25c-.06.06-.12.1-.17.16a121.43,121.43,0,0,0-25.27,49c-.9,3.5-1.78,7.58-1,11.71s3.75,8.54,8.56,9.55a7.28,7.28,0,0,0,1.61.17c2.44,0,5-.88,6-3.19a23.89,23.89,0,0,0,1.87-8c-1.55,2.52-5,7.08-8.51,6.34-2.64-.55-4.35-3.38-4.83-5.77-.62-3.14.15-6.59.91-9.58A118,118,0,0,1,25.1,710.2a92.58,92.58,0,0,0-.45,16c.26,4.58,1,10.47,4,15.42s8.19,8.2,13.3,8.2q.65,0,1.29-.06c6.36-.66,10.7-5.81,12.64-10.4A32.18,32.18,0,0,0,58,729.88a13.72,13.72,0,0,0,3.74.6H62c5.51,0,11-3.5,14.3-9.17a30.5,30.5,0,0,0,2.95-7.14,10.75,10.75,0,0,0,2.29,1.49,9.84,9.84,0,0,0,4.33,1c4.84,0,9.62-3.33,12-7.47s3.12-8.72,3.81-13.18C101.83,695.05,102,694.12,102.13,693.19ZM51.4,737.45c-1.77,4.19-5.19,7.12-8.7,7.49-4.2.43-8-2.62-10-5.83-2.45-4.06-3-9.2-3.27-13.22a89.7,89.7,0,0,1,15-55c2.86-4.25,5.64-7.26,8.48-9.15-7,14.46-9.79,31.73-8.72,45.32.35,4.33,1.11,9.92,4,14.76a18.85,18.85,0,0,0,5.16,5.71A30.69,30.69,0,0,1,51.4,737.45Zm20.71-18.58c-2.43,4.14-6.4,6.8-10.16,6.8h-.12c-3.94-.12-7.54-3-9.48-6.27-2.36-4-3-8.88-3.31-12.69-1.5-19,5-45.61,20.27-59.67a32.66,32.66,0,0,1,20.21-9,85.93,85.93,0,0,0-7.58,12.49,81.84,81.84,0,0,0-8.1,52.55,29.62,29.62,0,0,0,1.7,5.88A32.28,32.28,0,0,1,72.11,718.87Z"/><path class="cls-8" d="M678.19,672.05h.21a2.4,2.4,0,0,0,2.4-2.19,31,31,0,0,1,20.71-26.06,2.41,2.41,0,0,0-1.5-4.58,36,36,0,0,0-24,30.21A2.4,2.4,0,0,0,678.19,672.05Z"/><path class="cls-8" d="M197.66,643.81a31,31,0,0,1,20.71,26.06,2.4,2.4,0,0,0,2.4,2.19H221a2.4,2.4,0,0,0,2.19-2.61,36,36,0,0,0-24-30.21,2.41,2.41,0,1,0-1.5,4.58Z"/></g></g></svg>