<svg xmlns="http://www.w3.org/2000/svg" viewBox="0 0 440.75 437.52"><defs><style>.cls-1{fill:#f5f5f5;}.cls-2{fill:#e0e0e0;}.cls-3{fill:#ebebeb;}.cls-4{fill:#23cc79;}.cls-15,.cls-5{fill:#fff;}.cls-10,.cls-6{opacity:0.1;}.cls-7{fill:#27debf;}.cls-8{fill:#455a64;}.cls-17,.cls-9{fill:#37474f;}.cls-11{fill:#fafafa;}.cls-12{opacity:0.05;}.cls-13{fill:#263238;}.cls-14{fill:#663387;}.cls-15{opacity:0.4;}.cls-16{opacity:0.15;}.cls-17{opacity:0.5;}.cls-18{fill:#b16668;}.cls-19{fill:#a27400;}.cls-20{opacity:0.35;}.cls-21{fill:#9a4a4d;}.cls-22{opacity:0.2;}.cls-23{fill:#ffa8a7;}.cls-24{fill:#f28f8f;}</style></defs><title>contrato</title><g id="Capa_2" data-name="Capa 2"><g id="Characters"><path id="Floor" class="cls-1" d="M64.55,403.8c86.06,45,225.6,45,311.66,0S462.27,286,376.21,241s-225.6-45-311.66,0S-21.52,358.84,64.55,403.8Z"/><ellipse id="Shadow" class="cls-2" cx="297.9" cy="345.09" rx="40.89" ry="23.61"/><ellipse id="Shadow-2" data-name="Shadow" class="cls-2" cx="372.62" cy="307.07" rx="36.17" ry="20.88"/><g id="Clouds"><path class="cls-3" d="M340.5,39.08l6.39,3.7a8.24,8.24,0,0,1-.05-.85V40.08c0-3.3,2.31-4.64,5.17-3a10.08,10.08,0,0,1,3.08,3c.46-4.15,3.72-5.69,7.67-3.41A17.08,17.08,0,0,1,370.49,50v2.77a7.39,7.39,0,0,1-.65,3.21l5.31,3.07a6.33,6.33,0,0,1,2.86,5c0,1.83-1.28,2.57-2.86,1.66l-34.65-20a6.34,6.34,0,0,1-2.87-5C337.63,38.91,338.91,38.17,340.5,39.08Z"/><path class="cls-3" d="M313.14,57.71,318,60.5c0-.22,0-.43,0-.64v-1.4c0-2.48,1.75-3.49,3.9-2.25a7.49,7.49,0,0,1,2.33,2.24c.35-3.13,2.8-4.3,5.78-2.58A12.91,12.91,0,0,1,335.77,66v2.09a5.62,5.62,0,0,1-.49,2.43l4,2.31a4.78,4.78,0,0,1,2.17,3.75c0,1.38-1,1.94-2.17,1.25l-26.14-15.1A4.78,4.78,0,0,1,311,59C311,57.58,311.94,57,313.14,57.71Z"/></g><g id="Plants"><path class="cls-4" d="M46.9,356c-.64.35-12.41,3.69-16.77-2.07S33,339.21,28.91,335.9s-15.56,0-18.32-6.95,5.42-10,.82-17C8.52,307.55.41,305.1.78,301c.54-6,11.62-7.64,21.3-1.2s14.18,1.17,17.25.74,9.69.52,9.48,11.3S46.9,356,46.9,356Z"/><path class="cls-5" d="M47.68,340.69a.65.65,0,0,1-.64-.53c-3.37-20.46-27.15-37.11-39.51-40.68a.64.64,0,0,1,.35-1.24C20.53,301.9,44.85,319,48.31,340a.63.63,0,0,1-.53.73Z"/><path class="cls-5" d="M19.64,323.57a.64.64,0,0,1-.55-.31.64.64,0,0,1,.22-.88c.39-.23,9.53-5.58,18.55-3.08a.65.65,0,0,1,.45.79.64.64,0,0,1-.79.45C29,318.18,20.06,323.43,20,323.48A.68.68,0,0,1,19.64,323.57Z"/></g><g id="Plants-2" data-name="Plants"><path class="cls-4" d="M391.51,301.71l-3.11-1.45s-1-11.18,0-18.65c2-13.91,11.72-25.9,20.36-27.31,11.15-1.82,9.17,8.44,2.8,12.86C401.45,274.2,393.51,285,391.51,301.71Z"/><g class="cls-6"><path d="M391.51,301.71l-3.11-1.45s-1-11.18,0-18.65c2-13.91,11.72-25.9,20.36-27.31,11.15-1.82,9.17,8.44,2.8,12.86C401.45,274.2,393.51,285,391.51,301.71Z"/></g><path class="cls-5" d="M390.34,297.23h.05a.55.55,0,0,0,.44-.64c-2.16-11.42,7.25-32.62,19.83-38.63a.54.54,0,0,0,.26-.72.55.55,0,0,0-.73-.26c-13,6.2-22.66,28-20.43,39.82A.55.55,0,0,0,390.34,297.23Z"/><path class="cls-4" d="M388.4,300.26c-.23-1.65-.33-4.07-.36-4.67a15.38,15.38,0,0,1,.9-6.2,12.28,12.28,0,0,1,5.17-6.27c1.3-.75,2.82-1.3,3.67-2.54a8.26,8.26,0,0,0,1-3.7c.26-2.09.91-4.3,2.58-5.58s3.95-1.31,6-1.09c3,.32,5.81.72,8.61-.65a60.33,60.33,0,0,1,6.92-3.12c3-1,9.71-2.5,11.13,1.71a4.07,4.07,0,0,1-.62,3.43,11.8,11.8,0,0,1-2.52,2.57L426.17,278a6.13,6.13,0,0,0-1.42,1.5c-.91,1.55-.27,3.53-.47,5.32a6.35,6.35,0,0,1-2.87,4.48,8.61,8.61,0,0,1-5.25,1.27c-2.44-.17-6.44-2.05-7.94.84a9.06,9.06,0,0,0-.72,3.1,5.88,5.88,0,0,1-1,3c-1,1.23-2.67,1.58-4.22,1.74a24,24,0,0,0-6.45,1c-.84.32-1.37,1.4-1.86,2.11C392.42,301.86,390.74,301.25,388.4,300.26Z"/><path class="cls-5" d="M389.79,299.41a.59.59,0,0,1-.23,0,.49.49,0,0,1-.28-.65c6.3-15.65,26.4-26.86,38.37-30.58a.51.51,0,1,1,.3,1c-11.79,3.65-31.57,14.66-37.74,30A.5.5,0,0,1,389.79,299.41Z"/></g><g id="Pen"><path class="cls-7" d="M247.26,271.45a12.4,12.4,0,0,0,5.61,9.71,4.51,4.51,0,0,0,3.22.68,2.49,2.49,0,0,1-.61.47l1.34-.76.08-.05.2-.14a2.52,2.52,0,0,0,.25-.21l.14-.15,0,0a1.26,1.26,0,0,0,.13-.17,3,3,0,0,0,.46-.83c0-.09.07-.18.1-.27a.37.37,0,0,0,0-.14,1,1,0,0,0,.06-.25,5.47,5.47,0,0,0,.16-1.39,12.41,12.41,0,0,0-5.6-9.71,5.13,5.13,0,0,0-2.52-.76h0l-.34,0-.33,0-.19.06-.12,0-.22.1,0,0-.22.11-1.17.67a2.1,2.1,0,0,1,.61-.21A4.42,4.42,0,0,0,247.26,271.45Zm9.23,10.26.1,0Z"/><path class="cls-3" d="M130.85,336l7.9,13.74,1.34-.77,115.39-66.62a2.49,2.49,0,0,0,.61-.47,4.51,4.51,0,0,0,1-3.15,12.38,12.38,0,0,0-5.61-9.71,5.06,5.06,0,0,0-2.5-.77,2.76,2.76,0,0,0-.71.09,2.1,2.1,0,0,0-.61.21l-.1.05,0,0h0Z"/><path class="cls-7" d="M134.81,336.36c-3.09-1.79-5.6-.34-5.6,3.23a12.41,12.41,0,0,0,5.6,9.71c3.1,1.78,5.61.34,5.61-3.24A12.36,12.36,0,0,0,134.81,336.36Z"/><path class="cls-2" d="M122.76,344.68l.14-.16,7.15-7.86s0,0,0,0l.05-.06.13-.14.08-.08h0c1-1,2.65-1.06,4.48,0a12.36,12.36,0,0,1,5.61,9.7c0,2.08-.85,3.43-2.17,3.85h0l-.09,0-.41.08-.08,0h0l-10.37,2.26a2.51,2.51,0,0,1-1.81-.39,7.08,7.08,0,0,1-3.2-5.55A2.7,2.7,0,0,1,122.76,344.68Z"/><path class="cls-8" d="M214.37,293.65s0,0,0,0l.18-.11a1.47,1.47,0,0,1,1.31.18,4.45,4.45,0,0,1,2,3.46,1.47,1.47,0,0,1-.46,1.2h0l-.24.13L132,347.68l-5.6-3.24Z"/><path class="cls-9" d="M139.92,343.11,132,347.68l-5.6-3.24,10.7-6.18A13.57,13.57,0,0,1,139.92,343.11Z"/><path class="cls-4" d="M119.94,348.42h0l6.49-7.13a1,1,0,0,1,.17-.19c.72-.72,1.88-.78,3.2,0a8.78,8.78,0,0,1,4,6.86c0,1.46-.59,2.42-1.51,2.73l-.06,0-.26.05-9.52,2.08h0a1.41,1.41,0,0,1-1-.22,4,4,0,0,1-1.81-3.12A1.41,1.41,0,0,1,119.94,348.42Z"/><path class="cls-10" d="M119.94,348.42h0l6.49-7.13a1,1,0,0,1,.17-.19c.72-.72,1.88-.78,3.2,0a8.78,8.78,0,0,1,4,6.86c0,1.46-.59,2.42-1.51,2.73l-.06,0-.26.05-9.52,2.08h0a1.41,1.41,0,0,1-1-.22,4,4,0,0,1-1.81-3.12A1.41,1.41,0,0,1,119.94,348.42Z"/><path class="cls-4" d="M119.58,349.45a4,4,0,0,0,1.81,3.12,1.41,1.41,0,0,0,1,.22h0l4.81-1.05c.76-.16,1.25-.88,1.25-2a6.39,6.39,0,0,0-2.88-5,1.87,1.87,0,0,0-2.31,0l-.13.14-3.21,3.53h0A1.42,1.42,0,0,0,119.58,349.45Z"/><path class="cls-10" d="M121.39,348.41c-1-.58-1.81-.11-1.81,1a4,4,0,0,0,1.81,3.12c1,.58,1.8.11,1.8-1A4,4,0,0,0,121.39,348.41Z"/><path class="cls-11" d="M235.59,281.4a1.37,1.37,0,0,1,1.4.13,4.37,4.37,0,0,1,2,3.44,1.39,1.39,0,0,1-.58,1.29h0l-21,12.1a1.47,1.47,0,0,0,.46-1.2,4.45,4.45,0,0,0-2-3.46,1.47,1.47,0,0,0-1.31-.18Z"/><path class="cls-1" d="M235,282.68a4.42,4.42,0,0,0,2,3.44,1.21,1.21,0,0,0,2-1.15,4.37,4.37,0,0,0-2-3.44,1.21,1.21,0,0,0-2,1.15Z"/><path class="cls-4" d="M239.44,274.19h0l.06,0,.09,0,8.27-4.77.19-.11,0,0h0a3.64,3.64,0,0,1,3.42.42,11.16,11.16,0,0,1,5,8.74,3.52,3.52,0,0,1-1.49,3.27h0l-8.37,4.83,0,0-.05,0h0a3.57,3.57,0,0,1-3.49-.38,11.14,11.14,0,0,1-5-8.74A3.62,3.62,0,0,1,239.44,274.19Z"/><path class="cls-12" d="M239.44,274.19h0l.06,0,.09,0,8.27-4.77.19-.11,0,0h0a3.64,3.64,0,0,1,3.42.42,11.16,11.16,0,0,1,5,8.74,3.52,3.52,0,0,1-1.49,3.27h0l-8.37,4.83,0,0-.05,0h0a3.57,3.57,0,0,1-3.49-.38,11.14,11.14,0,0,1-5-8.74A3.62,3.62,0,0,1,239.44,274.19Z"/><path class="cls-10" d="M242.43,277.39c-2.5-1.23-4.53-.23-4.53,2.24s2,5.46,4.53,6.69,4.53.24,4.53-2.23S244.93,278.63,242.43,277.39Z"/><path class="cls-8" d="M117.29,351.42h0l3.43-2.05h0a.64.64,0,0,1,.67.05,2,2,0,0,1,.92,1.6.63.63,0,0,1-.27.6h0l-3.41,2.06h0a1.24,1.24,0,0,1-.63.17,1.32,1.32,0,0,1-1.32-1.32A1.35,1.35,0,0,1,117.29,351.42Z"/><path class="cls-13" d="M117.1,351.58h0l.18-.14h0a.67.67,0,0,1,.59.11,2,2,0,0,1,.93,1.6.61.61,0,0,1-.27.58l-.06,0-.07,0a1.16,1.16,0,0,1-.42.07,1.31,1.31,0,0,1-1.31-1.32A1.25,1.25,0,0,1,117.1,351.58Z"/></g><g id="Contract"><path class="cls-14" d="M51.08,360.56l-3.49-2a4.41,4.41,0,0,1-2-3.45V96.54a4.39,4.39,0,0,1,2-3.45L208,.48a4.37,4.37,0,0,1,4,0l3.49,2a4.41,4.41,0,0,1,2,3.45V264.5a4.39,4.39,0,0,1-2,3.45L55.07,360.56A4.39,4.39,0,0,1,51.08,360.56Z"/><path class="cls-15" d="M217.44,5.62c-.14-1-1-1.41-2-.83L55.06,97.4a4.08,4.08,0,0,0-1.4,1.48l-7.48-4.31a4.11,4.11,0,0,1,1.41-1.48L208,.48a4.39,4.39,0,0,1,4,0l3.49,2A4.47,4.47,0,0,1,217.44,5.62Z"/><path class="cls-16" d="M54.72,360.72a.38.38,0,0,1-.12,0l-.21.07-.08,0-.37.09h0a4.55,4.55,0,0,1-2.38-.19,3.55,3.55,0,0,1-.44-.21l-3.49-2a4.41,4.41,0,0,1-2-3.45V96.54a4.07,4.07,0,0,1,.58-2l7.48,4.31a4,4,0,0,0-.59,2V359.41a1.68,1.68,0,0,0,.3,1,1,1,0,0,0,1.07.34A1.72,1.72,0,0,0,54.72,360.72Z"/><path class="cls-8" d="M167.36,48.08l-.3-.17L163.75,46a12.7,12.7,0,0,0-3.86-1.37,14.65,14.65,0,0,1-1.54-.42,11.56,11.56,0,0,1-1.46-.6l.25-.3h0l-3.74-2.16h0a3.67,3.67,0,0,0-1-.4c-1.4-.34-3.51.48-5.62.24A5.3,5.3,0,0,1,143,38.72c-1.28-1.72-2.06-4.74-3.19-7.23l1-1.45a2.43,2.43,0,0,0-.32-.18l-3.43-2a3.64,3.64,0,0,0-1.91-.52,7.35,7.35,0,0,0-3.6,1.17c-8.21,4.74-8.48,16-11.45,23.42s-7.14,9.73-9.42,12.92-2.44,5.54-7.49,12.51-5.25,8.66-5.25,10V97.73l3.73,2.15,67.23-38.82Zm-61.64,40c-.88.49-1.6-.18-1.6-1.53a4.23,4.23,0,0,1,1.6-3.37c.87-.5,1.58.19,1.58,1.54A4.22,4.22,0,0,1,105.72,88.07ZM135.25,59a3.38,3.38,0,0,1-5.18-1.58c-2.6.51-4.54-2-4.54-6.33,0-5.1,2.68-10.78,6-12.69a3.38,3.38,0,0,1,5.17,1.58c2.62-.51,4.55,2,4.55,6.34C141.24,51.37,138.56,57,135.25,59Zm22.32-.83c-.87.5-1.58-.18-1.58-1.52a4.21,4.21,0,0,1,1.58-3.36c.89-.5,1.59.18,1.59,1.53A4.15,4.15,0,0,1,157.57,58.12Z"/><path class="cls-17" d="M105.37,89.92l-7.22-4.17a4.84,4.84,0,0,0-.24,1.61V97.73l3.73,2.15,3.73-2.15Z"/><path class="cls-17" d="M112.85,77l3.73-8.63-5.93-3.48h0c-1.75,2.41-2.25,4.36-4.59,8.19Z"/><path class="cls-17" d="M127.79,59.72l.49-2.51c-1.65-.69-2.75-2.92-2.75-6.17,0-4.33,1.94-9.07,4.55-11.57l-5.18-3c-2.21,5-3,11-4.83,15.47a28,28,0,0,1-1.2,2.62Z"/><path class="cls-9" d="M167.36,48.08l-.3-.17a14.48,14.48,0,0,0-3.44-1.12,10.91,10.91,0,0,1-5.27-2.58,7.58,7.58,0,0,0-1.21-.9,3.62,3.62,0,0,0-1-.41c-2.27-.54-6.39,1.93-9.35-1.91a.94.94,0,0,0-.09-.12c-2.07-2.78-2.82-9-5.92-10.83a2.43,2.43,0,0,0-.32-.18c-1.27-.6-2.94-.48-5.21.82-8.21,4.75-8.49,16-11.45,23.42s-7.15,9.73-9.43,12.92-2.43,5.55-7.49,12.51-5.24,8.66-5.24,10V99.88l67.23-38.82V50.7A2.64,2.64,0,0,0,167.36,48.08ZM109.44,90.22c-.87.5-1.58-.18-1.58-1.53a4.24,4.24,0,0,1,1.58-3.37c.88-.5,1.58.19,1.58,1.54A4.19,4.19,0,0,1,109.44,90.22ZM135.25,59a3.38,3.38,0,0,1-5.18-1.58,9.59,9.59,0,0,1-.82-4.18c0-5.1,2.69-10.77,6-12.69a5.25,5.25,0,0,1,1.44-.57c2.62-.51,4.55,2,4.55,6.34C141.24,51.37,138.56,57,135.25,59Zm26.06,1.32c-.89.51-1.59-.17-1.59-1.52a4.12,4.12,0,0,1,1.59-3.35c.87-.51,1.58.17,1.58,1.52A4.2,4.2,0,0,1,161.31,60.27Z"/><path class="cls-13" d="M141.24,46.27c0,5.1-2.68,10.77-6,12.68a3.38,3.38,0,0,1-5.18-1.58,4.41,4.41,0,0,0,1.45-.57c3.32-1.91,6-7.59,6-12.68a9.52,9.52,0,0,0-.82-4.19C139.31,39.42,141.24,41.93,141.24,46.27Z"/><path class="cls-13" d="M109.44,90.21c-.87.51-1.59-.17-1.59-1.52a4.2,4.2,0,0,1,1.59-3.36c.88-.51,1.59.18,1.59,1.53a4.15,4.15,0,0,1-1.59,3.35"/><path class="cls-13" d="M161.3,60.28c-.87.5-1.59-.18-1.59-1.52a4.23,4.23,0,0,1,1.59-3.37c.88-.5,1.59.19,1.59,1.53a4.18,4.18,0,0,1-1.59,3.36"/><path class="cls-1" d="M65.47,121.59,205.06,41a2.65,2.65,0,0,1,2.39,0l1.34.78a2.63,2.63,0,0,1,1.2,2.07V256.79a2.65,2.65,0,0,1-1.2,2.07L69.21,339.45a2.65,2.65,0,0,1-2.39,0l-1.35-.78a2.64,2.64,0,0,1-1.19-2.07V123.66A2.62,2.62,0,0,1,65.47,121.59Z"/><path class="cls-11" d="M209.94,43.48c-.14-.48-.6-.64-1.15-.33L69.21,123.74a2.6,2.6,0,0,0-.85.89l-3.73-2.15a2.35,2.35,0,0,1,.85-.89L205.06,41a2.57,2.57,0,0,1,2.38,0l1.35.77A2.62,2.62,0,0,1,209.94,43.48Z"/><path class="cls-2" d="M68.93,339.57a1.66,1.66,0,0,1-.45.12l-.23,0a2.92,2.92,0,0,1-.72,0,1.5,1.5,0,0,1-.44-.12,1.69,1.69,0,0,1-.27-.12l-1.34-.78a2.61,2.61,0,0,1-1.2-2.07V123.66a2.37,2.37,0,0,1,.35-1.18l3.73,2.15a2.56,2.56,0,0,0-.34,1.18v213C68,339.41,68.4,339.73,68.93,339.57Z"/><path class="cls-8" d="M178.54,71.16,174.83,69a4.06,4.06,0,0,0-3.74.11c-4.34,1.91-6.21,2.78-8.46,3.71-.51.22-1,.43-1.62.66-.87.35-2.63.05-2.09-3l5.77-15.54-.08,0L161,52.78a1.75,1.75,0,0,0-.61-.21,2.46,2.46,0,0,0-.4,0c-2.37-.05-3-15.28-3.06-15.75h0l-.16-.09-3.62-2.08a4,4,0,0,0-2.06-.53,7.61,7.61,0,0,0-3.42,1c-5.68,3-11.41,11.81-12.8,19.74-.89,5-5.92,12.7-8.82,15.53s-3.11,5.21-3.11,5.21l-2.27,12.82-.72,4.1c-.54,3.07-3.67,6-3.67,6l-11.71,8.77c-7.33,6.09-9.4,12.24-10.81,19.84,0,0,0,0,0,.06,0,.26,0,.45.13.52a.12.12,0,0,0,.13,0h0s0,0,0,0l1.5-.85L176,80.35a1.82,1.82,0,0,0,.74-1.12s0,0,0,0,0,0,0,0c.46-2.78,1.8-8,1.8-8ZM155.25,47.62c-.86,4.88-4.37,10.31-7.87,12.14-2.41,1.26-4.17.48-4.75-1.73a2.77,2.77,0,0,1-2.64-.34c-1.13-.89,9.14-18.5,10-18.11a3,3,0,0,1,1.54,2.1C154.39,40.81,156,43.25,155.25,47.62Z"/><path class="cls-17" d="M105.38,115.81l-5.87-3.39c-3.41,4.48-4.78,9.19-5.79,14.66,0,0,0,0,0,.06,0,.26,0,.45.13.52a.12.12,0,0,0,.13,0h0s0,0,0,0h0L98.64,124Z"/><path class="cls-17" d="M119.52,93.77l8.27,4.78L131.53,77l-7.46-4.31a7,7,0,0,0-1.17,2.85l-2.27,12.82-.72,4.1A7,7,0,0,1,119.52,93.77Z"/><path class="cls-17" d="M138.75,44.48a31.76,31.76,0,0,0-3.92,10.3,25.52,25.52,0,0,1-2.93,7.31l7.1,4.1,3.53-8.14a2.74,2.74,0,0,1-2.54-.36c-.58-.46,1.85-5.34,4.47-9.92Z"/><path class="cls-9" d="M178.6,71.19l-.06,0a4.06,4.06,0,0,0-3.71.12c-5.33,2.34-6.94,3.12-10.09,4.37-.85.34-2.55.06-2.11-2.82a1.48,1.48,0,0,1,0-.19l.73-4.1,2-11.18s.46-1.75-.71-2.42l-.08,0a2.17,2.17,0,0,0-.93-.2,4.55,4.55,0,0,1-3.33-2.13,8.37,8.37,0,0,1-1.25-6.39c.85-4.79-.08-8.15-2.21-9.4l-.16-.1c-1.37-.73-3.21-.61-5.37.52-5.67,3-11.4,11.81-12.8,19.74-.88,5-5.91,12.7-8.82,15.54s-3.11,5.2-3.11,5.2L124.37,90.5l-.73,4.1c-.53,3.07-3.68,6-3.68,6l-11.7,8.77A28.26,28.26,0,0,0,98.63,124s-4.38,3.41-4.66,3.68h0s0,0,0,0h0l1.5-.85,80.78-46.44s.93-.51,1.13-.64,3.46-3.2,3.46-3.2C180.72,73.88,180,72,178.6,71.19ZM155.25,47.62c-.86,4.88-4.37,10.31-7.87,12.14-2.41,1.26-4.17.48-4.75-1.73a9.15,9.15,0,0,1,0-3.78c.86-4.88,4.38-10.32,7.88-12.14a6.49,6.49,0,0,1,1-.43C154.39,40.81,156,43.25,155.25,47.62Z"/><path class="cls-13" d="M155.25,47.62c-.86,4.88-4.37,10.31-7.87,12.14-2.41,1.26-4.17.48-4.75-1.73a7,7,0,0,0,1-.43c3.49-1.83,7-7.26,7.87-12.14a9,9,0,0,0,0-3.78C154.39,40.81,156,43.25,155.25,47.62Z"/><path class="cls-13" d="M151.88,41.89h0a1.92,1.92,0,0,1,1.69.82c1.45,2,.06,7.3-.54,9-.84,2.33-6.25,7.8-7.75,7.8a3.62,3.62,0,0,1-2.44-1.56,9.24,9.24,0,0,1,0-3.64c.86-4.82,4.34-10.19,7.77-12a5,5,0,0,1,.95-.41l.32,0m0-.23-.37,0a6.49,6.49,0,0,0-1,.43c-3.5,1.82-7,7.26-7.88,12.14a9.15,9.15,0,0,0,0,3.78,3.9,3.9,0,0,0,2.64,1.69h0c1.62,0,7.07-5.52,7.95-8s2.75-10.1-1.37-10.1Z"/><path class="cls-13" d="M94,127.67l82.29-47.3,1.13-.63c.2-.13,3.46-3.21,3.46-3.21L98.64,124S93.65,127.84,94,127.67Z"/><path class="cls-2" d="M83,160.84v1.87c0,1,.71,1.43,1.59.92l108.9-62.87A3.5,3.5,0,0,0,195,98V96.13c0-1-.71-1.43-1.59-.92L84.55,158.08A3.52,3.52,0,0,0,83,160.84Z"/><path class="cls-2" d="M83,172.14V174c0,1,.71,1.42,1.59.92l108.9-62.87a3.52,3.52,0,0,0,1.59-2.76v-1.88c0-1-.71-1.43-1.59-.92L84.55,169.38A3.53,3.53,0,0,0,83,172.14Z"/><path class="cls-2" d="M83,183.39v1.87c0,1,.71,1.43,1.59.92l108.9-62.87a3.5,3.5,0,0,0,1.59-2.76v-1.87c0-1-.71-1.43-1.59-.92L84.55,180.63A3.52,3.52,0,0,0,83,183.39Z"/><path class="cls-2" d="M83,208.29v1.88c0,1,.71,1.42,1.59.92l108.9-62.87a3.52,3.52,0,0,0,1.59-2.76v-1.88c0-1-.71-1.43-1.59-.92L84.55,205.53A3.53,3.53,0,0,0,83,208.29Z"/><path class="cls-2" d="M83,219.6v1.87c0,1,.71,1.43,1.59.92l108.9-62.86a3.53,3.53,0,0,0,1.59-2.76v-1.88c0-1-.71-1.43-1.59-.92L84.55,216.84A3.52,3.52,0,0,0,83,219.6Z"/><path class="cls-2" d="M83,230.84v1.88c0,1,.71,1.42,1.59.92l108.9-62.87A3.52,3.52,0,0,0,195,168v-1.88c0-1-.71-1.43-1.59-.92L84.55,228.08A3.53,3.53,0,0,0,83,230.84Z"/><path class="cls-2" d="M83,255.75v1.87c0,1,.71,1.43,1.59.92l108.9-62.86a3.53,3.53,0,0,0,1.59-2.76V191c0-1-.71-1.43-1.59-.92L84.55,253A3.52,3.52,0,0,0,83,255.75Z"/><path class="cls-2" d="M83,267.06v1.87c0,1,.71,1.43,1.59.92L193.45,207a3.52,3.52,0,0,0,1.59-2.76v-1.88c0-1-.71-1.42-1.59-.92L84.55,264.3A3.52,3.52,0,0,0,83,267.06Z"/><path class="cls-2" d="M83,278.3v1.87c0,1,.71,1.43,1.59.92l108.9-62.86a3.53,3.53,0,0,0,1.59-2.76v-1.88c0-1-.71-1.43-1.59-.92L84.55,275.54A3.52,3.52,0,0,0,83,278.3Z"/><polygon class="cls-2" points="139 279.81 195.04 247.46 195.04 248.53 139 280.89 139 279.81"/><path class="cls-8" d="M152,263c2.33-1.56,4.93-4.19,4.51-7.3-.26-1.89-1.79-2.62-3.53-2-3.41,1.3-5.57,6.44-6.76,9.54-1,2.71-2.36,7.82,1.7,8.68,4.78,1,8.47-6,9.54-9.63.15-.51-.68-.79-.91-.33-.43.83-3.24,6.3-.15,5.62,1.1-.24,1.74-1.95,2.13-2.82.71-1.56,1.06-3.73,2.16-5.07l-.81-.37c0,1.43,0,2.42,1,3.53a.49.49,0,0,0,.68.12c1.57-1.47,1.69-3.86,3.42-5.19l-.71-.34c0,.45-.2,1.76-.24,2.38,0,.29.4.47.63.39a1.37,1.37,0,0,0,1-.86l-.76-.28c.66,3.52,3.67,0,4.7-1.34,3-4,5.14-8.29,5.23-13.42,0-.41-.77-.61-.78-.12-.07,3.94-1.79,7.55-2.9,11.26a125,125,0,0,0-3,12.22l.71.25a24.52,24.52,0,0,1,2.2-8.41,16.48,16.48,0,0,1,3.78-6.32l-.65-.25a7.18,7.18,0,0,1-1.6,5.82c-.22.27.26.77.47.51,1.1-1.38,2.91-1.82,4.08-3.16a34.73,34.73,0,0,0,3-4.76l-.54-.27c-.07,3.36,3.1-1.88,3.52-2.45l-.52-.19c.21.69.5,1.15,1.28,1.15,1.54,0,2.13-2.25,3.29-2.52a3,3,0,0,0,.7.46,2.87,2.87,0,0,0,1.87-.36,8.68,8.68,0,0,0,3.06-3.41c.18-.32-.43-.72-.64-.37-.76,1.3-3.16,4.74-4.91,3.05-.1-.1-.34-.19-.45-.05-.47.58-3.16,3.66-3.66,2-.06-.21-.35-.42-.52-.2-.41.54-.74,1.14-1.11,1.7-.21.31-1.39,2.29-1.34,1.29,0-.24-.38-.53-.54-.28-1.09,1.67-1.89,3.87-3.41,5.23-1.13,1-2.62,1.38-3.59,2.59l.47.51c1.37-1.75,2.36-4.09,1.82-6.32a.41.41,0,0,0-.65-.25,17,17,0,0,0-3.85,6.46,25.29,25.29,0,0,0-2.25,8.59c0,.31.64.66.72.26a119.56,119.56,0,0,1,3.29-13.17c1.09-3.47,2.59-6.83,2.66-10.53l-.78-.12a19.52,19.52,0,0,1-3.47,10.69c-.57.88-1.16,1.74-1.79,2.57-.29.37-2.77,3.6-3.09,1.72,0-.27-.57-.64-.76-.27l-.72.63.63.39c0-.81.2-1.57.24-2.39,0-.32-.48-.51-.71-.34-1.76,1.36-1.89,3.74-3.49,5.21l.68.12a5.4,5.4,0,0,1-.75-3c0-.35-.54-.7-.81-.37-1.22,1.46-1.6,3.78-2.41,5.49-.44.93-2,3.41-1.49.76a13.07,13.07,0,0,1,1.4-3.1l-.91-.33c-1,3.18-3.45,8-6.88,9-4.39,1.32-3.63-4.11-2.82-6.53a27,27,0,0,1,4.17-7.82,10,10,0,0,1,1.13-1.3c.89-.81,1.16-1,2.4-.3s1.29,1.11.95,2.44a7.28,7.28,0,0,1-.82,1.9,12.37,12.37,0,0,1-2.94,3.14c-.16.13.07.55.26.43Z"/></g><g id="Characters-2" data-name="Characters"><path class="cls-18" d="M286.38,200.62c-3.62-.85-7.6,1.72-9.93,7.41s-7,20.19-8,24c-.43,1.71,12.49,16.77,12,16.55-.15-.07,4.2-7.35,4.2-7.35l-6.27-9.65,3.93-10.48Z"/><path class="cls-13" d="M278,335.43c-.49.18-.61,1.12-.68,3-.06,1.4-.36,3.86,1.29,4.35s4.06.24,5.11-1.09c1.32-1.65,2.21-3.11,4.09-5.13,1.63-1.75,3.4-3.38,4.06-5.84.59-2.22.1-3.18-1.42-3.83-2.08-.89-5.35,2-7,2.47C282.09,329.73,278.53,335.24,278,335.43Z"/><path class="cls-18" d="M278,333.71V336a5.6,5.6,0,0,0,5.77.15c.1-.22.6-3.26.6-3.26Z"/><path class="cls-13" d="M295,347.56a37,37,0,0,0-1,3.72c-.28,1.38-.68,3.68-.2,4.72s2.37,1.71,5.29,1.69c1.89,0,4.84,1.27,6.86,2.39a10.47,10.47,0,0,0,6.56.91c2.6-.3,5.29-1.81,5.71-2.89s-.12-1.59-6.24-4.2c-.06,0-6.47-2.92-9.43-6.19Z"/><path class="cls-18" d="M295,345.09s0,1.69,0,2.66,1.13,2.41,4.09,2.3c2.08-.07,3.53-.63,3.45-2.34v-2.47Z"/><path class="cls-19" d="M275.79,302.06a54.14,54.14,0,0,1,2.78-11.74s-1.28-10.09-2-19.8c-1.34-17.38-.26-23.06,3.15-30.86,0,0,29.18-3,30.07,9.17,1.11,15.1-.36,44.27-.76,49.61s-.9,7.73-2.79,18.88c-1.43,8.48-3.65,27.92-3.65,27.92a8,8,0,0,1-7.54-.15s-2.39-24.28-2.14-30.43a52.67,52.67,0,0,1,2.34-13.44s-1.81-24.6-2.34-28.52c0,0-.91,7.81-1.31,13.14s-2,10.43-3.53,20.34c-1.34,8.59-3.82,27.8-3.82,27.8-3.88,2.09-6.19-.27-6.19-.27S274.74,309.52,275.79,302.06Z"/><g class="cls-20"><path d="M275.79,302.06a54.14,54.14,0,0,1,2.78-11.74s-1.28-10.09-2-19.8c-1.34-17.38-.26-23.06,3.15-30.86,0,0,29.18-3,30.07,9.17,1.11,15.1-.36,44.27-.76,49.61s-.9,7.73-2.79,18.88c-1.43,8.48-3.65,27.92-3.65,27.92a8,8,0,0,1-7.54-.15s-2.39-24.28-2.14-30.43a52.67,52.67,0,0,1,2.34-13.44s-1.81-24.6-2.34-28.52c0,0-.91,7.81-1.31,13.14s-2,10.43-3.53,20.34c-1.34,8.59-3.82,27.8-3.82,27.8-3.88,2.09-6.19-.27-6.19-.27S274.74,309.52,275.79,302.06Z"/></g><polygon class="cls-18" points="301.33 196.7 299.96 207.97 290.05 207.08 291.18 194.56 301.33 196.7"/><path class="cls-3" d="M279.17,206.27c1.09-3,4.79-6.26,8.6-5.56,1,.19,1.87.33,2.8.52.09,2.6,5,3.94,9.86,2.37,1.47.42,2.81.84,4,1.28,3.49,1.25,4.89,7,5,16.74s1.11,33.87,1.11,33.87l-4.08,1.28-1.91-7.07-.77,8.47a30.33,30.33,0,0,1-14.08-.07c-10.48-2.29-13.75-7.94-13.75-7.94a51.07,51.07,0,0,1,7.48-18.33C278.17,217.85,277.55,210.67,279.17,206.27Z"/><path class="cls-13" d="M308.69,182.38a8.68,8.68,0,0,0-.75-8.38c-3.32-5.23-9.74-6.12-17.34-4.08a13.5,13.5,0,0,0-9.51,12.24c-.36,5.58,15.19,9.69,14.83,13.51Z"/><path class="cls-21" d="M309,184.5s2.1,3.38,1.81,3.72a5.16,5.16,0,0,1-1.71.68Z"/><path class="cls-18" d="M302.59,173.78c2.11,1.17,5.75,3.31,6.49,11.2.75,8.11-1.12,10.87-2.25,11.9-.77.7-4.61.85-6.6.18-2.48-.85-7.83-3.68-10.26-7.92-2.86-5-3.31-11.54.22-14A12.91,12.91,0,0,1,302.59,173.78Z"/><path class="cls-13" d="M303.21,174.14s1.67,7.42-.69,12c0,0-1.23-2.91-3.72-2.15s-2.38,4.09-.46,5.84a3.69,3.69,0,0,0,3.83.92,16.67,16.67,0,0,1-3.7,5.6s-7.39,3.29-13.79-3.93c-5.8-6.55-4.72-18,4.17-20.67S303.21,174.14,303.21,174.14Z"/><path class="cls-13" d="M282.15,174.9a1.74,1.74,0,0,1,.18,2.46l-2.64-2.27A1.75,1.75,0,0,1,282.15,174.9Z"/><path class="cls-18" d="M329.54,222.74c1.44-1.65,2-5.3,3.91-7.8s2.61-4.33,3.37-3.24c1,1.44-1.26,4.34-.76,4.63s2.38,4.1,2.57,6.22-5.42,7.44-5.42,7.44Z"/><path class="cls-18" d="M335.91,216s6.78-.59,7.77,0,.69,3.53,0,5.33-4.15,3-7.36,5.14C336.31,226.14,335.91,216,335.91,216Z"/><path class="cls-18" d="M303.59,204.58c2.92,1,5.47,2.19,8.19,7.3,3.49,6.57,9.84,19.43,9.84,19.43l7.92-8.57s1.16-1.63,3.3,1.91,1.2,4.53,1.2,4.53-9.22,12.34-10.91,13.91-4.47.35-6.28-2.12-13.26-16.79-13.26-16.79S297.34,216,303.59,204.58Z"/><path class="cls-22" d="M292.88,272.7l-.55-5.9a22.26,22.26,0,0,1-8.9-3.36s1.89,3,7.09,4.42l.55,7.5.32,12.29Z"/><path class="cls-13" d="M272.11,203h0a10.26,10.26,0,0,0,10.26-10.26V177.16h0a7.85,7.85,0,0,0-10.26,7.47Z"/><path class="cls-2" d="M309.66,231.79s-5.7-7.33-7.51-10.29l7.7,16.28Z"/><path class="cls-23" d="M359.55,171.52c-2.16,6.37-6.77,25.36-6.77,25.36s-8.8,11.7-11.21,13.93c-1.35,1.24-4.38,3.47-4.38,3.47l2.52,1.86s4.21-1.28,4.55,1a129.49,129.49,0,0,0,12.41-11.4,8,8,0,0,0,2-3.67L362.4,186s0-13,2-14.71,1.21-5.54,1.21-5.54C364.25,165.74,361.25,166.52,359.55,171.52Z"/><path class="cls-14" d="M365.7,165.06a37.47,37.47,0,0,0,2.21,5c.89,1.51-5.85,28.66-6.3,30.68s-13.49,13.78-13.49,13.78a9.75,9.75,0,0,1-5.23-5.24l9.43-12.25s2.92-12.87,4.47-18.76S360,165.7,365.7,165.06Z"/><path class="cls-10" d="M365.7,165.06a37.47,37.47,0,0,0,2.21,5c.89,1.51-5.85,28.66-6.3,30.68s-13.49,13.78-13.49,13.78a9.75,9.75,0,0,1-5.23-5.24l9.43-12.25s2.92-12.87,4.47-18.76S360,165.7,365.7,165.06Z"/><rect class="cls-23" x="386.76" y="292.65" width="6.5" height="11.14"/><polygon class="cls-23" points="366.66 295.35 360.16 295.57 359.83 283.79 366.66 283.57 366.66 295.35"/><path class="cls-9" d="M392.35,213.16c0,6.21.43,42.32.43,42.32.15,1.79,1.87,5,2,11.41.2,9.33-1.24,31.33-1.24,31.33a8.57,8.57,0,0,1-7.24.14S381.19,267.25,380,258c-1-8.06-4.52-29.59-4.52-29.59l-5,27.26a37,37,0,0,1,.81,10.34c-.3,4.27-4.26,25.68-4.26,25.68a8.88,8.88,0,0,1-7.51.58s-.39-33.61-.47-37.53c-.08-4.48,1.87-42.94,1.87-42.94Z"/><path class="cls-13" d="M386.76,300.57v-.93c-.35,0-.57.34-.7,1.18-.1.6-.18,1.05-.38,1.84a21.26,21.26,0,0,1-1.14,3.33c-.92,2.27-1.69,3.11-3.79,5.76a24.49,24.49,0,0,0-2,2.32c-.4.7-.54,2.65.13,3.1,2.46,1.63,6.19,1.68,8.83.91a5.36,5.36,0,0,0,3.83-4.31c.09-.6.06-1.21.13-1.81a8.5,8.5,0,0,1,1.62-3.78,10.89,10.89,0,0,0,1.25-2.06c.55-1.34.11-2.84-.24-4.17-.3-1.15-.63-2.42-1-2.31v.71a5.18,5.18,0,0,1-3.25,1.1C389.06,301.49,386.75,301.3,386.76,300.57Z"/><path class="cls-13" d="M360.09,293.57c-.34,0-.62.49-1.36,1.29a14.08,14.08,0,0,1-3.83,2.76c-2.43,1.22-7.17,3.09-9.31,4.06-1.34.6-1.28,2.22.11,3.14s4.72,1.58,8.73.68c2.19-.48,5-2.5,6.84-2.39s5.17.08,6.5-.84.79-2.87.42-4.55c-.41-1.84-.93-4.7-1.53-4.57v.63c-.78,1.18-4.82,1.66-6.54.79Z"/><path class="cls-13" d="M375.5,228.42a24.15,24.15,0,0,1-9.06-5.2s1.75,3.27,6.94,6.32l-2.51,24.25Z"/><path class="cls-1" d="M381.07,165.5c2.21.53,6.67,1.26,7.67,5.67,1.21,5.3,1.6,16.83,1.6,16.83l.41,25.66c-4.48,3.26-20.93,5-30.36-1.85,0,0,1.15-30.81,1.15-35.6s2.67-10.56,10-11Z"/><path class="cls-14" d="M371.67,164.73a13.15,13.15,0,0,0-4.21,6.5c-.89,3.88-1,47.21-1,47.21s-4.59-.85-6.75-2.54c0,0,.28-34.21.72-39.86.66-8.58.59-11,11.27-11.95Z"/><path class="cls-14" d="M383,164.09s-6.13,3.77-6.2,18.78c-.06,13-.49,35.57-.49,35.57s10.15,1.49,16.58-2.35c0,0,.76-31.46.64-36.33-.14-5.58-1.45-12.79-3.23-13.51A51.48,51.48,0,0,0,383,164.09Z"/><path class="cls-23" d="M405.81,198.55c-6.1-25-10.61-33.26-18-33.17-2.16,2.59-1.56,10.4,1.86,15.14,0,0,7.62,16.09,8.84,21.81,1.07,5,2.28,11.35,2.2,15.67a3.1,3.1,0,0,1-.85,2.05c-1.39,1.51-1.39,2.72-2.3,4.39-.7,1.31-1.48,1.8-1.25,2.09a1.68,1.68,0,0,0,2.28.17A8.62,8.62,0,0,0,400.3,225a17.24,17.24,0,0,1-1.38,4.63c-1.56,3.52-1.18,5.33,3.58,4.07,3-.79,4.86-3.28,5.31-10.45a55.91,55.91,0,0,0,.08-7.94C407.25,208.54,406.79,202.56,405.81,198.55Z"/><path class="cls-14" d="M386.51,165s4.92-.23,7.58,2.46,6.25,8.35,9.73,20.73,4.54,21.4,4.72,28.37c0,0-4.36,2-8.38-.29,0,0-1.78-10.76-3.36-16.49s-7.47-17.8-7.47-17.8S383.69,173.59,386.51,165Z"/><path class="cls-10" d="M386.51,165s4.92-.23,7.58,2.46,6.25,8.35,9.73,20.73,4.54,21.4,4.72,28.37c0,0-4.36,2-8.38-.29,0,0-1.78-10.76-3.36-16.49s-7.47-17.8-7.47-17.8S383.69,173.59,386.51,165Z"/><polygon class="cls-10" points="383.69 172.29 380.89 175.77 382.29 179.72 378.6 189.18 383.05 179.72 381.49 175.99 383.69 172.29"/><polygon class="cls-10" points="363.89 171.18 364.5 174.77 362.07 177.93 365.45 188.58 362.83 178.05 365.08 175.09 363.89 171.18"/><circle class="cls-13" cx="370.54" cy="144.12" r="8.94" transform="translate(168.93 486.79) rotate(-80.78)"/><path class="cls-13" d="M386,150.48s-1.45,6.8-2,7.92a3.08,3.08,0,0,1-1.78,1.44l.1-4.79Z"/><path class="cls-13" d="M384.18,140.73a3.34,3.34,0,0,1,2.77,1c1.2,1.22.53,5-.95,8.78l-2.73.31Z"/><path class="cls-23" d="M382.45,150.79c.55.33,1.33-.72,2-1.43a2.38,2.38,0,0,1,4,.65c1.12,2.36-1,5.48-2.71,6-3,.94-3.43-1-3.43-1l-.22,11.11h0c-2.07,2.65-6.71,5.76-9.21,5.32-2-.36-2.43-3.73-.52-5.93v-3.29a18.35,18.35,0,0,1-4,.21c-2.19-.34-3.58-2.07-4.24-4.45-1.07-3.82-1.48-6.91-.57-14.42,1-8.24,10.57-8.33,15.75-5.07S382.45,150.79,382.45,150.79Z"/><path class="cls-13" d="M382.45,151.71c.27,0,1.32-1.73,2-2.35.95-.86-.27-8.63-.27-8.63a3.77,3.77,0,0,0-.65-4.2c-1.29-1.42-3.1-3.16-9-2.47-4.19.5-8.74,1.8-12.42,0a6.26,6.26,0,0,0,2.18,6.64,12.66,12.66,0,0,0,4.84,1.29,51.46,51.46,0,0,0,9.7-.19c1-.13,1.23.85,1.78,3.54C381.13,147.7,381.52,151.7,382.45,151.71Z"/><path class="cls-13" d="M384.17,141.33l3.31-1.77a1.82,1.82,0,0,0-2.5-.83A2,2,0,0,0,384.17,141.33Z"/><path class="cls-24" d="M372.34,162.26s4.91-1,6.62-1.9a5.66,5.66,0,0,0,2.38-2.34,8,8,0,0,1-1.35,2.77c-1.26,1.6-7.65,2.78-7.65,2.78Z"/><path class="cls-13" d="M373.52,149.57a1,1,0,1,0,1-1A1,1,0,0,0,373.52,149.57Z"/><path class="cls-13" d="M374.57,145.86l2.1,1.16a1.27,1.27,0,0,0-.49-1.68A1.17,1.17,0,0,0,374.57,145.86Z"/><path class="cls-24" d="M372.79,156.36l-2.25.84a1.18,1.18,0,0,0,1.53.74A1.25,1.25,0,0,0,372.79,156.36Z"/><path class="cls-13" d="M364.76,146.67l1.91-1.47a1.15,1.15,0,0,0-1.66-.26A1.26,1.26,0,0,0,364.76,146.67Z"/><path class="cls-13" d="M365.35,149.29a1,1,0,1,0,1-1A1,1,0,0,0,365.35,149.29Z"/><polygon class="cls-24" points="370.36 148.35 370.03 154.27 366.94 153.22 370.36 148.35"/><path class="cls-14" d="M369.29,170.8c.6,1.43,1.71,2,3.73,2.24a7.46,7.46,0,0,0,5.58-1.94l-2.51-2.5-3.18,2.4-.27-2.67Z"/><path class="cls-10" d="M369.29,170.8c.6,1.43,1.71,2,3.73,2.24a7.46,7.46,0,0,0,5.58-1.94l-2.51-2.5-3.18,2.4-.27-2.67Z"/><path class="cls-14" d="M370.87,170a6.58,6.58,0,0,0-.33,2.68,4.52,4.52,0,0,0,.89,2.24,2.46,2.46,0,0,0,2.17.24,5.9,5.9,0,0,0,2.06-4.49l-2.75.31Z"/><path class="cls-14" d="M371.43,174.94s-3.26,18-3.39,19.47,1.87,6.62,3.12,6.67,3.68-4.64,3.72-6-1.28-19.94-1.28-19.94Z"/><path class="cls-10" d="M373.6,175.18a2.18,2.18,0,0,1-2.17-.24l-.05.29a2.5,2.5,0,0,0,2.26.44Z"/><path class="cls-2" d="M372.91,171l9.2-7,0-2.08s2.14.82,2.62,4.59a16.28,16.28,0,0,1-7.17,7.63l-1.94-3.44Z"/><path class="cls-2" d="M372.34,162.87a4.57,4.57,0,0,0-3,1.82c-.92,1.52-.71,7.33-.71,7.33l2.2-2,2,1c-.2-1.93-.57-5.45-.57-5.45Z"/><path class="cls-23" d="M336.45,226.52a8,8,0,0,0,1.46-4.11c.25-1.89,5.44-3.92,5.6-2.51s.64,2.58-.95,4.28S338.83,227.78,336.45,226.52Z"/><path class="cls-23" d="M336.68,214.31c-1.23,1.6-2,4.71-2.66,5.75s-1.43,2,0,2.16,3.53-2.61,4.32-4.31a4.5,4.5,0,0,1,1.34-1.72,2.79,2.79,0,0,1,.75-.44c-.68-.23-.32-2.93-.8-3.3C339.63,212.45,337.19,213.44,336.68,214.31Z"/></g></g></g></svg>