<?xml version="1.0"?>
<svg xmlns="http://www.w3.org/2000/svg" xmlns:xlink="http://www.w3.org/1999/xlink" version="1.1" id="Capa_1" x="0px" y="0px" width="512px" height="512px" viewBox="0 0 799 799" style="enable-background:new 0 0 799 799;" xml:space="preserve"><g><g>
	<path d="M564.972,446.782c-0.327-0.863-0.649-1.706-0.978-2.566c9.793-16.234,20.873-33.603,32.17-51.302   c69.811-109.355,156.67-245.426,67.439-312.08c-33.363-24.931-68.66-34.033-104.979-26.985   c-40.986,7.926-75.48,35.104-99.762,60.349c-2.357-32.414-1.148-66.578,4.465-104.741L399.502,0L335.68,9.457   c5.61,38.167,6.816,72.33,4.457,104.747c-24.28-25.247-58.778-52.429-99.781-60.354c-36.289-7.048-71.612,2.055-104.963,26.985   c-89.231,66.653-2.357,202.724,67.428,312.08c11.301,17.702,22.387,35.067,32.182,51.304c-0.327,0.858-0.651,1.702-0.979,2.564   c-70.919,186.75,106.375,295.479,106.375,295.479L262.393,799h137.109h137.105l-78.01-56.736   C458.597,742.264,635.891,633.532,564.972,446.782z M226.725,377.648C163.263,278.196,84.252,154.44,152.374,103.55   c26.651-19.906,54.408-27.301,82.523-21.87c43.521,8.373,80.011,44.937,100.792,70.42   c-12.854,79.599-46.604,153.673-87.838,258.873C241.133,400.217,234.029,389.087,226.725,377.648z M564.113,81.68   c28.116-5.431,55.859,1.963,82.509,21.87c68.123,50.89-10.887,174.646-74.367,274.1c-7.299,11.438-14.395,22.563-21.112,33.317   c-41.229-105.193-74.979-179.267-87.829-258.864C484.094,126.618,520.583,90.053,564.113,81.68z" data-original="#000000" class="active-path" data-old_color="#000000" fill="#663387"/>
</g></g> </svg>
