<svg xmlns="http://www.w3.org/2000/svg" viewBox="0 0 153.03 61.56"><defs><style>.cls-1{fill:#4f4f4f;}.cls-2{fill:#292929;}.cls-10,.cls-11,.cls-12,.cls-2,.cls-5,.cls-6,.cls-7,.cls-8,.cls-9{fill-rule:evenodd;}.cls-3{fill:#cdf2fa;}.cls-4{fill:#a6d5e0;}.cls-5{fill:#f1cf30;}.cls-6{fill:#f3e635;}.cls-7{fill:#608a0c;}.cls-8{fill:#4b6b0a;}.cls-9{fill:#e3e3e3;}.cls-10{fill:#f0f0f0;}.cls-11{fill:#1c1c1c;}.cls-12{fill:#3b3b3b;}</style></defs><title>funeral_1</title><g id="Capa_2" data-name="Capa 2"><g id="Layer_1" data-name="Layer 1"><rect class="cls-1" x="6.78" y="20.48" width="1.93" height="6.95" rx="0.96"/><path class="cls-2" d="M7.75,27.43a1,1,0,0,0,1-1v-5a1,1,0,0,0-1-1Z"/><rect class="cls-3" y="25.73" width="15.49" height="35.11"/><rect class="cls-4" x="7.75" y="25.73" width="7.74" height="35.11"/><path class="cls-5" d="M2.66,12.09C4.7,8.56,11.27,7.65,11.14,0,17.19,6.61,20,21.28,7.68,23.87,5.07,24.41-.32,17.25,2.66,12.09Z"/><path class="cls-6" d="M5.79,15.31c1.42-2.19,5.21-2.25,6.48-7.14,2.2,6.09.71,12.61-4.64,13.73C6.5,22.14,3.92,18.19,5.79,15.31Z"/><polygon class="cls-7" points="142.02 22.76 129.31 48.2 131.91 61.56 129.86 61.51 128.03 50.43 127.94 50.43 125.5 61.4 123.45 61.34 126.72 48.13 115.3 22.09 117 21.35 127.83 46.05 128.08 45.59 128.3 46.06 140.36 21.93 142.02 22.76"/><polygon class="cls-8" points="142.02 22.76 129.31 48.2 131.91 61.56 129.86 61.51 127.94 50.92 128.08 45.59 128.3 46.06 140.36 21.93 142.02 22.76"/><path class="cls-9" d="M143.56,22.65A4.77,4.77,0,0,0,153,22a4.77,4.77,0,0,0-9.46.69Z"/><path class="cls-9" d="M140.69,20.17a4.53,4.53,0,0,0,3.94-5,4.32,4.32,0,1,0-8.57.62A4.54,4.54,0,0,0,140.69,20.17Z"/><path class="cls-9" d="M137.39,24a4.76,4.76,0,0,0-9.45.69,4.76,4.76,0,0,0,9.45-.69Z"/><path class="cls-9" d="M140.26,26.46a4.54,4.54,0,0,0-3.94,5,4.32,4.32,0,1,0,8.57-.62A4.54,4.54,0,0,0,140.26,26.46Z"/><path class="cls-10" d="M142.5,25.07a4.77,4.77,0,0,0,7.18,6.2,4.77,4.77,0,0,0-7.18-6.2Z"/><path class="cls-10" d="M138.45,21.56a4.54,4.54,0,0,0-.78-6.35,4.55,4.55,0,0,0-6.4.15,4.54,4.54,0,0,0,.78,6.35A4.54,4.54,0,0,0,138.45,21.56Z"/><path class="cls-10" d="M142.23,21.29a4.54,4.54,0,0,0,6.35-.78,4.54,4.54,0,0,0-.15-6.4,4.54,4.54,0,0,0-6.35.78A4.55,4.55,0,0,0,142.23,21.29Z"/><path class="cls-10" d="M138.72,25.35a4.53,4.53,0,0,0-6.35.77,4.55,4.55,0,0,0,.15,6.4,4.54,4.54,0,0,0,6.35-.78A4.53,4.53,0,0,0,138.72,25.35Z"/><path class="cls-5" d="M143,20.39a3.87,3.87,0,1,1-5.46.39A3.87,3.87,0,0,1,143,20.39Z"/><path class="cls-9" d="M119.89,22.06a4.77,4.77,0,0,0,9.46-.69,4.77,4.77,0,0,0-9.46.69Z"/><path class="cls-9" d="M117,19.58a4.54,4.54,0,0,0,3.94-5,4.31,4.31,0,1,0-8.56.62A4.54,4.54,0,0,0,117,19.58Z"/><path class="cls-9" d="M113.73,23.39a4.77,4.77,0,0,0-9.46.69,4.77,4.77,0,0,0,9.46-.69Z"/><path class="cls-9" d="M116.6,25.87a4.53,4.53,0,0,0-3.94,5,4.31,4.31,0,1,0,8.56-.62A4.54,4.54,0,0,0,116.6,25.87Z"/><path class="cls-10" d="M118.84,24.48a4.54,4.54,0,0,0,.78,6.35,4.53,4.53,0,0,0,6.39-.15,4.76,4.76,0,0,0-7.17-6.2Z"/><path class="cls-10" d="M114.78,21a4.54,4.54,0,0,0-.78-6.35,4.53,4.53,0,0,0-6.39.15,4.54,4.54,0,0,0,.78,6.35A4.53,4.53,0,0,0,114.78,21Z"/><path class="cls-10" d="M118.57,20.69a4.52,4.52,0,0,0,6.34-.77,4.54,4.54,0,0,0-.14-6.4,4.54,4.54,0,0,0-6.35.78A4.53,4.53,0,0,0,118.57,20.69Z"/><path class="cls-10" d="M115.06,24.75a4.54,4.54,0,0,0-6.35.78,4.53,4.53,0,0,0,.15,6.39,4.53,4.53,0,0,0,6.35-.77A4.55,4.55,0,0,0,115.06,24.75Z"/><path class="cls-5" d="M119.34,19.79a3.87,3.87,0,1,1-5.46.4A3.88,3.88,0,0,1,119.34,19.79Z"/><polygon class="cls-11" points="126.64 48.16 130.12 48.05 137.47 58.68 133.42 59.98 126.64 48.16"/><polygon class="cls-2" points="129.39 48.04 125.52 47.94 117.54 58.47 121.91 59.79 129.39 48.04"/><path class="cls-12" d="M125.84,44.31,120.34,42c-1.1-.48-2.21.93-2.24,2.13l-.16,6.49c0,1.2,1,2.66,2.13,2.24l5.61-2.08c1.13-.41,2.22-.93,2.25-2.13l0-2C128,45.35,127,44.78,125.84,44.31Z"/><path class="cls-2" d="M130.37,44.42,136,42.35c1.13-.42,2.17,1,2.14,2.24L138,51.08c0,1.2-1.13,2.61-2.24,2.13l-5.5-2.35c-1.11-.48-2.17-1-2.13-2.25l0-2C128.16,45.36,129.24,44.84,130.37,44.42Z"/><rect class="cls-1" x="124.16" y="43.56" width="7.74" height="7.74" rx="1.49" transform="matrix(0.02, -1, 1, 0.02, 77.42, 174.23)"/><path class="cls-12" d="M128.13,43.56l2.38.06A1.49,1.49,0,0,1,132,45.14l-.12,4.77a1.49,1.49,0,0,1-1.52,1.45l-2.39-.06Z"/></g></g></svg>