<?xml version="1.0" encoding="iso-8859-1"?>
<!-- Generator: Adobe Illustrator 19.0.0, SVG Export Plug-In . SVG Version: 6.00 Build 0)  -->
<svg xmlns="http://www.w3.org/2000/svg" xmlns:xlink="http://www.w3.org/1999/xlink" version="1.1" id="Layer_1" x="0px" y="0px" viewBox="0 0 511.492 511.492" style="enable-background:new 0 0 511.492 511.492;" xml:space="preserve" width="512" height="512">
<g>
	<g>
		<g>
			<path style="fill:#8EA0A5;" d="M471.035,287.896H278.012c-5.011,0-9.073-4.062-9.073-9.073V178.604l105.488-85.773l105.68,85.773     v100.219C480.108,283.834,476.046,287.896,471.035,287.896z"/>
		</g>
		<path style="fill:#BA6746;" d="M497.958,166.492L388.112,78.841l0.046-33.355h7.564c2.725,0,4.933-2.209,4.933-4.933V23.145    c0-2.725-2.209-4.933-4.933-4.933h-7.526l0.018-13.247c0.004-2.725-2.202-4.936-4.927-4.94L365.879,0    c-2.725-0.004-4.936,2.202-4.94,4.926l-0.018,13.285h-7.595c-2.725,0-4.933,2.209-4.933,4.933v17.408    c0,2.725,2.209,4.933,4.933,4.933h7.557l-0.046,33.253l-109.759,87.762c-6.166,4.931-7.168,13.927-2.237,20.094    c4.931,6.167,13.927,7.168,20.094,2.238l105.48-84.341l105.71,84.35c2.633,2.102,5.781,3.122,8.908,3.122    c4.199,0,8.361-1.842,11.183-5.38C505.14,180.412,504.129,171.417,497.958,166.492z"/>
		<path style="fill:#965028;" d="M400.655,287.896h-53.071v-74.519c0-14.563,11.805-26.368,26.368-26.368h0.335    c14.563,0,26.368,11.805,26.368,26.368V287.896z"/>
	</g>
	<g>
		<g>
			<path style="fill:#64822D;" d="M193.757,251.522c-3.754,0-6.797-3.043-6.797-6.797v-103.47c0-3.754,3.043-6.797,6.797-6.797     s6.797,3.043,6.797,6.797v103.47C200.554,248.479,197.511,251.522,193.757,251.522z"/>
		</g>
		<g id="XMLID_3109_">
			<path style="fill:#FFB69E;" d="M33.315,510.871c-12.301-2.912-19.914-15.245-17.002-27.547l20.621-87.11v-90.578     c0-12.642,10.248-22.89,22.89-22.89s22.89,10.248,22.89,22.89v93.25c0,1.775-0.206,3.545-0.615,5.273l-21.236,89.71     C57.949,506.174,45.61,513.785,33.315,510.871z"/>
		</g>
		<g id="XMLID_3108_">
			<path style="fill:#FFB69E;" d="M106.879,489.571l-4.007-94.07l-22.254-84.003c-3.237-12.22,4.044-24.751,16.265-27.988     c12.221-3.235,24.751,4.045,27.987,16.265l22.891,86.406c0.424,1.598,0.672,3.236,0.743,4.888l4.113,96.554     c0.538,12.63-9.265,23.305-21.895,23.843C118.097,512.009,107.417,502.202,106.879,489.571z"/>
		</g>
		<path id="XMLID_3107_" style="fill:#373C41;" d="M128.629,147.067c-2.136-11.673-11.601-20.11-22.601-20.11    c-14.167,0-24.13,0-39.854,0c-11.023,0-20.461,8.413-22.601,20.11L8.345,339.599c-1.206,6.593,3.492,12.666,9.609,12.666    c29.773,0,106.542,0,136.294,0c6.175,0,10.809-6.11,9.609-12.666L128.629,147.067z"/>
		<circle id="XMLID_3106_" style="fill:#FFB69E;" cx="86.101" cy="72.736" r="39.533"/>
		<g id="XMLID_3095_">
			<path style="fill:#FFB69E;" d="M118.108,217.837l-45.892-52.306c-6.526-7.437-5.787-18.756,1.651-25.281     c7.437-6.525,18.754-5.786,25.281,1.652l38.882,44.316l59.473-13.317c9.658-2.165,19.235,3.912,21.396,13.567     c2.162,9.655-3.912,19.234-13.567,21.396l-69.845,15.64C129.123,224.93,122.446,222.782,118.108,217.837z"/>
		</g>
		<g id="XMLID_238_">
			<path style="fill:#50555A;" d="M177.019,177.487l-38.988,8.73l-38.882-44.316c-6.527-7.438-17.844-8.176-25.281-1.652     c-7.438,6.526-8.177,17.844-1.651,25.281l45.892,52.306c4.336,4.943,11.012,7.094,17.38,5.667l49.633-11.114L177.019,177.487z"/>
		</g>
		<path style="fill:#FA503C;" d="M193.757,150.42L193.757,150.42c12.32,0,22.308-9.988,22.308-22.308v-24.258    c0-2.398-2.738-3.767-4.657-2.328l-15.905,11.929c-1.035,0.776-2.458,0.776-3.493,0l-15.905-11.929    c-1.919-1.439-4.657-0.07-4.657,2.328v24.258C171.449,140.432,181.437,150.42,193.757,150.42z"/>
	</g>
</g>















</svg>
