<svg xmlns="http://www.w3.org/2000/svg" viewBox="0 0 656 569.28"><defs><style>.cls-1{fill:#663387;}</style></defs><title>tarjeta</title><g id="Capa_2" data-name="Capa 2"><g id="_Layer_" data-name="&lt;Layer&gt;"><path class="cls-1" d="M518.63,223.34H45.14A45.14,45.14,0,0,0,0,268.48V524.14a45.14,45.14,0,0,0,45.14,45.14H518.63a45.13,45.13,0,0,0,45.13-45.14V268.48A45.13,45.13,0,0,0,518.63,223.34ZM130.25,483H55.33a14.18,14.18,0,0,1,0-28.36h74.92a14.18,14.18,0,0,1,0,28.36ZM145.8,382a19.31,19.31,0,0,1-19.3,19.31H59.09A19.31,19.31,0,0,1,39.78,382V326.14a19.3,19.3,0,0,1,19.31-19.3H126.5a19.3,19.3,0,0,1,19.3,19.3ZM256.31,483H181.39a14.18,14.18,0,0,1,0-28.36h74.92a14.18,14.18,0,0,1,0,28.36Zm126.06,0H307.45a14.18,14.18,0,0,1,0-28.36h74.92a14.18,14.18,0,0,1,0,28.36Zm126.06,0H433.52a14.18,14.18,0,0,1,0-28.36h74.91a14.18,14.18,0,0,1,0,28.36Zm0-154.65H371.19a14.18,14.18,0,0,1,0-28.36H508.43a14.18,14.18,0,0,1,0,28.36Z"/><path class="cls-1" d="M656,45.14A45.14,45.14,0,0,0,610.85,0H137.36A45.13,45.13,0,0,0,92.23,45.14V83.28H656Z"/><path class="cls-1" d="M92.21,146v63.15h332A20.29,20.29,0,0,1,444.3,192H547.12a20.33,20.33,0,0,1,20.3,20.33v22.55a58.8,58.8,0,0,1,10.52,33.63v77.46h32.92A45.15,45.15,0,0,0,656,300.8V146Z"/></g></g></svg>