<?xml version="1.0" encoding="iso-8859-1"?>
<!-- Generator: Adobe Illustrator 19.0.0, SVG Export Plug-In . SVG Version: 6.00 Build 0)  -->
<svg xmlns="http://www.w3.org/2000/svg" xmlns:xlink="http://www.w3.org/1999/xlink" version="1.1" id="Layer_1" x="0px" y="0px" viewBox="0 0 511.275 511.275" style="enable-background:new 0 0 511.275 511.275;" xml:space="preserve" width="512" height="512">
<g>
	<g>
		<rect x="76.964" y="64.096" style="fill:#965028;" width="419.597" height="126.096"/>
		<path style="fill:#965028;" d="M465.72,6.423H107.805c-6.887,0-13.026,4.342-15.32,10.837L76.964,61.21h419.597L481.04,17.26    C478.746,10.766,472.607,6.423,465.72,6.423z"/>
		<g>
			<path style="fill:#BA6746;" d="M496.764,75.721H76.76c-8.014,0-14.511-6.497-14.511-14.511s6.497-14.511,14.511-14.511h420.004     c8.014,0,14.511,6.497,14.511,14.511S504.778,75.721,496.764,75.721z"/>
		</g>
		<g>
			<path style="fill:#BA6746;" d="M496.561,204.703H76.964c-8.014,0-14.511-6.497-14.511-14.511s6.497-14.511,14.511-14.511h419.597     c8.014,0,14.511,6.497,14.511,14.511S504.575,204.703,496.561,204.703z"/>
		</g>
	</g>
	<g>
		<g>
			<path style="fill:#32363B;" d="M13.096,503.251C2.298,498.801-2.849,486.441,1.6,475.643l35.233-85.517l2.663-63.649     c0.489-11.668,10.362-20.717,22.012-20.244c11.669,0.488,20.732,10.344,20.244,22.012l-2.819,67.374     c-0.103,2.464-0.636,4.891-1.576,7.171l-36.654,88.964C36.277,502.498,23.946,507.721,13.096,503.251z"/>
		</g>
		<g>
			<path style="fill:#272A2E;" d="M107.667,504.386c-11.426-2.42-18.726-13.643-16.307-25.069l19.502-92.091l-26.171-71.356     c-4.022-10.965,1.607-23.113,12.571-27.135c10.965-4.023,23.113,1.607,27.135,12.571l28.266,77.067     c1.369,3.732,1.658,7.774,0.835,11.662l-20.763,98.043C130.315,499.506,119.092,506.804,107.667,504.386z"/>
		</g>
		<path style="fill:#373C41;" d="M132.81,327.361H39.47V200.779c0-13.626,11.046-24.672,24.672-24.672h43.997    c13.626,0,24.672,11.046,24.672,24.672V327.361z"/>
		<circle style="fill:#FFB69E;" cx="86.332" cy="128.214" r="36.522"/>
		<g>
			<path style="fill:#50555A;" d="M63.546,216.13c-6.523-7.649-5.611-19.136,2.037-25.659l62.969-53.705l-3.599-72.921     c-0.495-10.04,7.241-18.581,17.282-19.076c10.032-0.496,18.581,7.241,19.076,17.282l4.04,81.859     c0.278,5.637-2.074,11.084-6.368,14.746l-69.779,59.511C81.557,224.691,70.068,223.777,63.546,216.13z"/>
		</g>
		<g>
			<path style="fill:#FFB69E;" d="M162.1,78.035l-0.789-15.984c-0.495-10.04-9.044-17.777-19.076-17.282     c-10.04,0.495-17.777,9.036-17.282,19.076l0.776,15.731L162.1,78.035z"/>
		</g>
	</g>
	<g>
		<g>
			<path style="fill:#32363B;" d="M174.593,503.251c-10.798-4.449-15.946-16.81-11.496-27.607l35.233-85.517l2.663-63.649     c0.489-11.668,10.362-20.717,22.012-20.244c11.669,0.488,20.732,10.344,20.244,22.012l-2.819,67.374     c-0.103,2.464-0.636,4.891-1.576,7.171L202.2,491.754C197.773,502.498,185.442,507.721,174.593,503.251z"/>
		</g>
		<g>
			<path style="fill:#272A2E;" d="M269.163,504.386c-11.426-2.42-18.726-13.643-16.307-25.069l19.502-92.091l-26.171-71.356     c-4.022-10.965,1.607-23.113,12.571-27.135c10.965-4.023,23.113,1.607,27.135,12.571l28.266,77.067     c1.369,3.732,1.658,7.774,0.835,11.662l-20.763,98.043C291.811,499.506,280.588,506.804,269.163,504.386z"/>
		</g>
		<path style="fill:#373C41;" d="M294.307,327.361h-93.34V200.779c0-13.626,11.046-24.672,24.672-24.672h43.997    c13.626,0,24.672,11.046,24.672,24.672V327.361z"/>
		<circle style="fill:#80391B;" cx="247.828" cy="128.214" r="36.522"/>
		<g>
			<path style="fill:#50555A;" d="M225.042,216.13c-6.523-7.649-5.611-19.136,2.037-25.659l62.969-53.705l-3.599-72.921     c-0.495-10.04,7.241-18.581,17.282-19.076c10.032-0.496,18.581,7.241,19.076,17.282l4.04,81.859     c0.278,5.637-2.074,11.084-6.368,14.746l-69.779,59.511C243.053,224.691,231.565,223.777,225.042,216.13z"/>
		</g>
		<g>
			<path style="fill:#80391B;" d="M323.597,78.035l-0.789-15.984c-0.495-10.04-9.044-17.777-19.076-17.282     c-10.04,0.495-17.777,9.036-17.282,19.076l0.776,15.731L323.597,78.035z"/>
		</g>
	</g>
	<g>
		<g>
			<path style="fill:#32363B;" d="M339.405,503.251c-10.798-4.449-15.946-16.81-11.496-27.607l35.233-85.517l2.663-63.649     c0.489-11.668,10.362-20.717,22.012-20.244c11.669,0.488,20.732,10.344,20.244,22.012l-2.819,67.374     c-0.103,2.464-0.636,4.891-1.576,7.171l-36.654,88.964C362.585,502.498,350.254,507.721,339.405,503.251z"/>
		</g>
		<g>
			<path style="fill:#272A2E;" d="M433.975,504.386c-11.426-2.42-18.726-13.643-16.307-25.069l19.502-92.091L411,315.871     c-4.022-10.965,1.607-23.113,12.571-27.135c10.965-4.023,23.113,1.607,27.135,12.571l28.266,77.067     c1.369,3.732,1.658,7.774,0.835,11.662l-20.762,98.043C456.623,499.506,445.4,506.804,433.975,504.386z"/>
		</g>
		<path style="fill:#373C41;" d="M459.119,327.361h-93.34V200.779c0-13.626,11.046-24.672,24.672-24.672h43.997    c13.626,0,24.672,11.046,24.672,24.672V327.361z"/>
		<circle style="fill:#FFB69E;" cx="412.64" cy="128.214" r="36.522"/>
		<g>
			<path style="fill:#50555A;" d="M389.854,216.13c-6.523-7.649-5.611-19.136,2.037-25.659l62.969-53.705l-3.599-72.921     c-0.495-10.04,7.241-18.581,17.282-19.076c10.032-0.496,18.581,7.241,19.076,17.282l4.04,81.859     c0.278,5.637-2.074,11.084-6.368,14.746l-69.779,59.511C407.865,224.691,396.377,223.777,389.854,216.13z"/>
		</g>
		<g>
			<path style="fill:#FFB69E;" d="M488.409,78.035l-0.789-15.984c-0.495-10.04-9.044-17.777-19.076-17.282     c-10.04,0.495-17.777,9.036-17.282,19.076l0.776,15.731L488.409,78.035z"/>
		</g>
	</g>
</g>















</svg>
