<?xml version="1.0"?>
<svg xmlns="http://www.w3.org/2000/svg" xmlns:xlink="http://www.w3.org/1999/xlink" version="1.1" id="Capa_1" x="0px" y="0px" viewBox="0 0 300.629 300.629" style="enable-background:new 0 0 300.629 300.629;" xml:space="preserve" width="512px" height="512px" class="hovered-paths"><g><g>
	<path d="M267.35,148.306h-11.064v141.623h11.064c18.379,0,33.279-14.9,33.279-33.281v-75.063   C300.629,163.206,285.729,148.306,267.35,148.306z" data-original="#000000" class="hovered-path active-path" data-old_color="#000000" fill="#663387"/>
	<path d="M0,181.585v75.063c0,18.381,14.898,33.281,33.279,33.281h11.063V148.306H33.279C14.898,148.306,0,163.206,0,181.585z" data-original="#000000" class="hovered-path active-path" data-old_color="#000000" fill="#663387"/>
	<path d="M114.408,186.02c-1.912-1.178-4.877-1.766-8.891-1.766h-3.771v15.854h4.014c3.934,0,6.834-0.654,8.709-1.965   c1.873-1.313,2.809-3.373,2.809-6.182C117.277,189.179,116.322,187.198,114.408,186.02z" data-original="#000000" class="hovered-path active-path" data-old_color="#000000" fill="#663387"/>
	<path d="M150.314,10.7c-52.316,0-94.879,42.563-94.879,94.879v184.027h189.756V105.579C245.191,53.263,202.63,10.7,150.314,10.7z    M122.377,232.743l-14.01-22.519h-6.621v22.519H89.303v-58.685H106.4c7.975,0,13.875,1.451,17.701,4.357   c3.828,2.902,5.74,7.311,5.74,13.227c0,3.451-0.947,6.521-2.852,9.211c-1.898,2.688-4.588,4.797-8.064,6.32   c8.828,13.193,14.584,21.717,17.26,25.57H122.377z M156.014,232.743H143.57v-58.685h12.443V232.743z M161.408,148.306h-22.188   V99.864h-27.271V77.679h27.271V58.081h22.188v19.598h27.27v22.186h-27.27V148.306z M205.406,206.852   c-3.947,3.346-9.561,5.018-16.838,5.018h-5.34v20.873h-12.443v-58.685h18.746c7.119,0,12.529,1.535,16.236,4.596   c3.707,3.066,5.559,7.635,5.559,13.709C211.326,198.677,209.354,203.509,205.406,206.852z" data-original="#000000" class="hovered-path active-path" data-old_color="#000000" fill="#663387"/>
	<path d="M196.375,186.343c-1.594-1.393-4.088-2.088-7.486-2.088h-5.66v17.42h4.094c3.826,0,6.691-0.754,8.592-2.268   c1.898-1.512,2.85-3.713,2.85-6.604C198.764,189.888,197.967,187.735,196.375,186.343z" data-original="#000000" class="hovered-path active-path" data-old_color="#000000" fill="#663387"/>
</g></g> </svg>
