<svg xmlns="http://www.w3.org/2000/svg" viewBox="0 0 41.24 45.87"><defs><style>.cls-1{fill:#663387;}.cls-2{fill:#9ebfc8;}.cls-3{fill:#fdfcea;}.cls-4{fill:#3f2256;}</style></defs><title>urna</title><g id="Capa_2" data-name="Capa 2"><g id="Layer_1" data-name="Layer 1"><path class="cls-1" d="M9.17,8.35C9.17,21.5,0,12.33,0,25.48,0,35.35,5.21,37.81,7.79,44c0,1,5.77,1.89,12.83,1.89S33.45,45,33.45,44c2.58-6.17,7.79-8.63,7.79-18.5,0-13.15-9.17-4-9.17-17.13Z"/><path class="cls-2" d="M22.61,2a2,2,0,1,1-2-2A2,2,0,0,1,22.61,2Z"/><path class="cls-3" d="M27.6,20.63a9.77,9.77,0,0,1-1.73.76,13.92,13.92,0,0,1-2.45.61l-.93.1a50.21,50.21,0,0,1,.68-5.34c.24-1.29.52-2.38.74-3.13s.38-1.19.38-1.19H17s.17.43.38,1.19.5,1.84.74,3.13a49.75,49.75,0,0,1,.67,5.31,16.18,16.18,0,0,1-3.37-.73,11.83,11.83,0,0,1-1.73-.73,5.53,5.53,0,0,1-.66-.38v7.34a6.35,6.35,0,0,1,.66-.39,11.83,11.83,0,0,1,1.73-.73,16.21,16.21,0,0,1,3.54-.74c0,.19,0,.37,0,.56,0,.87,0,1.73,0,2.58s-.09,1.69-.16,2.5a43.59,43.59,0,0,1-.6,4.44,29.22,29.22,0,0,1-.77,3.13,12.15,12.15,0,0,1-.4,1.19h7.34a12.15,12.15,0,0,1-.4-1.19,29.22,29.22,0,0,1-.77-3.13,43.59,43.59,0,0,1-.6-4.44c-.07-.81-.13-1.64-.15-2.5s-.05-1.71-.05-2.58c0-.2,0-.39,0-.6l1.09.13a13.11,13.11,0,0,1,2.45.6,10.48,10.48,0,0,1,1.73.77,5.31,5.31,0,0,1,.66.4V20.23A5.31,5.31,0,0,1,27.6,20.63Z"/><path class="cls-4" d="M7.84,7.43a.92.92,0,0,0,.91.92H32.49a.92.92,0,0,0,.91-.92V4.82c0-1-5.72-1.89-12.78-1.89S7.84,3.78,7.84,4.82Z"/></g></g></svg>